<svg width="80" height="81" viewBox="0 0 80 81" fill="none" xmlns="http://www.w3.org/2000/svg">
<path d="M68.0163 49.3409C68.0163 51.0171 67.53 52.6557 66.619 54.0494C65.708 55.4432 64.4131 56.5295 62.8981 57.1709C61.3832 57.8124 59.7161 57.9803 58.1079 57.6533C56.4996 57.3263 55.0223 56.5191 53.8627 55.3339C52.7032 54.1486 51.9135 52.6385 51.5936 50.9945C51.2737 49.3504 51.4378 47.6464 52.0653 46.0977C52.6928 44.549 53.7554 43.2254 55.1188 42.2941C56.4823 41.3628 58.0852 40.8657 59.725 40.8656C61.9232 40.868 64.0308 41.7617 65.5852 43.3506C67.1396 44.9395 68.0139 47.0938 68.0163 49.3409ZM54.569 60.4467V69.3144C54.569 69.5368 54.6258 69.7553 54.7337 69.9484C54.8417 70.1414 54.997 70.3023 55.1844 70.4152C55.3719 70.5281 55.5848 70.589 55.8023 70.592C56.0198 70.595 56.2343 70.5399 56.4246 70.4321L58.8171 69.0777C59.0951 68.9203 59.4076 68.8377 59.7253 68.8377C60.0431 68.8377 60.3556 68.9203 60.6335 69.0777L63.0246 70.4321C63.2149 70.5399 63.4295 70.595 63.647 70.5921C63.8645 70.5891 64.0775 70.5282 64.265 70.4153C64.4524 70.3024 64.6078 70.1414 64.7157 69.9483C64.8236 69.7552 64.8804 69.5367 64.8804 69.3143V60.4476C63.2718 61.2387 61.5097 61.6495 59.7246 61.6493C57.9395 61.6492 56.1774 61.2381 54.569 60.4467ZM75.1 11.2778V60.2806C75.1 60.6194 74.9683 60.9445 74.7339 61.1841C74.4995 61.4237 74.1815 61.5583 73.85 61.5583H68.625V57.5972C70.6459 55.3449 71.7656 52.399 71.7625 49.3428C71.7674 47.3422 71.295 45.3706 70.3863 43.5988C69.4777 41.827 68.1601 40.3083 66.5477 39.1744C64.9353 38.0406 63.0769 37.3256 61.1332 37.0916C59.1896 36.8576 57.2195 37.1115 55.3935 37.8314C53.5675 38.5513 51.9408 39.7154 50.6542 41.2229C49.3677 42.7304 48.4601 44.5358 48.0101 46.4828C47.5601 48.4297 47.5812 50.4595 48.0718 52.3962C48.5623 54.3329 49.5073 56.1181 50.825 57.5972V61.5583H6.25C5.91848 61.5583 5.60054 61.4237 5.36612 61.1841C5.1317 60.9445 5 60.6194 5 60.2806V11.2778C5 10.9389 5.1317 10.6139 5.36612 10.3743C5.60054 10.1346 5.91848 10 6.25 10H73.85C74.1815 10 74.4995 10.1346 74.7339 10.3743C74.9683 10.6139 75.1 10.9389 75.1 11.2778ZM26.7375 20.3117C26.7372 20.5635 26.7854 20.8128 26.8796 21.0455C26.9737 21.2782 27.1118 21.4897 27.2859 21.6677C27.4601 21.8457 27.6669 21.9869 27.8946 22.0831C28.1222 22.1793 28.3662 22.2287 28.6125 22.2283H51.4875C51.9848 22.2283 52.4617 22.0264 52.8133 21.667C53.165 21.3075 53.3625 20.82 53.3625 20.3117C53.3625 19.8033 53.165 19.3158 52.8133 18.9564C52.4617 18.5969 51.9848 18.395 51.4875 18.395H28.6125C28.3662 18.3947 28.1222 18.444 27.8946 18.5402C27.6669 18.6364 27.4601 18.7776 27.2859 18.9556C27.1118 19.1337 26.9737 19.3451 26.8796 19.5778C26.7854 19.8105 26.7372 20.0599 26.7375 20.3117ZM43.725 46.4294C43.7253 46.1777 43.6771 45.9283 43.5829 45.6956C43.4888 45.4629 43.3507 45.2514 43.1766 45.0734C43.0024 44.8954 42.7956 44.7542 42.5679 44.658C42.3403 44.5618 42.0963 44.5124 41.85 44.5128H13.8375C13.3402 44.5128 12.8633 44.7147 12.5117 45.0742C12.16 45.4336 11.9625 45.9211 11.9625 46.4294C11.9625 46.9378 12.16 47.4253 12.5117 47.7847C12.8633 48.1442 13.3402 48.3461 13.8375 48.3461H41.85C42.0963 48.3464 42.3403 48.2971 42.5679 48.2009C42.7956 48.1047 43.0024 47.9635 43.1766 47.7855C43.3507 47.6074 43.4888 47.396 43.5829 47.1633C43.6771 46.9306 43.7253 46.6812 43.725 46.4294ZM46.2875 37.7278C46.2878 37.476 46.2396 37.2266 46.1454 36.9939C46.0513 36.7612 45.9132 36.5498 45.7391 36.3717C45.5649 36.1937 45.3581 36.0525 45.1304 35.9563C44.9028 35.8601 44.6588 35.8108 44.4125 35.8111H13.8375C13.3402 35.8111 12.8633 36.013 12.5117 36.3725C12.16 36.7319 11.9625 37.2194 11.9625 37.7278C11.9625 38.2361 12.16 38.7236 12.5117 39.0831C12.8633 39.4425 13.3402 39.6444 13.8375 39.6444H44.4125C44.6588 39.6448 44.9028 39.5954 45.1304 39.4992C45.3581 39.403 45.5649 39.2619 45.7391 39.0838C45.9132 38.9058 46.0513 38.6943 46.1454 38.4617C46.2396 38.229 46.2878 37.9796 46.2875 37.7278ZM68.1375 29.0133C68.1361 28.5055 67.938 28.0188 67.5867 27.6597C67.2354 27.3006 66.7593 27.0981 66.2625 27.0967H13.8375C13.3402 27.0967 12.8633 27.2986 12.5117 27.658C12.16 28.0175 11.9625 28.505 11.9625 29.0133C11.9625 29.5217 12.16 30.0092 12.5117 30.3686C12.8633 30.7281 13.3402 30.93 13.8375 30.93H66.2625C66.5088 30.9303 66.7528 30.881 66.9804 30.7848C67.2081 30.6886 67.4149 30.5474 67.5891 30.3694C67.7632 30.1913 67.9013 29.9799 67.9954 29.7472C68.0896 29.5145 68.1378 29.2651 68.1375 29.0133Z" fill="#008000"/>
</svg>
