<svg width="78" height="80" viewBox="0 0 78 80" fill="none" xmlns="http://www.w3.org/2000/svg">
<path fill-rule="evenodd" clip-rule="evenodd" d="M21.6135 17L25.9026 65.6914C26.0319 67.1595 27.365 68.2552 28.8681 68.1289L55.5952 65.8832L31.6568 79.4538C30.352 80.1935 28.6679 79.7568 27.9106 78.4825L0.368741 32.1386C-0.388596 30.8643 0.058482 29.2195 1.36326 28.4798L21.6135 17Z" fill="#008000"/>
<g clip-path="url(#clip0_0_654)">
<path d="M69.4411 15.7898L55.4149 4.24974C55.2882 4.1456 55.1416 4.0672 54.9835 4.01911C54.8254 3.97102 54.6591 3.95422 54.4943 3.96969L25.9355 6.36933C24.4324 6.49563 23.3105 7.79767 23.4398 9.26571L28.1425 62.6534C28.2718 64.1214 29.605 65.2172 31.1081 65.0909L71.1154 61.7293C72.6185 61.603 73.7404 60.3009 73.6111 58.8329L69.8923 16.6145C69.8643 16.2965 69.6984 15.99 69.4411 15.7898ZM53.43 38.4436C53.25 38.6929 53.0919 38.9034 52.9327 39.1016C51.6498 40.7253 49.8121 41.7794 48.0459 41.9278C46.9061 42.0236 45.8602 41.754 45.0118 41.1475L44.7022 40.927C43.762 41.8564 43.0247 42.9413 42.5008 44.1561C42.3707 44.4555 42.1257 44.6932 41.8182 44.8181C41.5107 44.943 41.1653 44.9452 40.8562 44.8242C40.2144 44.5577 39.9117 43.8437 40.1721 43.2179C40.7686 41.8245 41.591 40.5599 42.6424 39.461C40.4674 37.8321 40.3149 34.3818 42.2741 31.5551C42.4197 31.3457 42.5893 31.122 42.7578 30.886C47.2026 24.905 55.1351 23.2772 55.47 23.2121C55.8039 23.1347 56.1643 23.2153 56.4468 23.4134C56.5893 23.5131 56.7089 23.6407 56.798 23.7882C56.887 23.9356 56.9435 24.0996 56.9638 24.2697C57.0055 24.5989 57.8748 32.4627 53.43 38.4436Z" fill="#008000"/>
<path d="M62.6154 34.5C62.6154 41.9559 56.4163 48 48.7693 48C41.1223 48 34.9231 41.9559 34.9231 34.5C34.9231 27.0442 41.1223 21 48.7693 21C56.4163 21 62.6154 27.0442 62.6154 34.5Z" fill="#008000"/>
</g>
<defs>
<clipPath id="clip0_0_654">
<rect width="52.0876" height="63.8613" fill="white" transform="matrix(0.996489 -0.0837298 0.0877459 0.996143 20.4922 4.36133)"/>
</clipPath>
</defs>
</svg>
