<svg width="80" height="81" viewBox="0 0 80 81" fill="none" xmlns="http://www.w3.org/2000/svg">
<path d="M61.9997 3H16.9996C8.74907 3 2 9.74907 2 17.9996V62.9997C2 71.2502 8.74907 78 16.9996 78H61.999C70.2502 78 76.9993 71.2502 76.9993 62.9997V17.9996C77 9.74907 70.2509 3 61.9997 3ZM37.2637 17.066V12.3785L50.5009 20.018L37.2637 27.6568V23.209C32.4355 23.8356 28.0281 26.4665 25.2006 30.5168L20.1729 27.0026C24.156 21.3108 30.4326 17.7209 37.2637 17.066ZM16.0625 42.7405H11.375L19.0145 29.504L26.6532 42.7405H22.2055C22.8314 47.5673 25.463 51.9769 29.5132 54.8044L25.999 59.8321C20.3066 55.8475 16.7181 49.5709 16.0625 42.7405ZM41.7412 63.9333V68.6208L28.5083 60.9813L41.7412 53.3425V57.7917C46.5638 57.1616 50.9698 54.5356 53.8044 50.4896L58.8285 54.0059C54.8405 59.6927 48.5709 63.2777 41.7412 63.9333ZM59.9855 51.5009L52.3461 38.2637H56.7995C56.1693 33.439 53.5406 29.0316 49.486 26.1935L53.0059 21.1729C58.697 25.1631 62.2854 31.4319 62.9375 38.2637H67.625L59.9855 51.5009Z" fill="#008000"/>
</svg>
