<svg width="114" height="81" viewBox="0 0 114 81" fill="none" xmlns="http://www.w3.org/2000/svg">
<g >
<path d="M69.0031 53.5397C67.5795 56.6231 62.5021 58.9038 56.4568 58.9038C50.4422 58.9038 45.3857 56.6461 43.9325 53.5866C32.6646 56.9742 24.7815 64.7622 24.7815 73.8281C24.7815 73.8855 24.7818 73.9428 24.7824 74H88.31C88.3106 73.9428 88.3109 73.8855 88.3109 73.8281C88.3109 64.7202 80.3546 56.902 69.0031 53.5397Z" fill="#008000"/>
<path d="M39.803 33.6304C40.3813 44.7147 47.5783 53.4759 56.3717 53.4759C65.1651 53.4759 72.3621 44.7147 72.9404 33.6304H39.803Z" fill="#008000"/>
<path d="M52.2992 7C51.8246 7 51.3951 7.28042 51.2059 7.71391L50.9399 8.32303L52.0275 14.4655C52.1173 14.9729 51.7771 15.4568 51.2676 15.5463C50.7581 15.6357 50.2723 15.2969 50.1824 14.7895L49.341 10.037C43.2243 12.7987 38.947 19.0537 38.9141 26.3367H37.8919C36.6691 26.3367 35.6778 27.324 35.6778 28.5418C35.6778 29.7596 36.6691 30.7468 37.8919 30.7468H74.8514C76.0743 30.7468 77.0656 29.7596 77.0656 28.5418C77.0656 27.324 76.0743 26.3367 74.8514 26.3367H73.8293C73.796 18.9768 69.4281 12.6667 63.2079 9.95061L62.3511 14.7895C62.2613 15.2969 61.7754 15.6357 61.2659 15.5463C60.7564 15.4568 60.4162 14.9729 60.5061 14.4655L61.5939 8.32145C61.5974 8.30135 61.6016 8.28149 61.6064 8.26192L61.3672 7.71391C61.1779 7.28042 60.7485 7 60.2738 7H52.2992Z" fill="#008000"/>
<path d="M24.3782 54.0811C30.8385 54.0811 36.0756 46.5819 36.0756 37.3311C36.0756 28.0803 30.8385 20.5811 24.3782 20.5811C17.9178 20.5811 12.6807 28.0803 12.6807 37.3311C12.6807 46.5819 17.9178 54.0811 24.3782 54.0811Z" fill="#008000"/>
<path d="M33.3234 53.4366C32.3472 55.8532 28.8656 57.6408 24.7202 57.6408C20.5959 57.6408 17.1286 55.8713 16.1321 53.4732C8.40554 56.1284 3 62.2325 3 69.3383C3 69.3832 3.00021 69.4281 3.00064 69.473H22.9342C23.7615 65.6111 27.2074 58.8476 35.8211 54.4379C35.0199 54.0635 34.186 53.7286 33.3234 53.4366Z" fill="#008000"/>
<path d="M38.6121 55.9872C38.4907 56.1245 38.3394 56.2394 38.1622 56.321C29.9246 60.1163 26.6493 66.133 25.7351 69.473H46.5624C46.5628 69.4281 46.563 69.3832 46.563 69.3383C46.563 63.9606 43.467 59.1567 38.6121 55.9872Z" fill="#008000"/>
<path d="M88.8151 54.0811C95.2755 54.0811 100.513 46.5819 100.513 37.3311C100.513 28.0803 95.2755 20.5811 88.8151 20.5811C82.3548 20.5811 77.1177 28.0803 77.1177 37.3311C77.1177 46.5819 82.3548 54.0811 88.8151 54.0811Z" fill="#008000"/>
<path d="M97.7604 53.4366C96.7841 55.8532 93.3025 57.6408 89.1572 57.6408C85.0329 57.6408 81.5655 55.8713 80.5691 53.4732C79.6409 53.7922 78.7462 54.1609 77.8904 54.5752C86.3101 58.9868 89.6937 65.6509 90.5125 69.473H110.999C111 69.4281 111 69.3832 111 69.3383C111 62.1996 105.544 56.0719 97.7604 53.4366Z" fill="#008000"/>
<path d="M87.7116 69.473C86.7974 66.133 83.522 60.1164 75.2846 56.3211C75.2084 56.286 75.137 56.2448 75.0708 56.1983C70.3985 59.3679 67.437 64.0787 67.437 69.3383C67.437 69.3832 67.4372 69.4281 67.4376 69.473H87.7116Z" fill="#008000"/>
</g>
</svg>
