<svg width="80" height="81" viewBox="0 0 80 81" fill="none" xmlns="http://www.w3.org/2000/svg">
<path d="M33.0317 65.1446L22.8542 78.709C22.7697 78.8212 22.6548 78.9067 22.5233 78.9551C22.3917 79.0035 22.249 79.0128 22.1124 78.9819C21.9757 78.951 21.8507 78.8812 21.7525 78.7808C21.6543 78.6805 21.5869 78.5538 21.5585 78.4161L18.8562 65.4756L5.71616 66.4327C5.57742 66.4392 5.43958 66.4071 5.31787 66.3399C5.19615 66.2727 5.09528 66.173 5.02638 66.0519C4.95931 65.9283 4.92914 65.7879 4.93949 65.6475C4.94983 65.5071 5.00026 65.3727 5.08472 65.2603L13.6158 53.8884L17.2339 55.9848C17.3731 56.0658 17.4887 56.1819 17.5693 56.3217L19.8428 60.2686C20.5641 61.5196 21.5999 62.5585 22.8464 63.2815C24.093 64.0044 25.5067 64.3861 26.9462 64.3882H31.4888C31.6485 64.3923 31.8057 64.4276 31.9519 64.4922C32.3259 64.6852 32.6867 64.9032 33.0317 65.1446ZM74.918 65.2603L66.3716 53.8708L62.7258 55.987C62.588 56.0669 62.4735 56.1818 62.394 56.3202L60.1205 60.2744C59.399 61.5251 58.3631 62.5637 57.1166 63.2864C55.87 64.0091 54.4565 64.3905 53.0171 64.3926H48.4745C48.3145 64.3925 48.1574 64.4347 48.0188 64.5149L46.9622 65.1278L57.1529 78.7097C57.2381 78.821 57.353 78.9059 57.4842 78.9543C57.6155 79.0028 57.7577 79.0129 57.8944 78.9836C58.0312 78.9529 58.1562 78.8834 58.2546 78.7833C58.353 78.6832 58.4206 78.5567 58.4493 78.419L61.1472 65.4756L74.3215 66.4334C74.4578 66.4353 74.5919 66.3989 74.7086 66.3282C74.8253 66.2574 74.9199 66.1553 74.9817 66.0333C75.0435 65.9113 75.07 65.7743 75.0582 65.638C75.0465 65.5016 74.9969 65.3713 74.9151 65.2618L74.918 65.2603ZM60.6849 33.4826C60.6849 37.5957 59.4704 41.6164 57.195 45.0363C54.9196 48.4562 51.6854 51.1217 47.9015 52.6957C44.1176 54.2697 39.954 54.6815 35.937 53.8791C31.92 53.0767 28.2302 51.096 25.3342 48.1877C22.4381 45.2793 20.4659 41.5738 19.6668 37.5397C18.8678 33.5057 19.2779 29.3243 20.8453 25.5243C22.4126 21.7243 25.0668 18.4764 28.4722 16.1913C31.8776 13.9062 35.8813 12.6865 39.9769 12.6865C45.4674 12.6919 50.7314 14.8847 54.6137 18.7835C58.496 22.6824 60.6795 27.9688 60.6849 33.4826ZM54.1473 29.0356C53.9398 28.3897 53.5568 27.8147 53.0415 27.3755C52.5262 26.9363 51.8991 26.6503 51.2307 26.5496L45.7496 25.706L43.2589 20.7267C42.9554 20.1203 42.4901 19.6106 41.9148 19.2544C41.3396 18.8982 40.6771 18.7095 40.0014 18.7095C39.3256 18.7095 38.6631 18.8982 38.0879 19.2544C37.5126 19.6106 37.0473 20.1203 36.7439 20.7267L34.2531 25.706L28.7727 26.5496C28.1045 26.6521 27.4778 26.9391 26.9626 27.3786C26.4474 27.8181 26.064 28.3929 25.8553 29.0386C25.6466 29.6843 25.6208 30.3755 25.7807 31.0351C25.9407 31.6947 26.2801 32.2967 26.761 32.7738L30.7014 36.6899L29.803 42.1818C29.6917 42.8521 29.7692 43.5403 30.0269 44.1687C30.2846 44.7971 30.7122 45.3405 31.2614 45.7376C31.8091 46.1336 32.4549 46.3705 33.1279 46.4221C33.8008 46.4738 34.4749 46.3383 35.0763 46.0305L40.0017 43.4742L44.9242 46.0284C45.5262 46.3375 46.2013 46.474 46.8755 46.423C47.5496 46.3719 48.1967 46.1353 48.7457 45.7391C49.2944 45.3414 49.7214 44.7975 49.9784 44.1689C50.2355 43.5403 50.3124 42.852 50.2004 42.1818L49.3021 36.6899L53.2461 32.773C53.728 32.2962 54.0678 31.6936 54.227 31.0333C54.3862 30.3729 54.3586 29.681 54.1473 29.0356ZM47.3224 42.6592L46.1806 35.6698L51.195 30.6905C51.2912 30.5951 51.359 30.4747 51.391 30.3427C51.423 30.2108 51.4178 30.0726 51.3761 29.9434C51.3343 29.8143 51.2576 29.6993 51.1546 29.6114C51.0515 29.5235 50.9261 29.4661 50.7925 29.4457L43.8203 28.3766L40.6536 22.0447C40.5929 21.9235 40.4998 21.8215 40.3848 21.7503C40.2697 21.679 40.1372 21.6413 40.0021 21.6413C39.8669 21.6413 39.7344 21.679 39.6194 21.7503C39.5043 21.8215 39.4113 21.9235 39.3506 22.0447L36.1839 28.3736L29.2102 29.4449C29.0766 29.4654 28.9512 29.5228 28.8482 29.6107C28.7451 29.6986 28.6684 29.8135 28.6267 29.9427C28.5849 30.0718 28.5797 30.2101 28.6117 30.342C28.6437 30.4739 28.7116 30.5943 28.8077 30.6898L33.8221 35.6691L32.681 42.6592C32.6592 42.7933 32.6749 42.9307 32.7264 43.0563C32.7779 43.1819 32.8632 43.2906 32.9727 43.3703C33.0824 43.4497 33.2117 43.4972 33.3465 43.5075C33.4814 43.5178 33.6164 43.4906 33.7368 43.4288L40.0017 40.1776L46.2673 43.4266C46.3708 43.4801 46.4856 43.5077 46.602 43.5072C46.7072 43.5063 46.8111 43.4827 46.9064 43.438C47.0018 43.3933 47.0865 43.3286 47.1548 43.2482C47.2231 43.1678 47.2734 43.0736 47.3023 42.972C47.3312 42.8704 47.3381 42.7637 47.3224 42.6592ZM70.6262 36.137L68.3549 40.0912C68.02 40.676 67.844 41.3388 67.8445 42.0134V46.5746C67.8428 47.5061 67.5979 48.4209 67.1341 49.2276C66.6702 50.0343 66.0038 50.7046 65.2013 51.1717L61.2639 53.4527C60.6818 53.7903 60.1987 54.276 59.8631 54.8608L57.5911 58.8114C57.1262 59.6174 56.4587 60.2868 55.6554 60.7527C54.8521 61.2185 53.9411 61.4644 53.0135 61.4658H48.4708C47.7991 61.4653 47.1391 61.642 46.5568 61.9784L42.6194 64.2601C41.8152 64.7245 40.9038 64.9688 39.9762 64.9688C39.0486 64.9688 38.1372 64.7245 37.333 64.2601L33.3956 61.9791C32.8135 61.6424 32.1533 61.4656 31.4816 61.4665H26.9389C26.0113 61.4651 25.1003 61.2192 24.297 60.7534C23.4937 60.2876 22.8262 59.6182 22.3613 58.8121L20.0958 54.8572C19.7595 54.2727 19.2762 53.7871 18.6944 53.449L14.7569 51.1695C13.9545 50.7022 13.2881 50.0317 12.8243 49.2249C12.3605 48.4181 12.1155 47.5033 12.1138 46.5717V42.0097C12.1144 41.3351 11.9384 40.6722 11.6034 40.0876L9.33277 36.1334C8.87021 35.3258 8.62678 34.4105 8.62678 33.4789C8.62678 32.5473 8.87021 31.632 9.33277 30.8245L11.6041 26.8703C11.9389 26.2858 12.1149 25.6232 12.1145 24.9489V20.3869C12.116 19.4554 12.3609 18.5406 12.8247 17.7338C13.2885 16.9271 13.9551 16.2568 14.7577 15.7898L18.6951 13.5088C19.2763 13.1731 19.7593 12.6897 20.0958 12.1073L22.3671 8.15749C22.8321 7.35141 23.4996 6.68201 24.3029 6.2162C25.1062 5.75039 26.0172 5.50448 26.9448 5.50306H31.4874C32.1588 5.50341 32.8186 5.32665 33.4007 4.99048L37.3381 2.70877C38.1423 2.24439 39.0537 2 39.9813 2C40.9089 2 41.8203 2.24439 42.6245 2.70877L46.5619 4.98975C47.1441 5.32624 47.8042 5.50301 48.476 5.50233H53.0186C53.9462 5.50375 54.8572 5.74965 55.6605 6.21547C56.4638 6.68128 57.1313 7.35068 57.5962 8.15676L59.8675 12.1073C60.2038 12.6918 60.6871 13.1774 61.269 13.5154L65.2064 15.7957C66.009 16.2626 66.6755 16.933 67.1394 17.7397C67.6032 18.5464 67.8481 19.4612 67.8496 20.3928V24.9547C67.849 25.6291 68.025 26.2917 68.36 26.8762L70.6306 30.8304C71.092 31.638 71.3345 32.5531 71.3337 33.4843C71.333 34.4155 71.089 35.3301 70.6262 36.137ZM63.6015 33.4826C63.6015 28.7902 62.216 24.2032 59.6201 20.3016C57.0242 16.4 53.3345 13.3591 49.0177 11.5634C44.7008 9.76774 39.9507 9.29791 35.368 10.2133C30.7853 11.1288 26.5758 13.3884 23.2718 16.7064C19.9679 20.0244 17.7178 24.2518 16.8063 28.8541C15.8947 33.4563 16.3626 38.2266 18.1506 42.5618C19.9387 46.897 22.9668 50.6024 26.8518 53.2093C30.7369 55.8163 35.3044 57.2077 39.9769 57.2077C46.2407 57.2015 52.2461 54.6999 56.6752 50.2519C61.1043 45.804 63.5953 39.773 63.6015 33.4826Z" fill="#008000"/>
</svg>
