<svg width="80" height="81" viewBox="0 0 80 81" fill="none" xmlns="http://www.w3.org/2000/svg">
<path  fill-rule="evenodd" clip-rule="evenodd" d="M16.0822 58.1824H13.2434C9.22888 58.1824 5.9707 54.8859 5.9707 50.8188C5.9707 44.2872 5.9707 32.8048 5.9707 26.2733C5.9707 24.3195 6.73678 22.4467 8.10163 21.0672C9.46647 19.6853 11.3162 18.9097 13.2434 18.9097C21.641 18.9097 38.7877 18.9097 47.1828 18.9097C49.1125 18.9097 50.9622 19.6853 52.3271 21.0672C53.6895 22.4467 54.4555 24.3195 54.4555 26.2733V28.7278H57.3646C60.4774 28.7278 63.4713 29.9404 65.7259 32.1127C67.6313 33.9511 70.075 36.3075 71.6143 37.7925C73.0422 39.1695 73.8495 41.0791 73.8495 43.0771C73.8495 45.9342 73.8495 51.047 73.8495 53.8182C73.8495 56.2286 71.9198 58.1824 69.5392 58.1824H63.738C62.7392 61.0419 60.0459 63.0915 56.8798 63.0915C53.7162 63.0915 51.0228 61.0419 50.0216 58.1824H29.7986C28.7998 61.0419 26.1065 63.0915 22.9404 63.0915C19.7768 63.0915 17.0834 61.0419 16.0822 58.1824ZM22.9404 53.2733C24.2786 53.2733 25.3646 54.3729 25.3646 55.7278C25.3646 57.0828 24.2786 58.1824 22.9404 58.1824C21.6046 58.1824 20.5162 57.0828 20.5162 55.7278C20.5162 54.3729 21.6046 53.2733 22.9404 53.2733ZM56.8798 53.2733C58.218 53.2733 59.304 54.3729 59.304 55.7278C59.304 57.0828 58.218 58.1824 56.8798 58.1824C55.544 58.1824 54.4555 57.0828 54.4555 55.7278C54.4555 54.3729 55.544 53.2733 56.8798 53.2733ZM42.3343 38.546H18.0919C16.7562 38.546 15.6677 39.6457 15.6677 41.0006C15.6677 42.3555 16.7562 43.4551 18.0919 43.4551H42.3343C43.6725 43.4551 44.7586 42.3555 44.7586 41.0006C44.7586 39.6457 43.6725 38.546 42.3343 38.546ZM42.3343 31.1824H22.9404C21.6046 31.1824 20.5162 32.282 20.5162 33.6369C20.5162 34.9918 21.6046 36.0915 22.9404 36.0915H42.3343C43.6725 36.0915 44.7586 34.9918 44.7586 33.6369C44.7586 32.282 43.6725 31.1824 42.3343 31.1824Z" fill="#008000"/>
</svg>
