<svg width="80" height="81" viewBox="0 0 80 81" fill="none" xmlns="http://www.w3.org/2000/svg">
<path fill-rule="evenodd" clip-rule="evenodd" d="M7.07278 6.56989L3.47758 10.174C2.86558 10.7875 1.87198 10.7875 1.25998 10.174C0.647981 9.56047 0.647981 8.56441 1.25998 7.9509L7.53198 1.66337C8.14398 1.04906 9.13758 1.04906 9.74958 1.66337L16.0216 7.9509C16.6336 8.56441 16.6336 9.56047 16.0216 10.174C15.4096 10.7875 14.416 10.7875 13.804 10.174L10.2088 6.56989V70.3658H73.8472L70.252 66.7617C69.64 66.1482 69.64 65.1521 70.252 64.5386C70.864 63.9251 71.8576 63.9251 72.4696 64.5386L78.7416 70.8261C79.3536 71.4397 79.3536 72.4349 78.7416 73.0492L72.4696 79.3368C71.8576 79.9503 70.864 79.9503 70.252 79.3368C69.64 78.7232 69.64 77.7272 70.252 77.1137L73.8472 73.5096H10.2088V78.2252C10.2088 79.093 9.50638 79.7971 8.64078 79.7971C7.77518 79.7971 7.07278 79.093 7.07278 78.2252V73.5096H2.36878C1.50318 73.5096 0.800781 72.8054 0.800781 71.9377C0.800781 71.0699 1.50318 70.3658 2.36878 70.3658H7.07278V6.56989ZM65.1184 18.4641C65.1184 16.7278 63.7144 15.3203 61.9824 15.3203H18.0192C16.2872 15.3203 14.8832 16.7278 14.8832 18.4641V62.5361C14.8832 64.2724 16.2872 65.6798 18.0192 65.6798H61.9824C63.7144 65.6798 65.1184 64.2724 65.1184 62.5361V18.4641Z" fill="#008000"/>
</svg>
