<svg width="80" height="81" viewBox="0 0 80 81" fill="none" xmlns="http://www.w3.org/2000/svg">
<path d="M53.7257 55.4021C52.157 58.8076 46.5625 61.3266 39.9015 61.3266C33.2743 61.3266 27.7027 58.833 26.1015 55.4538C13.686 59.1954 5 67.797 5 77.8102C5 77.8735 5.00034 77.9368 5.00103 78H74.999C74.9997 77.9368 75 77.8735 75 77.8102C75 67.7506 66.2333 59.1157 53.7257 55.4021Z" fill="#008000"/>
<path d="M21.5514 33.4127C22.1886 45.655 30.1187 55.3316 39.8077 55.3316C49.4967 55.3316 57.4268 45.655 58.064 33.4127H21.5514Z" fill="#008000"/>
<path d="M35.3205 4C34.7974 4 34.3243 4.30971 34.1157 4.7885L33.8227 5.46125L35.021 12.2455C35.12 12.8059 34.7452 13.3404 34.1838 13.4392C33.6224 13.538 33.087 13.1638 32.9881 12.6034L32.0609 7.35427C25.3213 10.4046 20.6083 17.3131 20.572 25.357H19.4458C18.0984 25.357 17.0061 26.4474 17.0061 27.7924C17.0061 29.1375 18.0984 30.2278 19.4458 30.2278H60.1696C61.517 30.2278 62.6093 29.1375 62.6093 27.7924C62.6093 26.4474 61.517 25.357 60.1696 25.357H59.0434C59.0067 17.2281 54.1939 10.2587 47.3401 7.25888L46.3961 12.6034C46.2971 13.1638 45.7618 13.538 45.2004 13.4391C44.639 13.3403 44.2642 12.8059 44.3632 12.2455L45.5618 5.45951C45.5657 5.43731 45.5703 5.41538 45.5756 5.39377L45.312 4.7885C45.1034 4.30971 44.6302 4 44.1072 4H35.3205Z" fill="#008000"/>
</svg>
