<svg width="25" height="20" viewBox="0 0 25 20" fill="none" xmlns="http://www.w3.org/2000/svg">
<path d="M24.9457 4.87436L22.038 14.1116C21.8207 14.7694 21.25 15.208 20.5707 15.208H9.34783C8.69565 15.208 8.07065 14.7969 7.85326 14.1938L3.55978 2.59931H1.08696C0.48913 2.59931 0 2.10593 0 1.5029C0 0.899878 0.48913 0.406494 1.08696 0.406494H4.32065C4.78261 0.406494 5.19022 0.708006 5.35326 1.14657L9.78261 13.0152H20.1087L22.4185 5.61443H9.61957C9.02174 5.61443 8.53261 5.12105 8.53261 4.51802C8.53261 3.915 9.02174 3.42162 9.61957 3.42162H23.913C24.2663 3.42162 24.5924 3.61349 24.7826 3.88759C25 4.16169 25.0543 4.54543 24.9457 4.87436ZM9.8913 16.6607C9.42935 16.6607 8.96739 16.8526 8.6413 17.1815C8.31522 17.5105 8.125 17.9764 8.125 18.4424C8.125 18.9084 8.31522 19.3744 8.6413 19.7033C8.96739 20.0322 9.42935 20.2241 9.8913 20.2241C10.3533 20.2241 10.8152 20.0322 11.1413 19.7033C11.4674 19.3744 11.6576 18.9084 11.6576 18.4424C11.6576 17.9764 11.4674 17.5105 11.1413 17.1815C10.8152 16.8526 10.3533 16.6607 9.8913 16.6607ZM19.6467 16.6607C19.1848 16.6607 18.7228 16.8526 18.3967 17.1815C18.0707 17.5105 17.8804 17.9764 17.8804 18.4424C17.8804 18.9084 18.0707 19.3744 18.3967 19.7033C18.7228 20.0322 19.1848 20.2241 19.6467 20.2241C20.1087 20.2241 20.5707 20.0322 20.8967 19.7033C21.2228 19.3744 21.413 18.9084 21.413 18.4424C21.413 17.9764 21.2228 17.5105 20.8967 17.1815C20.5707 16.8526 20.1087 16.6607 19.6467 16.6607Z" fill="white"/>
</svg>
