<svg width="40" height="40" viewBox="0 0 40 40" fill="none" xmlns="http://www.w3.org/2000/svg">
<path d="M2.04333 40H29.6233C30.75 40 31.6667 39.0833 31.6667 37.9567V29.1667C31.6667 28.7067 31.2933 28.3333 30.8333 28.3333C30.3733 28.3333 30 28.7067 30 29.1667V37.9567C30 38.1633 29.83 38.3333 29.6233 38.3333H2.04333C1.83667 38.3333 1.66667 38.1633 1.66667 37.9567V3.71C1.66667 3.50333 1.83667 3.33333 2.04333 3.33333H5.15333C5.49833 4.30167 6.415 5 7.5 5H24.1667C25.2517 5 26.1683 4.30167 26.5133 3.33333H29.6233C29.83 3.33333 30 3.50333 30 3.71V10.1083C30 10.5683 30.3733 10.9417 30.8333 10.9417C31.2933 10.9417 31.6667 10.5683 31.6667 10.1083V3.71C31.6667 2.58333 30.75 1.66667 29.6233 1.66667H26.5133C26.1683 0.698333 25.2517 0 24.1667 0H7.5C6.415 0 5.49833 0.698333 5.15333 1.66667H2.04333C0.916667 1.66667 0 2.58333 0 3.71V37.9583C0 39.0833 0.916667 40 2.04333 40ZM7.5 1.66667H24.1667C24.6267 1.66667 25 2.04167 25 2.5C25 2.95833 24.6267 3.33333 24.1667 3.33333H7.5C7.04 3.33333 6.66667 2.95833 6.66667 2.5C6.66667 2.04167 7.04 1.66667 7.5 1.66667Z" fill="url(#paint0_linear_0_4939)"/>
<path d="M25.0003 12.4998C25.0003 12.0398 24.627 11.6665 24.167 11.6665H7.50033C7.04033 11.6665 6.66699 12.0398 6.66699 12.4998C6.66699 12.9598 7.04033 13.3332 7.50033 13.3332H24.167C24.627 13.3332 25.0003 12.9598 25.0003 12.4998Z" fill="url(#paint1_linear_0_4939)"/>
<path d="M20.477 20.8333C20.477 20.3733 20.1037 20 19.6437 20H7.50033C7.04033 20 6.66699 20.3733 6.66699 20.8333C6.66699 21.2933 7.04033 21.6667 7.50033 21.6667H19.6437C20.1053 21.6667 20.477 21.2933 20.477 20.8333Z" fill="url(#paint2_linear_0_4939)"/>
<path d="M7.50033 28.3335C7.04033 28.3335 6.66699 28.7068 6.66699 29.1668C6.66699 29.6268 7.04033 30.0002 7.50033 30.0002H15.8337C16.2937 30.0002 16.667 29.6268 16.667 29.1668C16.667 28.7068 16.2937 28.3335 15.8337 28.3335H7.50033Z" fill="url(#paint3_linear_0_4939)"/>
<path d="M22.5003 29.1668C22.5736 29.1668 22.6486 29.1568 22.722 29.1368L26.5853 28.0718C26.7236 28.0335 26.852 27.9601 26.9536 27.8568L39.177 15.6318C40.272 14.5351 40.272 12.7518 39.177 11.6551C38.1153 10.5935 36.262 10.5935 35.2003 11.6551L22.977 23.8801C22.8753 23.9835 22.802 24.1085 22.7636 24.2485L21.6986 28.1101C21.6186 28.3985 21.7003 28.7085 21.912 28.9201C22.0686 29.0801 22.282 29.1668 22.5003 29.1668ZM24.3103 24.9035L36.3786 12.8351C36.812 12.4018 37.5653 12.4018 37.9986 12.8351C38.4453 13.2818 38.4453 14.0085 37.9986 14.4551L25.9303 26.5235L23.6953 27.1401L24.3103 24.9035Z" fill="url(#paint4_linear_0_4939)"/>
<defs>
<linearGradient id="paint0_linear_0_4939" x1="1.10833" y1="-2.21848e-07" x2="30.3536" y2="33.5544" gradientUnits="userSpaceOnUse">
<stop offset="0.0019141" stop-color="#10DF10"/>
<stop offset="1" stop-color="#008100"/>
</linearGradient>
<linearGradient id="paint1_linear_0_4939" x1="7.30866" y1="11.6665" x2="7.46237" y2="14.117" gradientUnits="userSpaceOnUse">
<stop offset="0.0019141" stop-color="#10DF10"/>
<stop offset="1" stop-color="#008100"/>
</linearGradient>
<linearGradient id="paint2_linear_0_4939" x1="7.15034" y1="20" x2="7.3538" y2="22.4432" gradientUnits="userSpaceOnUse">
<stop offset="0.0019141" stop-color="#10DF10"/>
<stop offset="1" stop-color="#008100"/>
</linearGradient>
<linearGradient id="paint3_linear_0_4939" x1="7.01699" y1="28.3335" x2="7.29622" y2="30.7616" gradientUnits="userSpaceOnUse">
<stop offset="0.0019141" stop-color="#10DF10"/>
<stop offset="1" stop-color="#008100"/>
</linearGradient>
<linearGradient id="paint4_linear_0_4939" x1="22.31" y1="10.8589" x2="34.9371" y2="29.1809" gradientUnits="userSpaceOnUse">
<stop offset="0.0019141" stop-color="#10DF10"/>
<stop offset="1" stop-color="#008100"/>
</linearGradient>
</defs>
</svg>
