<svg width="24" height="24" viewBox="0 0 24 24" fill="none" xmlns="http://www.w3.org/2000/svg">
<path d="M16.3817 22.3449H7.61753C7.00125 22.3467 6.40646 22.1185 5.94956 21.7049C5.49267 21.2914 5.20654 20.7222 5.14718 20.1088L3.72787 5.8751C3.71617 5.76003 3.72876 5.64379 3.76484 5.5339C3.80091 5.424 3.85966 5.32292 3.93729 5.23717C4.01492 5.15143 4.10969 5.08295 4.21546 5.03617C4.32124 4.98938 4.43566 4.96533 4.55132 4.96558H19.4479C19.5635 4.96559 19.6778 4.98981 19.7834 5.03668C19.8891 5.08355 19.9837 5.15204 20.0613 5.23772C20.1389 5.3234 20.1976 5.42439 20.2338 5.53416C20.27 5.64394 20.2828 5.76008 20.2713 5.8751L18.852 20.1079C18.7927 20.7214 18.5066 21.2907 18.0497 21.7044C17.5928 22.1181 16.998 22.3465 16.3817 22.3449ZM5.46498 6.62075L6.79408 19.9441C6.81404 20.1485 6.90946 20.3381 7.06172 20.476C7.21397 20.6139 7.41213 20.6901 7.61753 20.6897H16.3817C16.5871 20.6901 16.7852 20.6139 16.9375 20.476C17.0897 20.3381 17.1852 20.1485 17.2051 19.9441L18.5342 6.62075H5.46498Z" fill="#929292"/>
<path d="M21.5173 6.62075H2.48286C2.26337 6.62075 2.05287 6.53356 1.89767 6.37835C1.74247 6.22315 1.65527 6.01265 1.65527 5.79316C1.65527 5.57367 1.74247 5.36317 1.89767 5.20797C2.05287 5.05277 2.26337 4.96558 2.48286 4.96558H21.5173C21.7368 4.96558 21.9473 5.05277 22.1025 5.20797C22.2577 5.36317 22.3449 5.57367 22.3449 5.79316C22.3449 6.01265 22.2577 6.22315 22.1025 6.37835C21.9473 6.53356 21.7368 6.62075 21.5173 6.62075ZM12.0001 19.0345C11.7806 19.0345 11.5701 18.9474 11.4149 18.7921C11.2597 18.6369 11.1725 18.4264 11.1725 18.207V9.10351C11.1725 8.88402 11.2597 8.67352 11.4149 8.51832C11.5701 8.36311 11.7806 8.27592 12.0001 8.27592C12.2196 8.27592 12.4301 8.36311 12.5853 8.51832C12.7405 8.67352 12.8277 8.88402 12.8277 9.10351V18.207C12.8277 18.4264 12.7405 18.6369 12.5853 18.7921C12.4301 18.9474 12.2196 19.0345 12.0001 19.0345ZM9.10272 19.0345C8.89626 19.0343 8.69733 18.957 8.54498 18.8177C8.39262 18.6783 8.29785 18.4871 8.27927 18.2814L7.45169 9.17799C7.43191 8.95951 7.49969 8.74211 7.64014 8.57358C7.78058 8.40505 7.98219 8.29918 8.20065 8.27923C8.41926 8.2599 8.63663 8.32794 8.80521 8.46845C8.97379 8.60896 9.07987 8.81051 9.10024 9.02902L9.92783 18.1325C9.93818 18.247 9.92453 18.3625 9.88776 18.4715C9.85099 18.5805 9.7919 18.6806 9.71426 18.7655C9.63662 18.8504 9.54214 18.9182 9.43684 18.9645C9.33155 19.0108 9.21775 19.0347 9.10272 19.0345ZM14.8975 19.0345C14.7824 19.0347 14.6687 19.0108 14.5634 18.9645C14.4581 18.9182 14.3636 18.8504 14.2859 18.7655C14.2083 18.6806 14.1492 18.5805 14.1124 18.4715C14.0757 18.3625 14.062 18.247 14.0724 18.1325L14.9 9.02902C14.9422 8.57385 15.3394 8.24613 15.7995 8.27923C16.018 8.29918 16.2196 8.40505 16.3601 8.57358C16.5005 8.74211 16.5683 8.95951 16.5485 9.17799L15.7209 18.2814C15.7023 18.4871 15.6076 18.6783 15.4552 18.8177C15.3029 18.957 15.1039 19.0343 14.8975 19.0345Z" fill="#929292"/>
<path d="M15.7241 6.62067H8.27583C8.05634 6.62067 7.84584 6.53348 7.69064 6.37827C7.53543 6.22307 7.44824 6.01257 7.44824 5.79308V2.48274C7.44824 2.26325 7.53543 2.05275 7.69064 1.89755C7.84584 1.74234 8.05634 1.65515 8.27583 1.65515H15.7241C15.9436 1.65515 16.1541 1.74234 16.3093 1.89755C16.4645 2.05275 16.5517 2.26325 16.5517 2.48274V5.79308C16.5517 6.01257 16.4645 6.22307 16.3093 6.37827C16.1541 6.53348 15.9436 6.62067 15.7241 6.62067ZM9.10341 4.9655H14.8965V3.31032H9.10341V4.9655Z" fill="#929292"/>
</svg>
