<svg width="24" height="24" viewBox="0 0 24 24" fill="none" xmlns="http://www.w3.org/2000/svg">
<path d="M12.0012 19.0312C10.5668 19.0312 9.08555 18.675 7.59492 17.9766C6.42773 17.4281 5.25117 16.6687 4.09805 15.7172C2.15273 14.1094 0.952734 12.5156 0.901172 12.45C0.699609 12.1828 0.699609 11.8172 0.901172 11.55C0.952734 11.4844 2.15273 9.89062 4.09805 8.28281C5.25117 7.33125 6.42773 6.57187 7.59492 6.02344C9.08555 5.325 10.5668 4.96875 12.0012 4.96875C13.4355 4.96875 14.9168 5.325 16.4074 6.02344C17.5746 6.57187 18.7512 7.33125 19.9043 8.28281C21.8496 9.89062 23.0543 11.4844 23.1012 11.55C23.3027 11.8172 23.3027 12.1828 23.1012 12.45C23.0496 12.5156 21.8496 14.1094 19.9043 15.7172C18.7512 16.6687 17.5746 17.4281 16.4074 17.9766C14.9168 18.675 13.4355 19.0312 12.0012 19.0312ZM2.4668 12C3.64336 13.3922 7.5293 17.5312 12.0012 17.5312C16.4824 17.5312 20.359 13.3922 21.5355 12C20.359 10.6078 16.473 6.46875 12.0012 6.46875C7.51992 6.46875 3.64336 10.6078 2.4668 12Z" fill="#929292"/>
<path d="M12 15.375C10.1391 15.375 8.625 13.8609 8.625 12C8.625 10.1391 10.1391 8.625 12 8.625C13.8609 8.625 15.375 10.1391 15.375 12C15.375 13.8609 13.8609 15.375 12 15.375ZM12 10.125C10.9641 10.125 10.125 10.9641 10.125 12C10.125 13.0359 10.9641 13.875 12 13.875C13.0359 13.875 13.875 13.0359 13.875 12C13.875 10.9641 13.0359 10.125 12 10.125Z" fill="#929292"/>
</svg>
