<svg width="24" height="24" viewBox="0 0 24 24" fill="none" xmlns="http://www.w3.org/2000/svg">
<path d="M21.223 3.85676C20.071 2.66554 18.5459 2.01447 16.9182 2.01447C15.2904 2.01447 13.7606 2.67036 12.6086 3.86159L12.007 4.48372L11.396 3.85194C10.244 2.66072 8.70957 2 7.08184 2C5.45878 2 3.929 2.6559 2.78166 3.8423C1.62966 5.03352 0.995362 6.61539 1.00003 8.29853C1.00003 9.98167 1.63899 11.5587 2.79099 12.7499L11.5499 21.8071C11.6712 21.9325 11.8344 22 11.993 22C12.1516 22 12.3148 21.9373 12.4361 21.8119L21.2137 12.7692C22.3657 11.578 23 9.99614 23 8.313C23.0046 6.62985 22.375 5.04799 21.223 3.85676ZM20.3275 11.8481L11.993 20.4326L3.67714 11.8336C2.76301 10.8884 2.2593 9.63444 2.2593 8.29853C2.2593 6.96262 2.75834 5.70871 3.67248 4.76827C4.58195 3.82783 5.79459 3.30697 7.08184 3.30697C8.37376 3.30697 9.59106 3.82783 10.5052 4.77309L11.5593 5.86303C11.8064 6.11864 12.2029 6.11864 12.4501 5.86303L13.4948 4.78273C14.4089 3.83747 15.6262 3.31661 16.9135 3.31661C18.2007 3.31661 19.4134 3.83747 20.3275 4.77791C21.2417 5.72317 21.7407 6.97709 21.7407 8.313C21.7454 9.6489 21.2417 10.9028 20.3275 11.8481Z" fill="#929292"/>
</svg>
