<svg width="24" height="24" viewBox="0 0 24 24" fill="none" xmlns="http://www.w3.org/2000/svg">
<path fill-rule="evenodd" clip-rule="evenodd" d="M2.5 2.5296V18.315H8.61699C9.28697 18.315 9.92891 18.5892 10.3988 19.0762L12.5 21.2534L14.6012 19.0762C15.0711 18.5892 15.713 18.315 16.383 18.315H21.5V2.5296H2.5ZM22 1C22.5523 1 23 1.45655 23 2.01973V18.8249C23 19.3881 22.5523 19.8446 22 19.8446H16.383C16.115 19.8446 15.8582 19.9543 15.6703 20.1491L13.2127 22.6955C12.821 23.1015 12.179 23.1015 11.7873 22.6955L9.32973 20.1491C9.14176 19.9543 8.88498 19.8446 8.61699 19.8446H2C1.44771 19.8446 1 19.3881 1 18.8249V2.01973C1 1.45655 1.44772 1 2 1H22Z" fill="#929292"/>
<path fill-rule="evenodd" clip-rule="evenodd" d="M12.0002 6.08501L11.1987 7.70283C10.8626 8.38116 10.2426 8.85383 9.52485 8.97893L7.86098 9.26895L9.07903 10.6221C9.54606 11.141 9.77255 11.8494 9.69843 12.5594L9.49959 14.4641L10.9225 13.6765C11.5974 13.3029 12.4042 13.303 13.0791 13.6767L14.5008 14.4641L14.3026 12.5584C14.2289 11.8489 14.4552 11.1412 14.9216 10.6227L16.1394 9.26895L14.4761 8.9789C13.7588 8.85381 13.1391 8.3815 12.8029 7.70367L12.0002 6.08501ZM12.8208 4.5824C12.4747 3.88463 11.5249 3.88483 11.1791 4.58274L9.96726 7.02864C9.83283 7.29997 9.58484 7.48904 9.29774 7.53908L6.77513 7.97877C6.04355 8.10629 5.74453 9.04121 6.25422 9.60744L8.07056 11.6253C8.25737 11.8328 8.34797 12.1162 8.31832 12.4002L8.02446 15.215C7.94354 15.9901 8.71942 16.5454 9.37577 16.1821L11.5693 14.9679C11.8393 14.8185 12.162 14.8185 12.432 14.968L14.6241 16.182C15.2802 16.5454 16.0562 15.9904 15.9756 15.2154L15.6828 12.3998C15.6533 12.116 15.7438 11.8329 15.9304 11.6255L17.746 9.60721C18.2554 9.04093 17.9563 8.10632 17.2249 7.97878L14.7033 7.53907C14.4164 7.48903 14.1685 7.30011 14.0341 7.02897L12.8208 4.5824Z" fill="#929292"/>
</svg>
