<svg width="22" height="20" viewBox="0 0 22 20" fill="none" xmlns="http://www.w3.org/2000/svg">
<path fill-rule="evenodd" clip-rule="evenodd" d="M8.87707 15.6677C4.50835 15.6677 0.966797 12.1612 0.966797 7.83558C0.966797 3.50999 4.50835 0.00341797 8.87707 0.00341797C13.2458 0.00341797 16.7873 3.50999 16.7873 7.83558C16.7873 9.40331 16.3221 10.8635 15.5209 12.0881C15.5991 12.141 15.6734 12.2021 15.7426 12.2714L20.8975 17.4263C21.4863 18.015 21.4863 18.9696 20.8975 19.5584C20.3087 20.1472 19.3541 20.1472 18.7654 19.5584L13.6105 14.4035C13.5535 14.3465 13.502 14.2861 13.456 14.2229C12.1637 15.1327 10.5835 15.6677 8.87707 15.6677ZM8.87707 14.0189C12.3261 14.0189 15.122 11.2505 15.122 7.83559C15.122 4.42066 12.3261 1.65231 8.87707 1.65231C5.42808 1.65231 2.63211 4.42066 2.63211 7.83559C2.63211 11.2505 5.42808 14.0189 8.87707 14.0189Z" fill="#808080"/>
</svg>
