<svg width="18" height="18" viewBox="0 0 18 18" fill="none" xmlns="http://www.w3.org/2000/svg">
<path d="M14.2535 1.5C13.6756 1.5 13.0987 1.71854 12.6626 2.15477L11.7997 2.99994H3.58309C2.44208 2.99994 1.5 3.94195 1.5 5.08293V14.417C1.5 15.558 2.44208 16.5 3.58309 16.5H12.9175C14.0585 16.5 15.0006 15.558 15.0006 14.417V6.20068L15.8458 5.33786C16.7181 4.46564 16.7181 3.02699 15.8458 2.15477C15.4097 1.71866 14.8313 1.5 14.2535 1.5ZM14.2564 2.98532C14.4464 2.98532 14.6366 3.06074 14.7881 3.2124C15.0911 3.51542 15.0911 3.97291 14.7881 4.27591C14.7862 4.27735 14.7842 4.2787 14.7823 4.28153L8.68683 10.4998H7.50172V9.31474L13.7202 3.21949C13.7217 3.21756 13.7232 3.2167 13.7247 3.21387C13.8762 3.0625 14.0664 2.98679 14.2564 2.98679L14.2564 2.98532ZM3.58309 4.49996H10.2704L6.22285 8.4668C6.08129 8.6074 6.00168 8.79886 6.00164 8.99847V11.2514C6.00329 11.6634 6.33682 11.9969 6.74875 11.9985H9.00323C9.20235 11.9981 9.39313 11.9186 9.53353 11.7774L13.5005 7.73003V14.4171C13.5005 14.7535 13.2539 15 12.9175 15H3.58309C3.24668 15 3.00006 14.7535 3.00006 14.4171V5.08301C3.00006 4.74663 3.24668 4.50005 3.58309 4.50005L3.58309 4.49996Z" fill="#929292"/>
</svg>
