<svg width="24" height="24" viewBox="0 0 24 24" fill="none" xmlns="http://www.w3.org/2000/svg">
<path d="M17.8428 2.06087C16.3558 0.730435 14.2689 0 11.9993 0C9.72976 0 7.6428 0.730435 6.15584 2.06087C4.32976 3.67826 3.39062 6.10435 3.39062 9.13043C3.39062 15.6783 10.9298 23.3739 11.2689 23.687C11.4776 23.8957 11.7385 24 11.9993 24C12.2602 24 12.5471 23.8957 12.7298 23.687C13.0689 23.3739 20.608 15.6783 20.608 9.13043C20.608 6.10435 19.6689 3.67826 17.8428 2.06087ZM11.9993 21.4174C11.295 20.6348 10.1732 19.3304 9.07758 17.7652C6.72976 14.4261 5.47758 11.4522 5.47758 9.13043C5.47758 2.6087 10.4602 2.08696 11.9993 2.08696C18.0515 2.08696 18.5211 7.48696 18.5211 9.13043C18.5211 13.7217 13.8515 19.3826 11.9993 21.4174ZM11.9993 4.51304C9.70367 4.51304 7.8515 6.41739 7.8515 8.73913C7.8515 11.0609 9.70367 12.9391 11.9993 12.9391C14.295 12.9391 16.1471 11.0348 16.1471 8.71304C16.1471 6.3913 14.295 4.51304 11.9993 4.51304ZM11.9993 11.113C10.7211 11.113 9.67758 10.0435 9.67758 8.71304C9.67758 7.38261 10.7211 6.31304 11.9993 6.31304C13.2776 6.31304 14.3211 7.38261 14.3211 8.71304C14.3211 10.0435 13.2776 11.113 11.9993 11.113Z" fill="url(#paint0_linear_112_5143)"/>
<defs>
<linearGradient id="paint0_linear_112_5143" x1="3.59937" y1="3.3" x2="16.4994" y2="22.2" gradientUnits="userSpaceOnUse">
<stop offset="0.0113243" stop-color="#11DF11"/>
<stop offset="1" stop-color="#008000"/>
</linearGradient>
</defs>
</svg>
