<svg width="385" height="303" viewBox="0 0 385 303" fill="none" xmlns="http://www.w3.org/2000/svg">
<g opacity="0.26" clip-path="url(#clip0_0_803)">
<path d="M-0.590727 63.5527H45.3763L68.3598 23.7236L45.3763 -16.1055H-0.590727L-23.5742 23.7236L-0.590727 63.5527Z" stroke="#929292" stroke-miterlimit="10"/>
<path d="M-46.5575 63.5527H-0.590535L22.393 23.7236L-0.590535 -16.1055H-46.5575L-69.541 23.7236L-46.5575 63.5527Z" stroke="#929292" stroke-miterlimit="10"/>
<path d="M45.3761 63.5527H91.3431L114.327 23.7236L91.3431 -16.1055H45.3761L22.3926 23.7236L45.3761 63.5527Z" stroke="#929292" stroke-miterlimit="10"/>
<path d="M-46.5575 143.216H-0.590535L22.393 103.387L-0.590535 63.5527H-46.5575L-69.541 103.387L-46.5575 143.216Z" stroke="#929292" stroke-miterlimit="10"/>
<path d="M-46.5575 222.874H-0.590535L22.393 183.045L-0.590535 143.216H-46.5575L-69.541 183.045L-46.5575 222.874Z" stroke="#929292" stroke-miterlimit="10"/>
<path d="M-46.5575 302.532H-0.590535L22.393 262.703L-0.590535 222.874H-46.5575L-69.541 262.703L-46.5575 302.532Z" stroke="#929292" stroke-miterlimit="10"/>
<path d="M320.94 63.5527H366.907L389.896 23.7236L366.907 -16.1055H320.94L297.957 23.7236L320.94 63.5527Z" stroke="#929292" stroke-miterlimit="10"/>
<path d="M366.909 63.5527H412.881L435.865 23.7236L412.881 -16.1055H366.909L343.926 23.7236L366.909 63.5527Z" stroke="#929292" stroke-miterlimit="10"/>
<path d="M320.94 143.216H366.907L389.896 103.387L366.907 63.5527H320.94L297.957 103.387L320.94 143.216Z" stroke="#929292" stroke-miterlimit="10"/>
<path d="M366.909 143.216H412.881L435.865 103.387L412.881 63.5527H366.909L343.926 103.387L366.909 143.216Z" stroke="#929292" stroke-miterlimit="10"/>
<path d="M366.909 302.532H412.881L435.865 262.703L412.881 222.874H366.909L343.926 262.703L366.909 302.532Z" stroke="#929292" stroke-miterlimit="10"/>
<path d="M320.94 222.874H366.907L389.896 183.045L366.907 143.216H320.94L297.957 183.045L320.94 222.874Z" stroke="#929292" stroke-miterlimit="10"/>
<path d="M366.909 222.874H412.881L435.865 183.045L412.881 143.216H366.909L343.926 183.045L366.909 222.874Z" stroke="#929292" stroke-miterlimit="10"/>
<path d="M320.94 302.532H366.907L389.896 262.703L366.907 222.874H320.94L297.957 262.703L320.94 302.532Z" stroke="#929292" stroke-miterlimit="10"/>
<path d="M-0.590727 302.532H45.3763L68.3598 262.703L45.3763 222.874H-0.590727L-23.5742 262.703L-0.590727 302.532Z" stroke="#929292" stroke-miterlimit="10"/>
<path d="M-0.590727 222.874H45.3763L68.3598 183.045L45.3763 143.216H-0.590727L-23.5742 183.045L-0.590727 222.874Z" stroke="#929292" stroke-miterlimit="10"/>
<path d="M-0.590727 143.216H45.3763L68.3598 103.387L45.3763 63.5527H-0.590727L-23.5742 103.387L-0.590727 143.216Z" stroke="#929292" stroke-miterlimit="10"/>
<path d="M45.3761 222.874H91.3431L114.327 183.045L91.3431 143.216H45.3761L22.3926 183.045L45.3761 222.874Z" stroke="#929292" stroke-miterlimit="10"/>
<path d="M45.3761 302.532H91.3431L114.327 262.703L91.3431 222.874H45.3761L22.3926 262.703L45.3761 302.532Z" stroke="#929292" stroke-miterlimit="10"/>
<path d="M45.3761 143.216H91.3431L114.327 103.387L91.3431 63.5527H45.3761L22.3926 103.387L45.3761 143.216Z" stroke="#929292" stroke-miterlimit="10"/>
<path d="M229.008 63.5527H274.975L297.958 23.7236L274.975 -16.1055H229.008L206.02 23.7236L229.008 63.5527Z" stroke="#929292" stroke-miterlimit="10"/>
<path d="M91.1007 63.5527H137.068L160.051 23.7236L137.068 -16.1055H91.1007L68.1172 23.7236L91.1007 63.5527Z" stroke="#929292" stroke-miterlimit="10"/>
<path d="M137.069 63.5527H183.036L206.02 23.7236L183.036 -16.1055H137.069L114.086 23.7236L137.069 63.5527Z" stroke="#929292" stroke-miterlimit="10"/>
<path d="M183.036 63.5527H229.008L251.991 23.7236L229.008 -16.1055H183.036L160.053 23.7236L183.036 63.5527Z" stroke="#929292" stroke-miterlimit="10"/>
<path d="M274.974 63.5527H320.941L343.924 23.7236L320.941 -16.1055H274.974L251.99 23.7236L274.974 63.5527Z" stroke="#929292" stroke-miterlimit="10"/>
<path d="M91.1007 143.216H137.068L160.051 103.387L137.068 63.5527H91.1007L68.1172 103.387L91.1007 143.216Z" stroke="#929292" stroke-miterlimit="10"/>
<path d="M91.1007 302.532H137.068L160.051 262.703L137.068 222.874H91.1007L68.1172 262.703L91.1007 302.532Z" stroke="#929292" stroke-miterlimit="10"/>
<path d="M137.069 302.532H183.036L206.02 262.703L183.036 222.874H137.069L114.086 262.703L137.069 302.532Z" stroke="#929292" stroke-miterlimit="10"/>
<path d="M183.036 143.216H229.008L251.991 103.387L229.008 63.5527H183.036L160.053 103.387L183.036 143.216Z" stroke="#929292" stroke-miterlimit="10"/>
<path d="M137.069 143.216H183.036L206.02 103.387L183.036 63.5527H137.069L114.086 103.387L137.069 143.216Z" stroke="#929292" stroke-miterlimit="10"/>
<path d="M91.1007 222.874H137.068L160.051 183.045L137.068 143.216H91.1007L68.1172 183.045L91.1007 222.874Z" stroke="#929292" stroke-miterlimit="10"/>
<path d="M137.069 222.874H183.036L206.02 183.045L183.036 143.216H137.069L114.086 183.045L137.069 222.874Z" stroke="#929292" stroke-miterlimit="10"/>
<path d="M183.036 222.874H229.008L251.991 183.045L229.008 143.216H183.036L160.053 183.045L183.036 222.874Z" stroke="#929292" stroke-miterlimit="10"/>
<path d="M183.036 302.532H229.008L251.991 262.703L229.008 222.874H183.036L160.053 262.703L183.036 302.532Z" stroke="#929292" stroke-miterlimit="10"/>
<path d="M229.008 302.532H274.975L297.958 262.703L274.975 222.874H229.008L206.02 262.703L229.008 302.532Z" stroke="#929292" stroke-miterlimit="10"/>
<path d="M229.008 222.874H274.975L297.958 183.045L274.975 143.216H229.008L206.02 183.045L229.008 222.874Z" stroke="#929292" stroke-miterlimit="10"/>
<path d="M229.008 143.216H274.975L297.958 103.387L274.975 63.5527H229.008L206.02 103.387L229.008 143.216Z" stroke="#929292" stroke-miterlimit="10"/>
<path d="M274.974 222.874H320.941L343.924 183.045L320.941 143.216H274.974L251.99 183.045L274.974 222.874Z" stroke="#929292" stroke-miterlimit="10"/>
<path d="M274.974 302.532H320.941L343.924 262.703L320.941 222.874H274.974L251.99 262.703L274.974 302.532Z" stroke="#929292" stroke-miterlimit="10"/>
<path d="M274.974 143.216H320.941L343.924 103.387L320.941 63.5527H274.974L251.99 103.387L274.974 143.216Z" stroke="#929292" stroke-miterlimit="10"/>
<g filter="url(#filter0_f_0_803)">
<circle cx="14.5" cy="138.5" r="175.5" fill="#272727"/>
</g>
</g>
<defs>
<filter id="filter0_f_0_803" x="-234" y="-110" width="497" height="497" filterUnits="userSpaceOnUse" color-interpolation-filters="sRGB">
<feFlood flood-opacity="0" result="BackgroundImageFix"/>
<feBlend mode="normal" in="SourceGraphic" in2="BackgroundImageFix" result="shape"/>
<feGaussianBlur stdDeviation="36.5" result="effect1_foregroundBlur_0_803"/>
</filter>
<clipPath id="clip0_0_803">
<rect width="390" height="399" fill="white" transform="translate(0 -96)"/>
</clipPath>
</defs>
</svg>
