<svg width="60" height="60" viewBox="0 0 60 60" fill="none" xmlns="http://www.w3.org/2000/svg">
<rect width="60" height="60" fill="white"/>
<g clip-path="url(#clip0_0_2211)">
<path d="M48.9174 22.3117L44.4978 36.1675C44.1674 37.1543 43.3 37.8121 42.2674 37.8121H25.2087C24.2174 37.8121 23.2674 37.1954 22.937 36.2909L16.4109 18.8991H12.6522C11.7435 18.8991 11 18.159 11 17.2545C11 16.3499 11.7435 15.6099 12.6522 15.6099H17.5674C18.2696 15.6099 18.8891 16.0621 19.137 16.72L25.8696 34.5229H41.5652L45.0761 23.4218H25.6217C24.713 23.4218 23.9696 22.6817 23.9696 21.7772C23.9696 20.8726 24.713 20.1325 25.6217 20.1325H47.3478C47.8848 20.1325 48.3804 20.4204 48.6696 20.8315C49 21.2427 49.0826 21.8183 48.9174 22.3117ZM26.0348 39.9912C25.3326 39.9912 24.6304 40.279 24.1348 40.7724C23.6391 41.2658 23.35 41.9648 23.35 42.6637C23.35 43.3627 23.6391 44.0617 24.1348 44.555C24.6304 45.0484 25.3326 45.3362 26.0348 45.3362C26.737 45.3362 27.4391 45.0484 27.9348 44.555C28.4304 44.0617 28.7196 43.3627 28.7196 42.6637C28.7196 41.9648 28.4304 41.2658 27.9348 40.7724C27.4391 40.279 26.737 39.9912 26.0348 39.9912ZM40.863 39.9912C40.1609 39.9912 39.4587 40.279 38.963 40.7724C38.4674 41.2658 38.1783 41.9648 38.1783 42.6637C38.1783 43.3627 38.4674 44.0617 38.963 44.555C39.4587 45.0484 40.1609 45.3362 40.863 45.3362C41.5652 45.3362 42.2674 45.0484 42.763 44.555C43.2587 44.0617 43.5478 43.3627 43.5478 42.6637C43.5478 41.9648 43.2587 41.2658 42.763 40.7724C42.2674 40.279 41.5652 39.9912 40.863 39.9912Z" fill="url(#paint0_linear_0_2211)"/>
</g>
<defs>
<linearGradient id="paint0_linear_0_2211" x1="12.33" y1="15.6099" x2="30.6709" y2="49.5891" gradientUnits="userSpaceOnUse">
<stop offset="0.0019141" stop-color="#10DF10"/>
<stop offset="1" stop-color="#008100"/>
</linearGradient>
<clipPath id="clip0_0_2211">
<rect width="38" height="30" fill="white" transform="translate(11 15)"/>
</clipPath>
</defs>
</svg>
