<svg width="370" height="263" viewBox="0 0 370 263" fill="none" xmlns="http://www.w3.org/2000/svg">
<g opacity="0.26" clip-path="url(#clip0_0_2850)">
<path d="M-0.591703 23.5527H45.3753L68.3588 -16.2764L45.3753 -56.1055H-0.591703L-23.5752 -16.2764L-0.591703 23.5527Z" stroke="#E8E8E8" stroke-miterlimit="10"/>
<path d="M-46.5585 23.5527H-0.591511L22.392 -16.2764L-0.591511 -56.1055H-46.5585L-69.542 -16.2764L-46.5585 23.5527Z" stroke="#E8E8E8" stroke-miterlimit="10"/>
<path d="M45.3751 23.5527H91.3421L114.326 -16.2764L91.3421 -56.1055H45.3751L22.3916 -16.2764L45.3751 23.5527Z" stroke="#E8E8E8" stroke-miterlimit="10"/>
<path d="M-46.5585 103.216H-0.591511L22.392 63.3865L-0.591511 23.5527H-46.5585L-69.542 63.3865L-46.5585 103.216Z" stroke="#E8E8E8" stroke-miterlimit="10"/>
<path d="M-46.5585 182.874H-0.591511L22.392 143.045L-0.591511 103.216H-46.5585L-69.542 143.045L-46.5585 182.874Z" stroke="#E8E8E8" stroke-miterlimit="10"/>
<path d="M-46.5585 262.532H-0.591511L22.392 222.703L-0.591511 182.874H-46.5585L-69.542 222.703L-46.5585 262.532Z" stroke="#E8E8E8" stroke-miterlimit="10"/>
<path d="M320.94 23.5527H366.907L389.896 -16.2764L366.907 -56.1055H320.94L297.957 -16.2764L320.94 23.5527Z" stroke="#E8E8E8" stroke-miterlimit="10"/>
<path d="M366.907 23.5527H412.879L435.863 -16.2764L412.879 -56.1055H366.907L343.924 -16.2764L366.907 23.5527Z" stroke="#E8E8E8" stroke-miterlimit="10"/>
<path d="M320.94 103.216H366.907L389.896 63.3865L366.907 23.5527H320.94L297.957 63.3865L320.94 103.216Z" stroke="#E8E8E8" stroke-miterlimit="10"/>
<path d="M366.907 103.216H412.879L435.863 63.3865L412.879 23.5527H366.907L343.924 63.3865L366.907 103.216Z" stroke="#E8E8E8" stroke-miterlimit="10"/>
<path d="M366.907 262.532H412.879L435.863 222.703L412.879 182.874H366.907L343.924 222.703L366.907 262.532Z" stroke="#E8E8E8" stroke-miterlimit="10"/>
<path d="M320.94 182.874H366.907L389.896 143.045L366.907 103.216H320.94L297.957 143.045L320.94 182.874Z" stroke="#E8E8E8" stroke-miterlimit="10"/>
<path d="M366.907 182.874H412.879L435.863 143.045L412.879 103.216H366.907L343.924 143.045L366.907 182.874Z" stroke="#E8E8E8" stroke-miterlimit="10"/>
<path d="M320.94 262.532H366.907L389.896 222.703L366.907 182.874H320.94L297.957 222.703L320.94 262.532Z" stroke="#E8E8E8" stroke-miterlimit="10"/>
<path d="M-0.591703 262.532H45.3753L68.3588 222.703L45.3753 182.874H-0.591703L-23.5752 222.703L-0.591703 262.532Z" stroke="#E8E8E8" stroke-miterlimit="10"/>
<path d="M-0.591703 182.874H45.3753L68.3588 143.045L45.3753 103.216H-0.591703L-23.5752 143.045L-0.591703 182.874Z" stroke="#E8E8E8" stroke-miterlimit="10"/>
<path d="M-0.591703 103.216H45.3753L68.3588 63.3865L45.3753 23.5527H-0.591703L-23.5752 63.3865L-0.591703 103.216Z" stroke="#E8E8E8" stroke-miterlimit="10"/>
<path d="M45.3751 182.874H91.3421L114.326 143.045L91.3421 103.216H45.3751L22.3916 143.045L45.3751 182.874Z" stroke="#E8E8E8" stroke-miterlimit="10"/>
<path d="M45.3751 262.532H91.3421L114.326 222.703L91.3421 182.874H45.3751L22.3916 222.703L45.3751 262.532Z" stroke="#E8E8E8" stroke-miterlimit="10"/>
<path d="M45.3751 103.216H91.3421L114.326 63.3865L91.3421 23.5527H45.3751L22.3916 63.3865L45.3751 103.216Z" stroke="#E8E8E8" stroke-miterlimit="10"/>
<path d="M229.007 23.5527H274.974L297.957 -16.2764L274.974 -56.1055H229.007L206.019 -16.2764L229.007 23.5527Z" stroke="#E8E8E8" stroke-miterlimit="10"/>
<path d="M91.1007 23.5527H137.068L160.051 -16.2764L137.068 -56.1055H91.1007L68.1172 -16.2764L91.1007 23.5527Z" stroke="#E8E8E8" stroke-miterlimit="10"/>
<path d="M137.067 23.5527H183.034L206.018 -16.2764L183.034 -56.1055H137.067L114.084 -16.2764L137.067 23.5527Z" stroke="#E8E8E8" stroke-miterlimit="10"/>
<path d="M183.034 23.5527H229.006L251.99 -16.2764L229.006 -56.1055H183.034L160.051 -16.2764L183.034 23.5527Z" stroke="#E8E8E8" stroke-miterlimit="10"/>
<path d="M274.974 23.5527H320.941L343.924 -16.2764L320.941 -56.1055H274.974L251.99 -16.2764L274.974 23.5527Z" stroke="#E8E8E8" stroke-miterlimit="10"/>
<path d="M91.1007 103.216H137.068L160.051 63.3865L137.068 23.5527H91.1007L68.1172 63.3865L91.1007 103.216Z" stroke="#E8E8E8" stroke-miterlimit="10"/>
<path d="M91.1007 262.532H137.068L160.051 222.703L137.068 182.874H91.1007L68.1172 222.703L91.1007 262.532Z" stroke="#E8E8E8" stroke-miterlimit="10"/>
<path d="M137.067 262.532H183.034L206.018 222.703L183.034 182.874H137.067L114.084 222.703L137.067 262.532Z" stroke="#E8E8E8" stroke-miterlimit="10"/>
<path d="M183.034 103.216H229.006L251.99 63.3865L229.006 23.5527H183.034L160.051 63.3865L183.034 103.216Z" stroke="#E8E8E8" stroke-miterlimit="10"/>
<path d="M137.067 103.216H183.034L206.018 63.3865L183.034 23.5527H137.067L114.084 63.3865L137.067 103.216Z" stroke="#E8E8E8" stroke-miterlimit="10"/>
<path d="M91.1007 182.874H137.068L160.051 143.045L137.068 103.216H91.1007L68.1172 143.045L91.1007 182.874Z" stroke="#E8E8E8" stroke-miterlimit="10"/>
<path d="M137.067 182.874H183.034L206.018 143.045L183.034 103.216H137.067L114.084 143.045L137.067 182.874Z" stroke="#E8E8E8" stroke-miterlimit="10"/>
<path d="M183.034 182.874H229.006L251.99 143.045L229.006 103.216H183.034L160.051 143.045L183.034 182.874Z" stroke="#E8E8E8" stroke-miterlimit="10"/>
<path d="M183.034 262.532H229.006L251.99 222.703L229.006 182.874H183.034L160.051 222.703L183.034 262.532Z" stroke="#E8E8E8" stroke-miterlimit="10"/>
<path d="M229.007 262.532H274.974L297.957 222.703L274.974 182.874H229.007L206.019 222.703L229.007 262.532Z" stroke="#E8E8E8" stroke-miterlimit="10"/>
<path d="M229.007 182.874H274.974L297.957 143.045L274.974 103.216H229.007L206.019 143.045L229.007 182.874Z" stroke="#E8E8E8" stroke-miterlimit="10"/>
<path d="M229.007 103.216H274.974L297.957 63.3865L274.974 23.5527H229.007L206.019 63.3865L229.007 103.216Z" stroke="#E8E8E8" stroke-miterlimit="10"/>
<path d="M274.974 182.874H320.941L343.924 143.045L320.941 103.216H274.974L251.99 143.045L274.974 182.874Z" stroke="#E8E8E8" stroke-miterlimit="10"/>
<path d="M274.974 262.532H320.941L343.924 222.703L320.941 182.874H274.974L251.99 222.703L274.974 262.532Z" stroke="#E8E8E8" stroke-miterlimit="10"/>
<path d="M274.974 103.216H320.941L343.924 63.3865L320.941 23.5527H274.974L251.99 63.3865L274.974 103.216Z" stroke="#E8E8E8" stroke-miterlimit="10"/>
<g filter="url(#filter0_f_0_2850)">
<circle cx="80.5" cy="92.5" r="188.5" fill="#030303"/>
</g>
</g>
<defs>
<filter id="filter0_f_0_2850" x="-188" y="-176" width="537" height="537" filterUnits="userSpaceOnUse" color-interpolation-filters="sRGB">
<feFlood flood-opacity="0" result="BackgroundImageFix"/>
<feBlend mode="normal" in="SourceGraphic" in2="BackgroundImageFix" result="shape"/>
<feGaussianBlur stdDeviation="40" result="effect1_foregroundBlur_0_2850"/>
</filter>
<clipPath id="clip0_0_2850">
<rect width="370" height="263" fill="white"/>
</clipPath>
</defs>
</svg>
