<svg width="36" height="29" viewBox="0 0 36 29" fill="none" xmlns="http://www.w3.org/2000/svg">
<path d="M32.5882 8.53532L29.1803 19.4374C28.9254 20.2138 28.2566 20.7314 27.4603 20.7314H14.3061C13.5417 20.7314 12.8092 20.2462 12.5544 19.5345L7.52201 5.85024H4.62362C3.92292 5.85024 3.34961 5.26793 3.34961 4.55622C3.34961 3.84451 3.92292 3.26221 4.62362 3.26221H8.41382C8.95527 3.26221 9.43303 3.61806 9.62413 4.13567L14.8157 18.1434H26.9189L29.6262 9.40878H14.6246C13.9239 9.40878 13.3506 8.82648 13.3506 8.11477C13.3506 7.40306 13.9239 6.82075 14.6246 6.82075H31.3779C31.792 6.82075 32.1742 7.04721 32.3971 7.37071C32.6519 7.69421 32.7156 8.14712 32.5882 8.53532ZM14.9431 22.446C14.4017 22.446 13.8602 22.6725 13.478 23.0607C13.0958 23.4489 12.8729 23.9988 12.8729 24.5488C12.8729 25.0987 13.0958 25.6487 13.478 26.0369C13.8602 26.4251 14.4017 26.6516 14.9431 26.6516C15.4846 26.6516 16.0261 26.4251 16.4083 26.0369C16.7905 25.6487 17.0134 25.0987 17.0134 24.5488C17.0134 23.9988 16.7905 23.4489 16.4083 23.0607C16.0261 22.6725 15.4846 22.446 14.9431 22.446ZM26.3774 22.446C25.836 22.446 25.2945 22.6725 24.9123 23.0607C24.5301 23.4489 24.3071 23.9988 24.3071 24.5488C24.3071 25.0987 24.5301 25.6487 24.9123 26.0369C25.2945 26.4251 25.836 26.6516 26.3774 26.6516C26.9189 26.6516 27.4603 26.4251 27.8425 26.0369C28.2247 25.6487 28.4477 25.0987 28.4477 24.5488C28.4477 23.9988 28.2247 23.4489 27.8425 23.0607C27.4603 22.6725 26.9189 22.446 26.3774 22.446Z" fill="url(#paint0_linear_156_5366)"/>
<defs>
<linearGradient id="paint0_linear_156_5366" x1="4.37519" y1="3.26221" x2="18.9647" y2="29.7518" gradientUnits="userSpaceOnUse">
<stop offset="0.0019141" stop-color="#10DF10"/>
<stop offset="1" stop-color="#008100"/>
</linearGradient>
</defs>
</svg>
