<svg width="24" height="24" viewBox="0 0 24 24" fill="none" xmlns="http://www.w3.org/2000/svg">
<path d="M12 2C6.48598 2 2 6.48598 2 12C2 17.514 6.48598 22 12 22C17.514 22 22 17.514 22 12C22 6.48598 17.514 2 12 2ZM12 20.3098C7.41793 20.3098 3.69016 16.5821 3.69016 12C3.69016 7.41793 7.41793 3.69016 12 3.69016C16.5821 3.69016 20.3098 7.41793 20.3098 12C20.3098 16.5821 16.5821 20.3098 12 20.3098Z" fill="url(#paint0_linear_0_4037)"/>
<path d="M16.5352 11.6901H12.5915V5.79588C12.5915 5.32917 12.2132 4.95081 11.7464 4.95081C11.2797 4.95081 10.9014 5.32917 10.9014 5.79588V12.5351C10.9014 13.0019 11.2797 13.3802 11.7464 13.3802C11.756 13.3802 11.7652 13.3791 11.7746 13.3788C11.784 13.3792 11.7932 13.3802 11.8028 13.3802H16.5352C17.0019 13.3802 17.3802 13.0019 17.3802 12.5351C17.3802 12.0684 17.0019 11.6901 16.5352 11.6901Z" fill="url(#paint1_linear_0_4037)"/>
<defs>
<linearGradient id="paint0_linear_0_4037" x1="2.7" y1="2" x2="16.5" y2="22" gradientUnits="userSpaceOnUse">
<stop offset="0.0019141" stop-color="#10DF10"/>
<stop offset="1" stop-color="#008100"/>
</linearGradient>
<linearGradient id="paint1_linear_0_4037" x1="11.1281" y1="4.95081" x2="17.3134" y2="11.8407" gradientUnits="userSpaceOnUse">
<stop offset="0.0019141" stop-color="#10DF10"/>
<stop offset="1" stop-color="#008100"/>
</linearGradient>
</defs>
</svg>
