<svg width="32" height="32" viewBox="0 0 32 32" fill="none" xmlns="http://www.w3.org/2000/svg">
<path d="M16 21.5557V24.889M10.4444 26.0001H6C6 23.3479 7.05357 20.8044 8.92893 18.929C10.8043 17.0537 13.3478 16.0001 16 16.0001C18.6522 16.0001 21.1957 17.0537 23.0711 18.929C24.9464 20.8044 26 23.3479 26 26.0001H21.5556M10.4444 21.5557H21.5556V30.4446H10.4444V21.5557ZM21.5556 7.11122C21.5556 10.1795 19.0682 12.6668 16 12.6668C12.9318 12.6668 10.4444 10.1795 10.4444 7.11122C10.4444 4.04297 12.9318 1.55566 16 1.55566C19.0682 1.55566 21.5556 4.04297 21.5556 7.11122Z" stroke="url(#paint0_linear_0_5710)" stroke-width="2" stroke-linecap="round" stroke-linejoin="round"/>
<defs>
<linearGradient id="paint0_linear_0_5710" x1="6.7" y1="1.55566" x2="28.0213" y2="22.9483" gradientUnits="userSpaceOnUse">
<stop offset="0.0019141" stop-color="#10DF10"/>
<stop offset="1" stop-color="#008100"/>
</linearGradient>
</defs>
</svg>
