<svg width="32" height="32" viewBox="0 0 32 32" fill="none" xmlns="http://www.w3.org/2000/svg">
<path d="M3.2 14.3569H2.12857V16.1544H3.2V23.4642H7.66434C8.06775 24.9228 9.42299 26 11.0328 26C12.6426 26 13.9979 24.9228 14.4013 23.4642H20.7723H22.6009H23.2222C23.6256 24.9228 24.9808 26 26.5906 26C28.2004 26 29.5555 24.9228 29.9589 23.4642H32V14.7207L29.1991 9.21364H22.6009V6H3.2V9.86313H0V11.6606H3.2V14.3569ZM11.0328 24.2025C10.1145 24.2025 9.36741 23.4681 9.36741 22.5654C9.36741 21.6627 10.1145 20.9283 11.0328 20.9283C11.9511 20.9283 12.6982 21.6627 12.6982 22.5654C12.6982 23.4681 11.9511 24.2025 11.0328 24.2025ZM26.5906 24.2025C25.6723 24.2025 24.9252 23.4681 24.9252 22.5654C24.9252 21.6627 25.6723 20.9283 26.5906 20.9283C27.5087 20.9283 28.2558 21.6627 28.2558 22.5654C28.2558 23.4681 27.5087 24.2025 26.5906 24.2025ZM29.6064 14.0341H26.0571V11.0111H28.0688L29.6064 14.0341ZM24.2286 11.0111V15.8316H30.1714V21.6667H29.9589C29.5555 20.2081 28.2004 19.1308 26.5906 19.1308C24.9808 19.1308 23.6256 20.2081 23.2222 21.6667H22.6009V11.0111H24.2286ZM5.02857 7.7975H20.7723V9.21364V21.6667H14.4013C13.9979 20.2081 12.6426 19.1308 11.0328 19.1308C9.42299 19.1308 8.06775 20.2081 7.66434 21.6667H5.02857V16.1544H8.84286V14.3569H5.02857V11.6606H6.71429V9.86313H5.02857V7.7975Z" fill="url(#paint0_linear_0_5684)"/>
<defs>
<linearGradient id="paint0_linear_0_5684" x1="1.12" y1="6" x2="11.8549" y2="30.8926" gradientUnits="userSpaceOnUse">
<stop offset="0.0019141" stop-color="#10DF10"/>
<stop offset="1" stop-color="#008100"/>
</linearGradient>
</defs>
</svg>
