<svg width="40" height="32" viewBox="0 0 40 32" fill="none" xmlns="http://www.w3.org/2000/svg">
<path fill-rule="evenodd" clip-rule="evenodd" d="M5.15934 4H34.8418C36.3321 4 37.5402 5.1939 37.5402 6.66666V25.3333C37.5402 26.806 36.3321 27.9999 34.8418 27.9999H5.15934C3.66905 27.9999 2.46094 26.806 2.46094 25.3333V6.66666C2.46094 5.1939 3.66905 4 5.15934 4ZM34.8418 9.75109L28.575 15.9441L34.8418 22.1102V9.75109ZM34.2929 25.3332L26.667 17.8298L24.7707 19.7037C22.1363 22.3072 17.8649 22.3072 15.2304 19.7037L13.3476 17.843L5.73507 25.3332H34.2929ZM5.15933 22.1366L11.4395 15.9574L5.15933 9.75109V22.1366ZM34.147 6.66662H5.85417L17.1385 17.8182C18.7192 19.3803 21.282 19.3803 22.8627 17.8182L34.147 6.66662Z" fill="url(#paint0_linear_0_446)"/>
<defs>
<linearGradient id="paint0_linear_0_446" x1="2.00049" y1="7" x2="35.0005" y2="32" gradientUnits="userSpaceOnUse">
<stop stop-color="#11DF11"/>
<stop offset="1" stop-color="#008000"/>
</linearGradient>
</defs>
</svg>
