<svg width="508" height="399" viewBox="0 0 508 399" fill="none" xmlns="http://www.w3.org/2000/svg">
<path d="M-18.9306 107.236H42.8567L73.7503 58.6102L42.8567 9.98389H-18.9306L-49.8242 58.6102L-18.9306 107.236Z" stroke="#929292" stroke-miterlimit="10"/>
<path d="M-80.7157 107.236H-18.9284L11.9652 58.6102L-18.9284 9.98389H-80.7157L-111.609 58.6102L-80.7157 107.236Z" stroke="#929292" stroke-miterlimit="10"/>
<path d="M-80.7157 9.98381H-18.9284L11.9652 -38.6425L-18.9284 -87.2688H-80.7157L-111.609 -38.6425L-80.7157 9.98381Z" stroke="#929292" stroke-miterlimit="10"/>
<path d="M-18.9306 9.98381H42.8567L73.7503 -38.6425L42.8567 -87.2688H-18.9306L-49.8242 -38.6425L-18.9306 9.98381Z" stroke="#929292" stroke-miterlimit="10"/>
<path d="M42.8585 107.236H104.646L135.539 58.6102L104.646 9.98389H42.8585L11.9648 58.6102L42.8585 107.236Z" stroke="#929292" stroke-miterlimit="10"/>
<path d="M42.8468 9.98381H104.634L135.528 -38.6425L104.634 -87.2688H42.8468L11.9531 -38.6425L42.8468 9.98381Z" stroke="#929292" stroke-miterlimit="10"/>
<path d="M-80.7157 204.495H-18.9284L11.9652 155.869L-18.9284 107.237H-80.7157L-111.609 155.869L-80.7157 204.495Z" stroke="#929292" stroke-miterlimit="10"/>
<path d="M-80.7157 301.747H-18.9284L11.9652 253.121L-18.9284 204.495H-80.7157L-111.609 253.121L-80.7157 301.747Z" stroke="#929292" stroke-miterlimit="10"/>
<path d="M-80.7157 399H-18.9284L11.9652 350.374L-18.9284 301.747H-80.7157L-111.609 350.374L-80.7157 399Z" stroke="#929292" stroke-miterlimit="10"/>
<path d="M475.05 9.98381H536.844L567.737 -38.6425L536.844 -87.2688H475.05L444.156 -38.6425L475.05 9.98381Z" stroke="#929292" stroke-miterlimit="10"/>
<path d="M413.261 107.236H475.048L505.948 58.6102L475.048 9.98389H413.261L382.367 58.6102L413.261 107.236Z" stroke="#929292" stroke-miterlimit="10"/>
<path d="M475.05 107.236H536.844L567.737 58.6102L536.844 9.98389H475.05L444.156 58.6102L475.05 107.236Z" stroke="#929292" stroke-miterlimit="10"/>
<path d="M413.261 9.98381H475.048L505.948 -38.6425L475.048 -87.2688H413.261L382.367 -38.6425L413.261 9.98381Z" stroke="#929292" stroke-miterlimit="10"/>
<path d="M413.261 204.495H475.048L505.948 155.869L475.048 107.237H413.261L382.367 155.869L413.261 204.495Z" stroke="#929292" stroke-miterlimit="10"/>
<path d="M475.05 204.495H536.844L567.737 155.869L536.844 107.237H475.05L444.156 155.869L475.05 204.495Z" stroke="#929292" stroke-miterlimit="10"/>
<path d="M475.05 399H536.844L567.737 350.374L536.844 301.747H475.05L444.156 350.374L475.05 399Z" stroke="#929292" stroke-miterlimit="10"/>
<path d="M413.261 301.747H475.048L505.948 253.121L475.048 204.495H413.261L382.367 253.121L413.261 301.747Z" stroke="#929292" stroke-miterlimit="10"/>
<path d="M475.05 301.747H536.844L567.737 253.121L536.844 204.495H475.05L444.156 253.121L475.05 301.747Z" stroke="#929292" stroke-miterlimit="10"/>
<path d="M413.261 399H475.048L505.948 350.374L475.048 301.747H413.261L382.367 350.374L413.261 399Z" stroke="#929292" stroke-miterlimit="10"/>
<path d="M-18.9306 399H42.8567L73.7503 350.374L42.8567 301.747H-18.9306L-49.8242 350.374L-18.9306 399Z" stroke="#929292" stroke-miterlimit="10"/>
<path d="M-18.9306 301.747H42.8567L73.7503 253.121L42.8567 204.495H-18.9306L-49.8242 253.121L-18.9306 301.747Z" stroke="#929292" stroke-miterlimit="10"/>
<path d="M-18.9306 204.495H42.8567L73.7503 155.869L42.8567 107.237H-18.9306L-49.8242 155.869L-18.9306 204.495Z" stroke="#929292" stroke-miterlimit="10"/>
<path d="M42.8585 301.747H104.646L135.539 253.121L104.646 204.495H42.8585L11.9648 253.121L42.8585 301.747Z" stroke="#929292" stroke-miterlimit="10"/>
<path d="M42.8585 399H104.646L135.539 350.374L104.646 301.747H42.8585L11.9648 350.374L42.8585 399Z" stroke="#929292" stroke-miterlimit="10"/>
<path d="M42.8585 204.495H104.646L135.539 155.869L104.646 107.237H42.8585L11.9648 155.869L42.8585 204.495Z" stroke="#929292" stroke-miterlimit="10"/>
<path d="M289.689 107.236H351.476L382.37 58.6102L351.476 9.98389H289.689L258.789 58.6102L289.689 107.236Z" stroke="#929292" stroke-miterlimit="10"/>
<path d="M104.319 9.98381H166.107L197 -38.6425L166.107 -87.2688H104.319L73.4258 -38.6425L104.319 9.98381Z" stroke="#929292" stroke-miterlimit="10"/>
<path d="M166.106 9.98381H227.893L258.786 -38.6425L227.893 -87.2688H166.106L135.212 -38.6425L166.106 9.98381Z" stroke="#929292" stroke-miterlimit="10"/>
<path d="M104.319 107.236H166.107L197 58.6102L166.107 9.98389H104.319L73.4258 58.6102L104.319 107.236Z" stroke="#929292" stroke-miterlimit="10"/>
<path d="M166.106 107.236H227.893L258.786 58.6102L227.893 9.98389H166.106L135.212 58.6102L166.106 107.236Z" stroke="#929292" stroke-miterlimit="10"/>
<path d="M227.899 107.236H289.692L320.586 58.6102L289.692 9.98389H227.899L197.005 58.6102L227.899 107.236Z" stroke="#929292" stroke-miterlimit="10"/>
<path d="M227.899 9.98381H289.692L320.586 -38.6425L289.692 -87.2688H227.899L197.005 -38.6425L227.899 9.98381Z" stroke="#929292" stroke-miterlimit="10"/>
<path d="M289.689 9.98381H351.476L382.37 -38.6425L351.476 -87.2688H289.689L258.789 -38.6425L289.689 9.98381Z" stroke="#929292" stroke-miterlimit="10"/>
<path d="M351.476 107.236H413.263L444.156 58.6102L413.263 9.98389H351.476L320.582 58.6102L351.476 107.236Z" stroke="#929292" stroke-miterlimit="10"/>
<path d="M351.46 9.98381H413.254L444.147 -38.6425L413.254 -87.2688H351.46L320.566 -38.6425L351.46 9.98381Z" stroke="#929292" stroke-miterlimit="10"/>
<path d="M104.319 204.495H166.107L197 155.869L166.107 107.237H104.319L73.4258 155.869L104.319 204.495Z" stroke="#929292" stroke-miterlimit="10"/>
<path d="M104.319 399H166.107L197 350.374L166.107 301.747H104.319L73.4258 350.374L104.319 399Z" stroke="#929292" stroke-miterlimit="10"/>
<path d="M166.106 399H227.893L258.786 350.374L227.893 301.747H166.106L135.212 350.374L166.106 399Z" stroke="#929292" stroke-miterlimit="10"/>
<path d="M227.899 204.495H289.692L320.586 155.869L289.692 107.237H227.899L197.005 155.869L227.899 204.495Z" stroke="#929292" stroke-miterlimit="10"/>
<path d="M166.106 204.495H227.893L258.786 155.869L227.893 107.237H166.106L135.212 155.869L166.106 204.495Z" stroke="#929292" stroke-miterlimit="10"/>
<path d="M104.319 301.747H166.107L197 253.121L166.107 204.495H104.319L73.4258 253.121L104.319 301.747Z" stroke="#929292" stroke-miterlimit="10"/>
<path d="M166.106 301.747H227.893L258.786 253.121L227.893 204.495H166.106L135.212 253.121L166.106 301.747Z" stroke="#929292" stroke-miterlimit="10"/>
<path d="M227.899 301.747H289.692L320.586 253.121L289.692 204.495H227.899L197.005 253.121L227.899 301.747Z" stroke="#929292" stroke-miterlimit="10"/>
<path d="M227.899 399H289.692L320.586 350.374L289.692 301.747H227.899L197.005 350.374L227.899 399Z" stroke="#929292" stroke-miterlimit="10"/>
<path d="M289.689 399H351.476L382.37 350.374L351.476 301.747H289.689L258.789 350.374L289.689 399Z" stroke="#929292" stroke-miterlimit="10"/>
<path d="M289.689 301.747H351.476L382.37 253.121L351.476 204.495H289.689L258.789 253.121L289.689 301.747Z" stroke="#929292" stroke-miterlimit="10"/>
<path d="M289.689 204.495H351.476L382.37 155.869L351.476 107.237H289.689L258.789 155.869L289.689 204.495Z" stroke="#929292" stroke-miterlimit="10"/>
<path d="M351.476 301.747H413.263L444.156 253.121L413.263 204.495H351.476L320.582 253.121L351.476 301.747Z" stroke="#929292" stroke-miterlimit="10"/>
<path d="M351.476 399H413.263L444.156 350.374L413.263 301.747H351.476L320.582 350.374L351.476 399Z" stroke="#929292" stroke-miterlimit="10"/>
<path d="M351.476 204.495H413.263L444.156 155.869L413.263 107.237H351.476L320.582 155.869L351.476 204.495Z" stroke="#929292" stroke-miterlimit="10"/>
</svg>
