<svg width="26" height="23" viewBox="0 0 26 23" fill="none" xmlns="http://www.w3.org/2000/svg">
<path d="M13.4014 2.28138L13.0012 2.668L12.601 2.28028C11.2188 0.965468 9.35658 0.232663 7.41953 0.241286C5.48248 0.24991 3.62731 0.999265 2.2576 2.32633C0.887883 3.6534 0.114447 5.45081 0.105546 7.32755C0.0966458 9.20428 0.853001 11.0085 2.21007 12.3477L2.61024 12.7354L13.0012 22.8029L23.3922 12.7354L23.7923 12.3477C25.1386 11.0064 25.8858 9.20556 25.8723 7.33466C25.8588 5.46375 25.0856 3.67321 23.72 2.35032C22.3545 1.02744 20.5063 0.278548 18.5753 0.265646C16.6443 0.252744 14.7856 0.976864 13.4014 2.28138Z" fill="#929292"/>
<path d="M13.4014 2.28138L13.0012 2.668L12.601 2.28028C11.2188 0.965468 9.35658 0.232663 7.41953 0.241286C5.48248 0.24991 3.62731 0.999265 2.2576 2.32633C0.887883 3.6534 0.114447 5.45081 0.105546 7.32755C0.0966458 9.20428 0.853001 11.0085 2.21007 12.3477L2.61024 12.7354L13.0012 22.8029L23.3922 12.7354L23.7923 12.3477C25.1386 11.0064 25.8858 9.20556 25.8723 7.33466C25.8588 5.46375 25.0856 3.67321 23.72 2.35032C22.3545 1.02744 20.5063 0.278548 18.5753 0.265646C16.6443 0.252744 14.7856 0.976864 13.4014 2.28138Z" fill="#929292"/>
<defs>

</defs>
</svg>
