<svg width="80" height="80" viewBox="0 0 80 80" fill="none" xmlns="http://www.w3.org/2000/svg">
<g clip-path="url(#clip0_0_5418)">
<path d="M79.9326 30.9434C79.9631 30.8533 79.9859 30.7607 80.001 30.6668C80.001 30.6501 80.001 30.6351 80.001 30.6184C80.0051 30.4182 79.973 30.2189 79.906 30.0301C79.906 30.0168 79.906 30.0001 79.896 29.9851C79.8158 29.7636 79.689 29.5619 79.5243 29.3934L65.8343 15.6668L63.4076 13.2301H63.3976L61.4843 11.3034L69.9143 2.84511C70.2268 2.53127 70.4019 2.10614 70.4009 1.66324C70.4 1.22035 70.2232 0.79596 69.9093 0.483447C69.7539 0.328706 69.5696 0.206088 69.3668 0.122594C69.164 0.0391004 68.9467 -0.00363437 68.7274 -0.00317008C68.2845 -0.0022324 67.8602 0.174608 67.5476 0.488447L57.9443 10.1251C57.6319 10.4377 57.4563 10.8615 57.4563 11.3034C57.4563 11.7454 57.6319 12.1692 57.9443 12.4818L59.786 14.3334L54.991 18.5584H47.7743C45.9399 18.5576 44.169 19.2302 42.7976 20.4484L25.8643 35.4484C25.555 35.7208 25.3577 36.0981 25.3103 36.5075C25.2629 36.9169 25.3688 37.3293 25.6076 37.6651C25.7743 37.9118 29.941 43.6651 35.3843 42.3634C39.1393 41.4601 43.5243 37.5734 45.406 35.7684C48.4526 37.2403 51.8903 37.6982 55.216 37.0751C61.5643 35.9084 63.071 33.2868 63.3076 32.7701C63.4968 32.3644 63.5191 31.9006 63.3698 31.4786C63.2205 31.0565 62.9115 30.71 62.5093 30.5134C62.3145 30.4186 62.1028 30.3635 61.8865 30.3514C61.6702 30.3393 61.4536 30.3704 61.2495 30.4428C61.0453 30.5153 60.8576 30.6276 60.6973 30.7734C60.5371 30.9192 60.4074 31.0954 60.316 31.2918C60.306 31.3084 59.2676 32.9434 54.6176 33.7918C51.6914 34.3788 48.6515 33.8579 46.0876 32.3301C45.7613 32.0996 45.363 31.994 44.9653 32.0325C44.5676 32.0711 44.197 32.2512 43.921 32.5401C42.421 34.1084 37.8276 38.3434 34.6043 39.1201C32.4826 39.6201 30.4543 38.0318 29.306 36.8601L45.0126 22.9401C45.7737 22.2642 46.7564 21.8912 47.7743 21.8918H55.621C56.0272 21.892 56.4196 21.7438 56.7243 21.4751L62.1493 16.6968L63.1493 17.6968L75.8676 30.4734L70.5993 34.8601C70.3794 35.0429 70.2103 35.2792 70.1081 35.5463C70.006 35.8134 69.9742 36.1022 70.016 36.3851C70.2993 38.3268 70.616 44.3251 68.4226 46.3418C66.101 48.4751 63.3526 51.3184 61.816 52.9384L47.2776 38.3518C47.1229 38.1964 46.9391 38.073 46.7366 37.9886C46.5342 37.9043 46.3171 37.8606 46.0978 37.8602C45.6549 37.8592 45.2298 38.0343 44.916 38.3468C44.6021 38.6593 44.4253 39.0837 44.4244 39.5266C44.4234 39.9695 44.5985 40.3946 44.911 40.7084L60.7126 56.5618L61.841 57.6918C62.2528 58.1072 62.4838 58.6685 62.4838 59.2534C62.4838 59.8384 62.2528 60.3997 61.841 60.8151C61.439 61.2227 60.8921 61.4546 60.3197 61.4602C59.7473 61.4658 59.1959 61.2447 58.786 60.8451L47.981 50.0118C47.6685 49.6979 47.2441 49.5211 46.8012 49.5202C46.3583 49.5192 45.9332 49.6943 45.6193 50.0068C45.3055 50.3193 45.1286 50.7437 45.1277 51.1866C45.1268 51.6295 45.3018 52.0546 45.6143 52.3684L56.4476 63.2301C57.1833 63.8759 57.6535 64.7713 57.7676 65.7434C57.7475 65.9587 57.6798 66.1668 57.5694 66.3527C57.459 66.5386 57.3087 66.6977 57.1293 66.8184C56.5926 67.2634 55.3426 68.3184 53.3343 66.3184L43.736 56.6884C43.5812 56.533 43.3974 56.4097 43.195 56.3253C42.9925 56.2409 42.7755 56.1973 42.5562 56.1968C42.3369 56.1964 42.1196 56.2391 41.9168 56.3226C41.7141 56.4061 41.5297 56.5287 41.3743 56.6834C41.2189 56.8382 41.0955 57.022 41.0112 57.2244C40.9268 57.4269 40.8832 57.6439 40.8827 57.8632C40.8822 58.0825 40.925 58.2998 41.0085 58.5026C41.0919 58.7054 41.2146 58.8897 41.3693 59.0451L50.9476 68.6668C51.347 69.0839 51.5682 69.6401 51.5645 70.2175C51.5607 70.7949 51.3323 71.3482 50.9276 71.7601C50.7257 71.9639 50.4853 72.1256 50.2203 72.2358C49.9554 72.3459 49.6712 72.4023 49.3843 72.4018C49.0981 72.403 48.8146 72.3475 48.5499 72.2385C48.2853 72.1295 48.0449 71.9692 47.8426 71.7668L46.6143 70.5351C46.576 70.4968 46.526 70.4834 46.486 70.4501C46.428 69.2688 45.9869 68.1384 45.2295 67.23C44.472 66.3216 43.4393 65.6845 42.2876 65.4151C42.5816 64.4586 42.6111 63.4403 42.3728 62.4683C42.1345 61.4964 41.6374 60.6072 40.9343 59.8951C40.3692 59.338 39.6855 58.9158 38.9343 58.6601C39.7436 57.5965 40.1415 56.2765 40.0549 54.9428C39.9682 53.6091 39.4028 52.3517 38.4626 51.4018C37.4987 50.4856 36.2432 49.9377 34.9159 49.8539C33.5886 49.7701 32.2742 50.1558 31.2026 50.9434C30.9304 50.2131 30.506 49.549 29.9576 48.9951C28.9031 47.9866 27.5002 47.4237 26.041 47.4237C24.5818 47.4237 23.1788 47.9866 22.1243 48.9951L18.191 52.9434C16.9426 51.6101 14.166 48.6984 11.601 46.3434C9.40764 44.3334 9.72431 38.3334 10.001 36.3901C10.0425 36.1071 10.0105 35.8181 9.90809 35.551C9.80564 35.284 9.63616 35.0477 9.41597 34.8651L4.15431 30.4784L17.8626 16.6934L23.296 21.4801C23.6007 21.7488 23.993 21.897 24.3993 21.8968H32.2476C33.305 21.905 34.3218 22.3053 35.101 23.0201L35.4793 23.3101C35.8298 23.58 36.2732 23.6995 36.7119 23.6425C37.1506 23.5854 37.5486 23.3565 37.8185 23.0059C38.0883 22.6554 38.2079 22.212 38.1509 21.7734C38.0938 21.3347 37.8648 20.9366 37.5143 20.6668L37.2243 20.4501C35.8523 19.2328 34.0818 18.5604 32.2476 18.5601H25.0293L20.2243 14.3268L22.0576 12.4934C22.3701 12.1809 22.5456 11.7571 22.5456 11.3151C22.5456 10.8732 22.3701 10.4493 22.0576 10.1368L12.4543 0.488447C12.1418 0.174608 11.7174 -0.0022324 11.2745 -0.00317008C10.8316 -0.00410776 10.4065 0.170934 10.0926 0.483447C9.7788 0.79596 9.60196 1.22035 9.60102 1.66324C9.60008 2.10614 9.77513 2.53127 10.0876 2.84511L18.5176 11.3034L0.484305 29.3984C0.242691 29.6437 0.0834885 29.9581 0.0288275 30.2981C-0.0258334 30.638 0.0267627 30.9865 0.179305 31.2951C0.215795 31.3578 0.256442 31.4179 0.300971 31.4751C0.353343 31.5766 0.416485 31.6721 0.489305 31.7601C0.510971 31.7818 0.540972 31.7884 0.564305 31.8101C0.587638 31.8318 0.595972 31.8584 0.617638 31.8768L6.58931 36.8484C6.33931 39.3584 6.06431 45.7901 9.34097 48.8034C11.841 51.1068 14.651 54.0534 15.841 55.3134L15.8043 55.3518C14.7707 56.3932 14.1906 57.8011 14.1906 59.2684C14.1906 60.7358 14.7707 62.1436 15.8043 63.1851C16.8201 64.2065 18.1972 64.7867 19.6376 64.8001C19.6464 66.251 20.2265 67.6399 21.2523 68.666C22.278 69.6921 23.6668 70.2726 25.1176 70.2818C25.1278 71.7276 25.7047 73.1117 26.7243 74.1368C27.5067 74.9269 28.5101 75.4614 29.6024 75.6697C30.6947 75.8779 31.8244 75.7503 32.8426 75.3034C33.0954 76.171 33.5592 76.9623 34.1926 77.6068C34.704 78.1235 35.3131 78.5334 35.9843 78.8127C36.6556 79.0919 37.3756 79.235 38.1026 79.2334C38.6045 79.2256 39.103 79.1494 39.5843 79.0068C40.5733 79.6597 41.7325 80.0075 42.9176 80.0068C43.6416 80.0189 44.3608 79.887 45.0334 79.6189C45.7061 79.3509 46.3188 78.9519 46.836 78.4451C47.5955 77.6814 48.0993 76.7007 48.2776 75.6384C48.6413 75.7122 49.0116 75.749 49.3826 75.7484C50.7473 75.7475 52.063 75.2403 53.0751 74.3249C54.0871 73.4095 54.7235 72.1511 54.861 70.7934C55.6527 70.8843 56.4547 70.8052 57.2135 70.5615C57.9722 70.3178 58.6703 69.915 59.261 69.3801C59.7925 68.9641 60.2304 68.4409 60.5463 67.8445C60.8621 67.2481 61.0489 66.5918 61.0943 65.9184C61.1131 65.5275 61.0845 65.1358 61.0093 64.7518C62.2182 64.5997 63.3418 64.049 64.2026 63.1868C65.2359 62.1451 65.8157 60.7373 65.8157 59.2701C65.8157 57.8029 65.2359 56.3951 64.2026 55.3534L64.171 55.3218C65.671 53.7418 68.421 50.8901 70.671 48.8218C73.9493 45.8084 73.671 39.3768 73.4243 36.8668L79.396 31.8951C79.426 31.8701 79.4393 31.8301 79.4693 31.8034C79.4993 31.7768 79.4943 31.7884 79.506 31.7784C79.5401 31.7333 79.5713 31.686 79.5993 31.6368C79.6979 31.5258 79.7808 31.4018 79.846 31.2684C79.8858 31.1633 79.9148 31.0544 79.9326 30.9434ZM18.1676 57.7101L24.501 51.3551C24.9182 50.9558 25.4734 50.7329 26.051 50.7329C26.6285 50.7329 27.1838 50.9558 27.601 51.3551C28.0026 51.7619 28.2308 52.3086 28.2377 52.8802C28.2445 53.4518 28.0294 54.0038 27.6376 54.4201L21.2393 60.8334L21.216 60.8618C20.7943 61.2457 20.2397 61.4503 19.6697 61.4322C19.0998 61.4141 18.5593 61.1747 18.1628 60.7648C17.7664 60.3549 17.5451 59.8067 17.546 59.2365C17.5469 58.6662 17.7699 58.1187 18.1676 57.7101ZM23.6093 66.3084C23.2043 65.8994 22.9751 65.3483 22.9704 64.7727C22.9657 64.1971 23.186 63.6424 23.5843 63.2268C23.5993 63.2134 23.616 63.2034 23.6293 63.1901L29.9626 56.8368C29.996 56.8018 30.0176 56.7618 30.051 56.7268L33.001 53.7618C33.2038 53.5575 33.445 53.3954 33.7107 53.2847C33.9765 53.1741 34.2615 53.1171 34.5493 53.1171C34.8372 53.1171 35.1222 53.1741 35.3879 53.2847C35.6536 53.3954 35.8949 53.5575 36.0976 53.7618C36.5094 54.1772 36.7405 54.7385 36.7405 55.3234C36.7405 55.9084 36.5094 56.4697 36.0976 56.8851L26.701 66.3101C26.4982 66.5144 26.257 66.6765 25.9912 66.7872C25.7255 66.8978 25.4405 66.9548 25.1526 66.9548C24.8648 66.9548 24.5798 66.8978 24.314 66.7872C24.0483 66.6765 23.8071 66.5144 23.6043 66.3101L23.6093 66.3084ZM29.0893 71.7868C28.6779 71.3711 28.4472 70.8099 28.4472 70.2251C28.4472 69.6403 28.6779 69.0791 29.0893 68.6634L35.4793 62.2568C35.6844 62.0536 35.9275 61.8927 36.1947 61.7835C36.462 61.6742 36.7481 61.6186 37.0368 61.6199C37.3255 61.6213 37.6112 61.6794 37.8774 61.7911C38.1436 61.9028 38.3853 62.0659 38.5885 62.2709C38.7917 62.476 38.9525 62.7191 39.0618 62.9864C39.1711 63.2536 39.2266 63.5397 39.2253 63.8285C39.224 64.1172 39.1658 64.4028 39.0541 64.669C38.9424 64.9353 38.7794 65.1769 38.5743 65.3801L37.0876 66.8718L34.1976 69.7684L34.1793 69.7918L32.1926 71.7918C31.7747 72.1942 31.2168 72.4185 30.6366 72.4176C30.0565 72.4167 29.4993 72.1905 29.0826 71.7868H29.0893ZM36.551 75.2501C36.1428 74.8355 35.9141 74.2769 35.9141 73.6951C35.9141 73.1133 36.1428 72.5548 36.551 72.1401L39.451 69.2301C39.6534 69.0257 39.8943 68.8635 40.1597 68.7527C40.4252 68.642 40.71 68.585 40.9976 68.585C41.2853 68.585 41.5701 68.642 41.8355 68.7527C42.101 68.8635 42.3419 69.0257 42.5443 69.2301C42.9565 69.6453 43.1878 70.2067 43.1878 70.7918C43.1878 71.3769 42.9565 71.9382 42.5443 72.3534L39.6493 75.2501C39.2326 75.6497 38.6775 75.8728 38.1001 75.8728C37.5228 75.8728 36.9677 75.6497 36.551 75.2501ZM44.4726 76.0835C44.0681 76.432 43.5482 76.6174 43.0143 76.6034L44.8993 74.7101C44.9393 74.6718 44.9643 74.6251 45.001 74.5868C45.0256 74.8596 44.9911 75.1344 44.8999 75.3927C44.8088 75.651 44.663 75.8866 44.4726 76.0835Z" fill="url(#paint0_linear_0_5418)"/>
</g>
<defs>
<linearGradient id="paint0_linear_0_5418" x1="2.80759" y1="-0.00317427" x2="58.0192" y2="79.9964" gradientUnits="userSpaceOnUse">
<stop offset="0.0019141" stop-color="#10DF10"/>
<stop offset="1" stop-color="#008100"/>
</linearGradient>
<clipPath id="clip0_0_5418">
<rect width="80" height="80" fill="white"/>
</clipPath>
</defs>
</svg>
