<svg width="80" height="80" viewBox="0 0 80 80" fill="none" xmlns="http://www.w3.org/2000/svg">
<path d="M4.08667 80H59.2467C61.5 80 63.3333 78.1667 63.3333 75.9133V58.3333C63.3333 57.4133 62.5867 56.6667 61.6667 56.6667C60.7467 56.6667 60 57.4133 60 58.3333V75.9133C60 76.3267 59.66 76.6667 59.2467 76.6667H4.08667C3.67333 76.6667 3.33333 76.3267 3.33333 75.9133V7.42C3.33333 7.00667 3.67333 6.66667 4.08667 6.66667H10.3067C10.9967 8.60333 12.83 10 15 10H48.3333C50.5033 10 52.3367 8.60333 53.0267 6.66667H59.2467C59.66 6.66667 60 7.00667 60 7.42V20.2167C60 21.1367 60.7467 21.8833 61.6667 21.8833C62.5867 21.8833 63.3333 21.1367 63.3333 20.2167V7.42C63.3333 5.16667 61.5 3.33333 59.2467 3.33333H53.0267C52.3367 1.39667 50.5033 0 48.3333 0H15C12.83 0 10.9967 1.39667 10.3067 3.33333H4.08667C1.83333 3.33333 0 5.16667 0 7.42V75.9167C0 78.1667 1.83333 80 4.08667 80ZM15 3.33333H48.3333C49.2533 3.33333 50 4.08333 50 5C50 5.91667 49.2533 6.66667 48.3333 6.66667H15C14.08 6.66667 13.3333 5.91667 13.3333 5C13.3333 4.08333 14.08 3.33333 15 3.33333Z" fill="url(#paint0_linear_0_5423)"/>
<path d="M50.0036 24.9999C50.0036 24.0799 49.2569 23.3333 48.3369 23.3333H15.0036C14.0836 23.3333 13.3369 24.0799 13.3369 24.9999C13.3369 25.9199 14.0836 26.6666 15.0036 26.6666H48.3369C49.2569 26.6666 50.0036 25.9199 50.0036 24.9999Z" fill="url(#paint1_linear_0_5423)"/>
<path d="M40.9569 41.6667C40.9569 40.7467 40.2102 40 39.2902 40H15.0036C14.0836 40 13.3369 40.7467 13.3369 41.6667C13.3369 42.5867 14.0836 43.3333 15.0036 43.3333H39.2902C40.2136 43.3333 40.9569 42.5867 40.9569 41.6667Z" fill="url(#paint2_linear_0_5423)"/>
<path d="M15.0036 56.6667C14.0836 56.6667 13.3369 57.4134 13.3369 58.3334C13.3369 59.2534 14.0836 60.0001 15.0036 60.0001H31.6702C32.5902 60.0001 33.3369 59.2534 33.3369 58.3334C33.3369 57.4134 32.5902 56.6667 31.6702 56.6667H15.0036Z" fill="url(#paint3_linear_0_5423)"/>
<path d="M44.9996 58.3334C45.1463 58.3334 45.2963 58.3134 45.443 58.2734L53.1696 56.1434C53.4463 56.0667 53.703 55.92 53.9063 55.7134L78.353 31.2634C80.543 29.07 80.543 25.5034 78.353 23.31C76.2296 21.1867 72.523 21.1867 70.3996 23.31L45.953 47.76C45.7496 47.9667 45.603 48.2167 45.5263 48.4967L43.3963 56.22C43.2363 56.7967 43.3996 57.4167 43.823 57.84C44.1363 58.16 44.563 58.3334 44.9996 58.3334ZM48.6196 49.8067L72.7563 25.67C73.623 24.8034 75.1296 24.8034 75.9963 25.67C76.8896 26.5634 76.8896 28.0167 75.9963 28.91L51.8596 53.0467L47.3896 54.28L48.6196 49.8067Z" fill="url(#paint4_linear_0_5423)"/>
<defs>
<linearGradient id="paint0_linear_0_5423" x1="2.21667" y1="-4.43697e-07" x2="60.7073" y2="67.1088" gradientUnits="userSpaceOnUse">
<stop offset="0.0019141" stop-color="#10DF10"/>
<stop offset="1" stop-color="#008100"/>
</linearGradient>
<linearGradient id="paint1_linear_0_5423" x1="14.6202" y1="23.3333" x2="14.9277" y2="28.2343" gradientUnits="userSpaceOnUse">
<stop offset="0.0019141" stop-color="#10DF10"/>
<stop offset="1" stop-color="#008100"/>
</linearGradient>
<linearGradient id="paint2_linear_0_5423" x1="14.3036" y1="40" x2="14.7105" y2="44.8865" gradientUnits="userSpaceOnUse">
<stop offset="0.0019141" stop-color="#10DF10"/>
<stop offset="1" stop-color="#008100"/>
</linearGradient>
<linearGradient id="paint3_linear_0_5423" x1="14.0369" y1="56.6667" x2="14.5954" y2="61.5229" gradientUnits="userSpaceOnUse">
<stop offset="0.0019141" stop-color="#10DF10"/>
<stop offset="1" stop-color="#008100"/>
</linearGradient>
<linearGradient id="paint4_linear_0_5423" x1="44.619" y1="21.7175" x2="69.8732" y2="58.3615" gradientUnits="userSpaceOnUse">
<stop offset="0.0019141" stop-color="#10DF10"/>
<stop offset="1" stop-color="#008100"/>
</linearGradient>
</defs>
</svg>
