<svg width="26" height="26" viewBox="0 0 26 26" fill="none" xmlns="http://www.w3.org/2000/svg">
<path d="M24.9837 11.9844H7.32519C6.76426 11.9844 6.30957 12.4391 6.30957 13C6.30957 13.5609 6.76426 14.0156 7.32519 14.0156H24.9837C25.5447 14.0156 25.9993 13.5609 25.9993 13C25.9993 12.4391 25.5447 11.9844 24.9837 11.9844Z" fill="#929292"/>
<path d="M24.9837 4.36719H7.32519C6.76426 4.36719 6.30957 4.82188 6.30957 5.38281C6.30957 5.94374 6.76426 6.39844 7.32519 6.39844H24.9837C25.5447 6.39844 25.9993 5.94374 25.9993 5.38281C25.9993 4.82188 25.5447 4.36719 24.9837 4.36719Z" fill="#929292"/>
<path d="M24.9837 19.6016H7.32519C6.76426 19.6016 6.30957 20.0563 6.30957 20.6172C6.30957 21.1781 6.76426 21.6328 7.32519 21.6328H24.9837C25.5447 21.6328 25.9993 21.1781 25.9993 20.6172C25.9993 20.0563 25.5447 19.6016 24.9837 19.6016Z" fill="#929292"/>
<path d="M1.37109 6.75391C2.12833 6.75391 2.74219 6.14005 2.74219 5.38281C2.74219 4.62558 2.12833 4.01172 1.37109 4.01172C0.61386 4.01172 0 4.62558 0 5.38281C0 6.14005 0.61386 6.75391 1.37109 6.75391Z" fill="#929292"/>
<path d="M1.37109 14.3711C2.12833 14.3711 2.74219 13.7572 2.74219 13C2.74219 12.2428 2.12833 11.6289 1.37109 11.6289C0.61386 11.6289 0 12.2428 0 13C0 13.7572 0.61386 14.3711 1.37109 14.3711Z" fill="#929292"/>
<path d="M1.37109 21.9883C2.12833 21.9883 2.74219 21.3744 2.74219 20.6172C2.74219 19.86 2.12833 19.2461 1.37109 19.2461C0.61386 19.2461 0 19.86 0 20.6172C0 21.3744 0.61386 21.9883 1.37109 21.9883Z" fill="#929292"/>
</svg>
