<svg width="40" height="40" viewBox="0 0 40 40" fill="none" xmlns="http://www.w3.org/2000/svg">
<path d="M29.7393 3.43478C27.261 1.21739 23.7828 0 20.0002 0C16.2176 0 12.7393 1.21739 10.261 3.43478C7.21756 6.13043 5.65234 10.1739 5.65234 15.2174C5.65234 26.1304 18.2176 38.9565 18.7828 39.4783C19.1306 39.8261 19.5654 40 20.0002 40C20.435 40 20.9132 39.8261 21.2176 39.4783C21.7828 38.9565 34.348 26.1304 34.348 15.2174C34.348 10.1739 32.7828 6.13043 29.7393 3.43478ZM20.0002 35.6957C18.8263 34.3913 16.9567 32.2174 15.1306 29.6087C11.2176 24.0435 9.1306 19.087 9.1306 15.2174C9.1306 4.34783 17.435 3.47826 20.0002 3.47826C30.0871 3.47826 30.8697 12.4783 30.8697 15.2174C30.8697 22.8696 23.0871 32.3043 20.0002 35.6957ZM20.0002 7.52174C16.1741 7.52174 13.0871 10.6957 13.0871 14.5652C13.0871 18.4348 16.1741 21.5652 20.0002 21.5652C23.8263 21.5652 26.9132 18.3913 26.9132 14.5217C26.9132 10.6522 23.8263 7.52174 20.0002 7.52174ZM20.0002 18.5217C17.8697 18.5217 16.1306 16.7391 16.1306 14.5217C16.1306 12.3043 17.8697 10.5217 20.0002 10.5217C22.1306 10.5217 23.8697 12.3043 23.8697 14.5217C23.8697 16.7391 22.1306 18.5217 20.0002 18.5217Z" fill="url(#paint0_linear_0_436)"/>
<defs>
<linearGradient id="paint0_linear_0_436" x1="6.00024" y1="5.5" x2="27.5002" y2="37" gradientUnits="userSpaceOnUse">
<stop offset="0.0113243" stop-color="#11DF11"/>
<stop offset="1" stop-color="#008000"/>
</linearGradient>
</defs>
</svg>
