<svg width="168" height="42" viewBox="0 0 168 42" fill="none" xmlns="http://www.w3.org/2000/svg">
<path d="M88.1976 5.71308H99.3514L99.4863 19.6969H96.6548L96.5426 8.05961H91.0517L91.1639 19.6969H88.3324L88.1976 5.71308Z" fill="white"/>
<path d="M101.735 12.7908C101.721 11.3664 101.923 10.1708 102.341 9.20426C102.653 8.49203 103.08 7.85293 103.623 7.28697C104.173 6.721 104.775 6.3013 105.429 6.02786C106.299 5.65903 107.305 5.47461 108.446 5.47461C110.513 5.47461 112.17 6.1137 113.42 7.3919C114.676 8.67009 115.315 10.4475 115.337 12.7241C115.358 14.9816 114.76 16.7494 113.542 18.0276C112.323 19.2994 110.684 19.9353 108.624 19.9353C106.539 19.9353 104.874 19.3026 103.631 18.0371C102.388 16.7653 101.756 15.0165 101.735 12.7908ZM104.651 12.6954C104.667 14.2789 105.045 15.4807 105.786 16.3011C106.527 17.115 107.462 17.522 108.591 17.522C109.72 17.522 110.641 17.1182 111.354 16.3106C112.073 15.4966 112.424 14.2789 112.409 12.6573C112.393 11.0548 112.028 9.85925 111.312 9.07071C110.603 8.28218 109.665 7.88791 108.498 7.88791C107.331 7.88791 106.394 8.28854 105.688 9.08979C104.981 9.88469 104.636 11.0866 104.651 12.6954Z" fill="white"/>
<path d="M117.995 5.71308H127.819L127.954 19.6969H125.123L125.011 8.07868H120.792L120.85 14.0499C120.866 15.7605 120.82 16.9561 120.712 17.6365C120.604 18.3106 120.328 18.8384 119.886 19.2199C119.449 19.5951 118.759 19.7827 117.815 19.7827C117.484 19.7827 116.881 19.7509 116.006 19.6873L115.985 17.503L116.617 17.5125C117.21 17.5125 117.608 17.433 117.81 17.274C118.013 17.115 118.111 16.724 118.105 16.1008L118.072 13.697L117.995 5.71308Z" fill="white"/>
<path d="M130.785 5.71308H133.435L133.524 15.0229L139.117 5.71308H141.939L142.074 19.6969H139.424L139.336 10.5683L133.751 19.6969H130.92L130.785 5.71308Z" fill="white"/>
<path d="M144.875 5.71308H147.707L147.764 11.6652C148.395 11.6017 148.821 11.4395 149.041 11.1788C149.262 10.918 149.6 10.1931 150.054 9.00394C150.626 7.49046 151.207 6.54931 151.796 6.18048C152.379 5.81164 153.324 5.62723 154.632 5.62723C154.696 5.62723 154.833 5.62405 155.043 5.61769L155.063 7.70667L154.661 7.69713C154.081 7.69713 153.658 7.77027 153.391 7.91653C153.125 8.05643 152.91 8.27264 152.747 8.56516C152.584 8.85768 152.344 9.45862 152.028 10.368C151.86 10.8513 151.676 11.2551 151.475 11.5794C151.281 11.9037 150.93 12.209 150.422 12.4951C151.055 12.6732 151.578 13.0325 151.992 13.573C152.411 14.1135 152.872 14.8766 153.372 15.8623L155.322 19.6969H151.993L150.284 16.0817C150.258 16.0308 150.203 15.9322 150.119 15.786C150.087 15.7351 149.967 15.5157 149.759 15.1278C149.389 14.441 149.085 14.0118 148.847 13.8401C148.616 13.6684 148.261 13.5794 147.783 13.573L147.842 19.6969H145.01L144.875 5.71308Z" fill="white"/>
<path d="M88.0432 36.1122L87.9335 23.9707H91.6129L93.897 32.2527L96.0065 23.9707H99.6941L99.8038 36.1122H97.5198L97.4335 26.5547L95.1029 36.1122H92.7358L90.2409 26.5547L90.3272 36.1122H88.0432Z" fill="white"/>
<path d="M101.693 30.116C101.682 28.8792 101.858 27.8412 102.221 27.0019C102.493 26.3835 102.864 25.8287 103.336 25.3373C103.813 24.8459 104.336 24.4814 104.904 24.244C105.66 23.9238 106.533 23.7637 107.524 23.7637C109.318 23.7637 110.757 24.3186 111.842 25.4284C112.931 26.5381 113.485 28.0814 113.503 30.058C113.521 32.0181 113 33.553 111.942 34.6628C110.883 35.7671 109.46 36.3192 107.671 36.3192C105.86 36.3192 104.416 35.7698 103.337 34.6711C102.259 33.5668 101.711 32.0484 101.693 30.116ZM104.226 30.0332C104.238 31.408 104.566 32.4515 105.209 33.1638C105.852 33.8705 106.664 34.2239 107.644 34.2239C108.624 34.2239 109.424 33.8733 110.043 33.172C110.668 32.4653 110.974 31.408 110.961 30C110.949 28.6087 110.632 27.5706 110.011 26.886C109.396 26.2013 108.582 25.859 107.568 25.859C106.555 25.859 105.741 26.2069 105.128 26.9026C104.514 27.5927 104.213 28.6363 104.226 30.0332Z" fill="white"/>
<path d="M115.493 36.1122L115.383 23.9707H117.842L117.885 28.7494H122.702L122.659 23.9707H125.117L125.227 36.1122H122.769L122.721 30.8034H117.903L117.951 36.1122H115.493Z" fill="white"/>
<path d="M130.518 36.1122L130.427 26.0247H126.814L126.795 23.9707H136.471L136.49 26.0247H132.885L132.976 36.1122H130.518Z" fill="white"/>
<path d="M148.076 36.1122H145.401L144.313 33.3542H139.446L138.466 36.1122H135.858L140.491 23.9707H143.091L148.076 36.1122ZM143.506 31.3086L141.787 26.8032L140.183 31.3086H143.506Z" fill="white"/>
<path d="M156.928 23.9707L156.974 29.1387C157.384 29.1056 157.692 28.9537 157.9 28.6832C158.108 28.4126 158.393 27.7943 158.756 26.828C159.232 25.5636 159.723 24.7575 160.229 24.4097C160.73 24.0673 161.567 23.8962 162.741 23.8962C162.796 23.8962 162.915 23.8934 163.098 23.8879L163.114 25.7017L162.757 25.6934C162.259 25.6934 161.894 25.7569 161.662 25.8839C161.431 26.0053 161.244 26.1931 161.103 26.447C160.961 26.701 160.753 27.2228 160.477 28.0123C160.332 28.432 160.171 28.7826 159.997 29.0642C159.828 29.3458 159.523 29.6108 159.082 29.8592C159.632 30.0194 160.086 30.3341 160.444 30.8034C160.809 31.2672 161.208 31.927 161.642 32.7828L163.333 36.1122H160.443L158.952 32.9733C158.935 32.9291 158.888 32.8435 158.809 32.7165C158.764 32.6337 158.662 32.4432 158.505 32.1451C158.189 31.5653 157.931 31.1954 157.731 31.0353C157.53 30.8752 157.283 30.7951 156.989 30.7951L157.037 36.1122H154.637L154.589 30.7951C154.307 30.7951 154.064 30.8724 153.86 31.027C153.657 31.1816 153.405 31.5543 153.106 32.1451C152.937 32.4764 152.837 32.6668 152.804 32.7165C152.755 32.7994 152.709 32.8849 152.665 32.9733L151.232 36.1122H148.341L149.972 32.7828C150.375 31.9601 150.754 31.3086 151.109 30.8282C151.47 30.3424 151.93 30.0194 152.487 29.8592C152.042 29.6108 151.73 29.3485 151.55 29.0724C151.376 28.7909 151.209 28.4375 151.051 28.0123C150.767 27.2394 150.552 26.7231 150.405 26.4636C150.265 26.2041 150.075 26.0109 149.835 25.8839C149.602 25.7569 149.219 25.6934 148.687 25.6934C148.621 25.6934 148.516 25.6961 148.372 25.7017L148.356 23.8879C148.538 23.8934 148.657 23.8962 148.713 23.8962C149.903 23.8962 150.752 24.0701 151.259 24.418C151.76 24.7713 152.258 25.5747 152.751 26.828C153.136 27.7998 153.432 28.4209 153.64 28.6915C153.853 28.9565 154.164 29.1056 154.574 29.1387L154.527 23.9707H156.928Z" fill="white"/>
<path d="M1 41V1H167V41H1Z" stroke="white" stroke-width="2" stroke-linecap="round" stroke-linejoin="round"/>
<rect width="84" height="42" fill="white"/>
<path d="M5.26 34.5206L5.00436 6.47821H14.0414C17.4659 6.47821 19.6995 6.61849 20.7421 6.89904C22.3441 7.31987 23.6905 8.23803 24.7815 9.65354C25.8724 11.0563 26.4281 12.8735 26.4484 15.1052C26.4641 16.8267 26.1665 18.2741 25.5557 19.4473C24.9449 20.6205 24.1607 21.5451 23.2029 22.221C22.2576 22.8841 21.2914 23.324 20.304 23.5408C18.962 23.8086 17.0163 23.9425 14.4669 23.9425H10.7951L10.8915 34.5206H5.26ZM10.6791 11.2221L10.7516 19.1795H13.8337C16.0533 19.1795 17.536 19.0329 18.2816 18.7396C19.0273 18.4463 19.6065 17.9872 20.0194 17.3623C20.4449 16.7375 20.6539 16.0106 20.6464 15.1817C20.6371 14.1615 20.3313 13.3198 19.7292 12.6567C19.127 11.9936 18.3686 11.5791 17.4538 11.4134C16.7804 11.2858 15.4291 11.2221 13.3997 11.2221H10.6791Z" fill="#008000"/>
<path d="M27.6254 6.47821H33.9228L40.5621 21.035L45.9848 6.47821H51.8636L42.6404 27.7874C41.6341 30.0955 40.6037 31.8553 39.5493 33.0668C38.4948 34.2655 37.1241 34.8649 35.4372 34.8649C33.7757 34.8649 32.4746 34.7565 31.5341 34.5397L31.4957 30.3314C32.2953 30.3825 33.0184 30.408 33.6653 30.408C34.9717 30.408 35.9018 30.172 36.4556 29.7002C37.0219 29.2156 37.5579 28.1827 38.0635 26.6014L27.6254 6.47821Z" fill="#008000"/>
<path d="M72.7058 24.2103L78.1819 25.951C77.3727 29.0116 75.9982 31.2879 74.0586 32.7799C72.1315 34.2592 69.6713 34.9988 66.678 34.9988C62.9744 34.9988 59.9188 33.7299 57.5111 31.1922C55.1034 28.6418 53.8794 25.1604 53.8392 20.7481C53.7966 16.0807 54.9622 12.4591 57.3359 9.88308C59.7095 7.29436 62.8495 6 66.7561 6C70.1679 6 72.9485 7.01381 75.0978 9.04143C76.3771 10.2401 77.3441 11.9617 77.9987 14.2061L72.4365 15.5451C72.0935 14.0914 71.3918 12.9436 70.3314 12.102C69.2836 11.2603 68.0115 10.8395 66.5148 10.8395C64.4474 10.8395 62.7736 11.5855 61.4935 13.0775C60.2261 14.5696 59.6076 16.9861 59.638 20.3272C59.6704 23.8724 60.3276 26.3973 61.6096 27.9021C62.8917 29.4069 64.5474 30.1593 66.5768 30.1593C68.0734 30.1593 69.3564 29.6811 70.4258 28.7247C71.4952 27.7682 72.2552 26.2635 72.7058 24.2103Z" fill="#008000"/>
</svg>
