<svg width="35" height="21" viewBox="0 0 35 21" fill="none" xmlns="http://www.w3.org/2000/svg">
<path d="M35 10.5C35 16.2615 30.3154 21 24.5 21C18.7385 21 14 16.2615 14 10.5C14 4.73846 18.6846 0 24.4462 0C30.3154 0 35 4.73846 35 10.5Z" fill="#F9B50B"/>
<path d="M20.9462 10.5538C20.9462 9.8 20.8385 9.04615 20.7308 8.34615H14.2692C14.3231 7.96923 14.4308 7.64615 14.5385 7.21538H20.3C20.1923 6.83846 20.0308 6.46154 19.8692 6.08462H14.9692C15.1308 5.70769 15.3462 5.38462 15.5615 4.95385H19.2769C19.0615 4.57692 18.7923 4.2 18.4692 3.82308H16.4231C16.7462 3.44615 17.0692 3.12308 17.5 2.74615C15.6692 1.02308 13.1923 0 10.4462 0C4.73846 0.161538 0 4.73846 0 10.5C0 16.2615 4.68462 21 10.5 21C13.2462 21 15.6692 19.9231 17.5538 18.2538C17.9308 17.9308 18.2538 17.5538 18.6308 17.1231H16.4769C16.2077 16.8 15.9385 16.4231 15.7231 16.0462H19.3846C19.6 15.7231 19.8154 15.3462 19.9769 14.9154H15.0769C14.9154 14.5923 14.7538 14.2154 14.6462 13.7846H20.4077C20.7308 12.8154 20.9462 11.7385 20.9462 10.5538Z" fill="#C8191C"/>
<path d="M14.215 13.1922L14.3765 12.223C14.3227 12.223 14.215 12.2769 14.1073 12.2769C13.7304 12.2769 13.6765 12.0615 13.7304 11.9538L14.0535 10.0153H14.6458L14.8073 8.93839H14.2688L14.3765 8.29224H13.2458C13.2458 8.29224 12.5996 11.9538 12.5996 12.3845C12.5996 13.0307 12.9765 13.3538 13.515 13.3538C13.8381 13.3538 14.1073 13.2461 14.215 13.1922Z" fill="white"/>
<path d="M14.5928 11.4154C14.5928 12.9769 15.6697 13.3539 16.5312 13.3539C17.3389 13.3539 17.7159 13.1923 17.7159 13.1923L17.9312 12.1154C17.9312 12.1154 17.3389 12.3846 16.7466 12.3846C15.5082 12.3846 15.7235 11.4693 15.7235 11.4693H17.9851C17.9851 11.4693 18.1466 10.7693 18.1466 10.4462C18.1466 9.74618 17.7697 8.83079 16.5312 8.83079C15.4543 8.77695 14.5928 10.0154 14.5928 11.4154ZM16.5312 9.80003C17.1235 9.80003 17.0159 10.5 17.0159 10.5539H15.7774C15.8312 10.5 15.9389 9.80003 16.5312 9.80003Z" fill="white"/>
<path d="M23.5849 13.1924L23.8002 11.9539C23.8002 11.9539 23.2618 12.2231 22.831 12.2231C22.0772 12.2231 21.7002 11.6308 21.7002 10.9308C21.7002 9.58468 22.3464 8.88468 23.1541 8.88468C23.6925 8.88468 24.1772 9.20775 24.1772 9.20775L24.3387 8.02314C24.3387 8.02314 23.6925 7.75391 23.0464 7.75391C21.7541 7.75391 20.5156 8.88468 20.5156 10.9847C20.5156 12.3847 21.1618 13.3001 22.5079 13.3001C22.9925 13.3539 23.5849 13.1924 23.5849 13.1924Z" fill="white"/>
<path d="M8.13027 8.77686C7.37643 8.77686 6.78412 8.99224 6.78412 8.99224L6.62258 9.96147C6.62258 9.96147 7.1072 9.74609 7.86104 9.74609C8.23797 9.74609 8.56104 9.79993 8.56104 10.123C8.56104 10.3384 8.5072 10.3922 8.5072 10.3922H8.02258C7.05335 10.3922 6.03027 10.7692 6.03027 12.0615C6.03027 13.0845 6.67643 13.2999 7.1072 13.2999C7.86104 13.2999 8.23797 12.8153 8.29181 12.8153L8.23797 13.2461H9.15335L9.58412 10.1769C9.58412 8.8307 8.5072 8.77686 8.13027 8.77686ZM8.34566 11.2538C8.34566 11.4153 8.23797 12.3307 7.59181 12.3307C7.26874 12.3307 7.16104 12.0615 7.16104 11.8999C7.16104 11.6307 7.32258 11.2538 8.18412 11.2538C8.29181 11.2538 8.34566 11.2538 8.34566 11.2538Z" fill="white"/>
<path d="M10.6616 13.3001C10.9308 13.3001 12.3308 13.3539 12.3308 11.8462C12.3308 10.4462 10.9847 10.7155 10.9847 10.177C10.9847 9.90776 11.2 9.80007 11.577 9.80007C11.7385 9.80007 12.3308 9.85391 12.3308 9.85391L12.4924 8.83084C12.4924 8.83084 12.1154 8.72314 11.4154 8.72314C10.6077 8.72314 9.7462 9.04622 9.7462 10.177C9.7462 11.4693 11.1462 11.3616 11.1462 11.8462C11.1462 12.1693 10.7693 12.2231 10.5 12.2231C10.0154 12.2231 9.47697 12.0616 9.47697 12.0616L9.31543 13.0847C9.42312 13.1924 9.7462 13.3001 10.6616 13.3001Z" fill="white"/>
<path d="M32.8459 7.91528L32.6305 9.42298C32.6305 9.42298 32.1997 8.88451 31.5536 8.88451C30.5305 8.88451 29.6689 10.123 29.6689 11.5768C29.6689 12.4922 30.0997 13.4076 31.0689 13.4076C31.7151 13.4076 32.1459 12.9768 32.1459 12.9768L32.092 13.3537H33.2228L34.0305 8.02298L32.8459 7.91528ZM32.3074 10.823C32.3074 11.4153 32.0382 12.223 31.392 12.223C31.0151 12.223 30.7997 11.8999 30.7997 11.3076C30.7997 10.3922 31.1766 9.85374 31.7151 9.85374C32.092 9.90759 32.3074 10.1768 32.3074 10.823Z" fill="white"/>
<path d="M2.04665 13.2461L2.6928 9.26144L2.8005 13.2461H3.55434L5.00819 9.26144L4.41588 13.2461H5.6005L6.51588 7.91528H4.68511L3.55434 11.1999L3.5005 7.91528H1.88511L0.969727 13.2461H2.04665Z" fill="white"/>
<path d="M19.2765 13.2461C19.5996 11.4153 19.6535 9.9076 20.4612 10.1768C20.5689 9.47683 20.7304 9.15375 20.8381 8.88452H20.6227C20.1381 8.88452 19.7073 9.53068 19.7073 9.53068L19.815 8.93837H18.7381L18.0381 13.2461H19.2765Z" fill="white"/>
<path d="M26.1693 8.77686C25.4155 8.77686 24.8232 8.99224 24.8232 8.99224L24.6616 9.96147C24.6616 9.96147 25.1463 9.74609 25.9001 9.74609C26.277 9.74609 26.6001 9.79993 26.6001 10.123C26.6001 10.3384 26.5463 10.3922 26.5463 10.3922H26.0616C25.0924 10.3922 24.0693 10.7692 24.0693 12.0615C24.0693 13.0845 24.7155 13.2999 25.1463 13.2999C25.9001 13.2999 26.277 12.8153 26.3309 12.8153L26.277 13.2461H27.3001L27.7309 10.1769C27.7309 8.8307 26.5463 8.77686 26.1693 8.77686ZM26.4386 11.2538C26.4386 11.4153 26.3309 12.3307 25.6847 12.3307C25.3616 12.3307 25.254 12.0615 25.254 11.8999C25.254 11.6307 25.4155 11.2538 26.277 11.2538C26.3847 11.2538 26.3847 11.2538 26.4386 11.2538Z" fill="white"/>
<path d="M28.592 13.2461C28.9151 11.4153 28.9689 9.9076 29.7766 10.1768C29.8843 9.47683 30.0458 9.15375 30.1535 8.88452H29.9381C29.4535 8.88452 29.0227 9.53068 29.0227 9.53068L29.1304 8.93837H28.0535L27.3535 13.2461H28.592Z" fill="white"/>
</svg>
