<svg width="23" height="18" viewBox="0 0 23 18" fill="none" xmlns="http://www.w3.org/2000/svg">
<g clip-path="url(#clip0_0_546)">
<path d="M22.5473 17.7559V17.8021H22.5901C22.5982 17.8023 22.6061 17.8002 22.6131 17.7962C22.6159 17.7942 22.6182 17.7916 22.6197 17.7885C22.6212 17.7854 22.6219 17.782 22.6218 17.7785C22.6219 17.7752 22.6212 17.7718 22.6197 17.7688C22.6182 17.7658 22.6159 17.7632 22.6131 17.7613C22.6062 17.7571 22.5982 17.7551 22.5901 17.7554H22.5473V17.7559ZM22.5906 17.7231C22.609 17.722 22.6272 17.7273 22.6421 17.7382C22.6481 17.7431 22.6529 17.7494 22.656 17.7565C22.6591 17.7636 22.6606 17.7713 22.6602 17.7791C22.6605 17.7858 22.6593 17.7925 22.6568 17.7987C22.6543 17.8049 22.6505 17.8105 22.6457 17.8151C22.6342 17.8252 22.6197 17.8312 22.6045 17.8323L22.662 17.8983H22.6177L22.5648 17.8328H22.5477V17.8983H22.5107V17.7232H22.5912L22.5906 17.7231ZM22.5791 17.9587C22.5985 17.9588 22.6178 17.9549 22.6356 17.9471C22.6527 17.9397 22.6683 17.929 22.6816 17.9157C22.6948 17.9025 22.7054 17.8868 22.7127 17.8695C22.7278 17.8328 22.7278 17.7916 22.7127 17.7549C22.7053 17.7377 22.6947 17.722 22.6816 17.7087C22.6683 17.6954 22.6527 17.6848 22.6356 17.6773C22.6177 17.6699 22.5985 17.6662 22.5791 17.6664C22.5594 17.6663 22.5399 17.67 22.5216 17.6773C22.5041 17.6846 22.4881 17.6953 22.4746 17.7087C22.4542 17.7297 22.4405 17.7562 22.435 17.785C22.4296 17.8138 22.4326 17.8436 22.4439 17.8706C22.4509 17.888 22.4613 17.9037 22.4746 17.9169C22.4881 17.9303 22.5041 17.9409 22.5216 17.9482C22.5398 17.956 22.5594 17.96 22.5791 17.9598V17.9587ZM22.5791 17.6243C22.6296 17.6243 22.6782 17.6442 22.7142 17.6799C22.7316 17.697 22.7454 17.7174 22.7549 17.7399C22.7648 17.763 22.7698 17.7879 22.7698 17.8131C22.7698 17.8382 22.7648 17.8631 22.7549 17.8862C22.7452 17.9086 22.7314 17.929 22.7142 17.9463C22.6966 17.9633 22.6761 17.977 22.6536 17.9868C22.6301 17.9968 22.6047 18.002 22.5791 18.0018C22.5532 18.002 22.5275 17.9969 22.5037 17.9868C22.481 17.9772 22.4603 17.9635 22.4426 17.9463C22.4254 17.9284 22.4118 17.9073 22.4025 17.8843C22.3926 17.8611 22.3876 17.8363 22.3876 17.8111C22.3876 17.786 22.3926 17.7611 22.4025 17.7379C22.412 17.7154 22.4258 17.695 22.4432 17.6779C22.4606 17.6604 22.4814 17.6466 22.5042 17.6374C22.5281 17.6273 22.5538 17.6222 22.5797 17.6224L22.5791 17.6243ZM4.97031 16.9484C4.97031 16.6147 5.18766 16.3405 5.54289 16.3405C5.88237 16.3405 6.11145 16.6029 6.11145 16.9484C6.11145 17.294 5.88237 17.5563 5.54289 17.5563C5.18766 17.5563 4.97031 17.2822 4.97031 16.9484ZM6.49843 16.9484V15.9987H6.08799V16.23C5.95781 16.0591 5.76036 15.9518 5.49183 15.9518C4.96283 15.9518 4.54768 16.3692 4.54768 16.9489C4.54768 17.5286 4.9626 17.9459 5.49183 17.9459C5.76024 17.9459 5.95781 17.8386 6.08799 17.6677V17.8983H6.49797V16.9484H6.49843ZM20.3665 16.9484C20.3665 16.6147 20.5839 16.3405 20.9392 16.3405C21.279 16.3405 21.5078 16.6029 21.5078 16.9484C21.5078 17.294 21.279 17.5563 20.9392 17.5563C20.584 17.5563 20.3665 17.2822 20.3665 16.9484ZM21.8951 16.9484V15.2363H21.4843V16.23C21.3541 16.0591 21.1567 15.9518 20.8881 15.9518C20.3591 15.9518 19.944 16.3692 19.944 16.9489C19.944 17.5286 20.3589 17.9459 20.8881 17.9459C21.1567 17.9459 21.3541 17.8386 21.4843 17.6677V17.8983H21.8951V16.9484ZM11.5925 16.321C11.857 16.321 12.0268 16.4878 12.0702 16.7815H11.0908C11.1347 16.5073 11.3001 16.321 11.5926 16.321H11.5925ZM11.6007 15.9508C11.0476 15.9508 10.6606 16.3557 10.6606 16.9478C10.6606 17.5516 11.0631 17.9449 11.6282 17.9449C11.9125 17.9449 12.1729 17.8735 12.402 17.6788L12.2008 17.3728C12.0426 17.5001 11.8411 17.5715 11.6517 17.5715C11.3872 17.5715 11.1464 17.4483 11.0872 17.1064H12.4887C12.4927 17.0551 12.4968 17.0032 12.4968 16.9477C12.4927 16.3558 12.1288 15.9507 11.6005 15.9507L11.6007 15.9508ZM16.5559 16.9477C16.5559 16.614 16.7732 16.3398 17.1285 16.3398C17.4679 16.3398 17.697 16.6022 17.697 16.9477C17.697 17.2933 17.4679 17.5556 17.1285 17.5556C16.7732 17.5556 16.5558 17.2815 16.5558 16.9477H16.5559ZM18.0839 16.9477V15.9987H17.6737V16.23C17.543 16.0591 17.346 15.9518 17.0775 15.9518C16.5485 15.9518 16.1334 16.3692 16.1334 16.9489C16.1334 17.5286 16.5483 17.9459 17.0775 17.9459C17.346 17.9459 17.543 17.8386 17.6737 17.6677V17.8983H18.084V16.9484L18.0839 16.9477ZM14.238 16.9477C14.238 17.5237 14.6366 17.9448 15.245 17.9448C15.5293 17.9448 15.7187 17.8811 15.9235 17.7184L15.7264 17.3846C15.5723 17.496 15.4105 17.5556 15.2319 17.5556C14.9042 17.5516 14.6633 17.3133 14.6633 16.9477C14.6633 16.5822 14.9042 16.344 15.2319 16.3398C15.41 16.3398 15.5718 16.3994 15.7264 16.5108L15.9235 16.177C15.7183 16.0143 15.5289 15.9507 15.245 15.9507C14.6366 15.9507 14.238 16.3716 14.238 16.9477ZM19.5292 15.9507C19.2924 15.9507 19.1382 16.0621 19.0316 16.2289V15.9987H18.6248V17.8972H19.0357V16.833C19.0357 16.5188 19.1699 16.3442 19.4382 16.3442C19.5261 16.3429 19.6133 16.3592 19.6949 16.392L19.8214 16.0028C19.7306 15.9669 19.6121 15.951 19.529 15.951L19.5292 15.9507ZM8.5276 16.1496C8.33015 16.0187 8.05806 15.951 7.75791 15.951C7.27974 15.951 6.97188 16.1816 6.97188 16.5588C6.97188 16.8684 7.20108 17.0593 7.62313 17.1189L7.81702 17.1467C8.04207 17.1785 8.14833 17.2381 8.14833 17.3453C8.14833 17.4921 7.99883 17.5759 7.71812 17.5759C7.43384 17.5759 7.22868 17.4845 7.09033 17.3772L6.89748 17.6992C7.12253 17.866 7.40681 17.9456 7.71467 17.9456C8.25977 17.9456 8.57567 17.6874 8.57567 17.3259C8.57567 16.9921 8.32704 16.8176 7.91626 16.758L7.72283 16.7298C7.54516 16.7066 7.40279 16.6707 7.40279 16.5434C7.40279 16.4046 7.53699 16.3211 7.76216 16.3211C8.00309 16.3211 8.23631 16.4125 8.35062 16.4838L8.52829 16.1501L8.5276 16.1496ZM13.8235 15.9514C13.5867 15.9514 13.4325 16.0628 13.3263 16.2296V15.9987H12.9196V17.8972H13.33V16.833C13.33 16.5188 13.4642 16.3442 13.7325 16.3442C13.8204 16.3429 13.9076 16.3592 13.9892 16.392L14.1157 16.0028C14.0248 15.9669 13.9064 15.951 13.8232 15.951L13.8235 15.9514ZM10.321 15.9987H9.64989V15.4227H9.23497V15.9987H8.85213V16.376H9.23497V17.2421C9.23497 17.6826 9.40494 17.945 9.89047 17.945C10.0686 17.945 10.2738 17.8895 10.4039 17.7982L10.2854 17.4447C10.1629 17.5161 10.0287 17.552 9.92198 17.552C9.71682 17.552 9.64989 17.4248 9.64989 17.2343V16.3764H10.321V15.9987ZM4.18474 17.8977V16.7062C4.18474 16.2574 3.90046 15.9555 3.44219 15.9515C3.20126 15.9474 2.95275 16.0228 2.77875 16.2893C2.64857 16.0787 2.44341 15.9515 2.15499 15.9515C1.9534 15.9515 1.7564 16.011 1.60219 16.2334V15.9987H1.19141V17.8972H1.60541V16.8445C1.60541 16.515 1.78711 16.3398 2.06771 16.3398C2.34026 16.3398 2.47814 16.5185 2.47814 16.8404V17.897H2.89306V16.8443C2.89306 16.5147 3.08247 16.3396 3.3549 16.3396C3.63516 16.3396 3.7689 16.5183 3.7689 16.8401V17.8968L4.18474 17.8977Z" fill="white"/>
<path d="M22.7807 11.5823V11.3047H22.7088L22.6257 11.4952L22.543 11.3047H22.4709V11.5823H22.5219V11.3732L22.5997 11.5536H22.6526L22.7303 11.3727V11.5823H22.7809H22.7807ZM22.3247 11.5823V11.3522H22.4167V11.3054H22.1816V11.3522H22.2736V11.5823H22.3242H22.3247Z" fill="#F79410"/>
<path d="M14.6125 12.773H8.39258V1.52881H14.6126L14.6125 12.773Z" fill="#FF5F00"/>
<path d="M8.786 7.15059C8.786 4.8697 9.84768 2.83787 11.5009 1.52848C10.2495 0.535872 8.70169 -0.00284919 7.10803 -0.000480503C3.18228 -0.000480503 0 3.20111 0 7.15059C0 11.1001 3.18228 14.3017 7.10803 14.3017C8.70173 14.304 10.2496 13.7653 11.501 12.7727C9.84791 11.4635 8.786 9.43159 8.786 7.15059Z" fill="#EB001B"/>
<path d="M23.0036 7.15108C23.0036 11.1005 19.8213 14.3021 15.8955 14.3021C14.3017 14.3045 12.7536 13.7658 11.502 12.7732C13.1557 11.4638 14.2173 9.43208 14.2173 7.15108C14.2173 4.87007 13.1557 2.83836 11.502 1.52897C12.7536 0.53639 14.3016 -0.00231939 15.8954 7.5065e-06C19.8212 7.5065e-06 23.0035 3.2016 23.0035 7.15108" fill="#F79E1B"/>
</g>
<defs>
<clipPath id="clip0_0_546">
<rect width="23" height="18" fill="white"/>
</clipPath>
</defs>
</svg>
