<svg width="40" height="18" viewBox="0 0 40 18" fill="none" xmlns="http://www.w3.org/2000/svg">
<path d="M37.7998 18H2.20016C1.91123 18 1.62513 17.9418 1.35819 17.8287C1.09126 17.7156 0.848715 17.5499 0.644412 17.341C0.440108 17.132 0.278045 16.884 0.167477 16.611C0.0569088 16.338 0 16.0454 0 15.7499L0 2.25014C0 1.65337 0.231802 1.08103 0.644412 0.659051C1.05702 0.237068 1.61664 0 2.20016 0L37.7998 0C38.3834 0 38.943 0.237068 39.3556 0.659051C39.7682 1.08103 40 1.65337 40 2.25014V15.7499C40 16.3466 39.7682 16.919 39.3556 17.341C38.943 17.7629 38.3834 18 37.7998 18Z" fill="white"/>
<path d="M21.7711 5.45045L19.8018 9.81422H19.6016V4.50049H16.8008V13.4999H19.1782C19.4838 13.5 19.783 13.4105 20.0403 13.2419C20.2977 13.0733 20.5023 12.8328 20.63 12.5489L22.5993 8.18508H22.7995V13.5033H25.6003V4.50049H23.2229C22.9175 4.50055 22.6185 4.59004 22.3612 4.75838C22.1039 4.92672 21.8992 5.16687 21.7711 5.45045Z" fill="#20AA4D"/>
<path d="M11.2689 5.68318L10.1026 9.82317H9.90024L8.73397 5.68318C8.63795 5.34322 8.43681 5.04423 8.16067 4.83101C7.88454 4.61779 7.54828 4.50183 7.20228 4.50049H4.40039V13.4999H7.20009V8.18172H7.40031L8.99983 13.4999H10.9998L12.6004 8.18172H12.8006V13.4999H15.6014V4.50049H12.8006C12.4546 4.50183 12.1183 4.61779 11.8422 4.83101C11.5661 5.04423 11.3649 5.34322 11.2689 5.68318Z" fill="#20AA4D"/>
<path d="M26.8047 8.59082V13.4995H29.5945V10.6362H32.6032C33.2226 10.635 33.8265 10.4378 34.3319 10.0715C34.8373 9.7053 35.2194 9.18806 35.4259 8.59082H26.8047Z" fill="#20AA4D"/>
<path d="M32.6037 4.50049H26.4004C26.587 5.53424 27.1218 6.46848 27.9119 7.14096C28.7019 7.81344 29.6973 8.18168 30.7252 8.18172H35.5391C35.6277 7.73635 35.6185 7.27641 35.5122 6.83511C35.4058 6.39382 35.2049 5.98219 34.9241 5.62997C34.6432 5.27774 34.2894 4.9937 33.8881 4.79837C33.4868 4.60305 33.0481 4.5013 32.6037 4.50049Z" fill="url(#paint0_linear_0_535)"/>
<defs>
<linearGradient id="paint0_linear_0_535" x1="26.4004" y1="6.34111" x2="35.6004" y2="6.34111" gradientUnits="userSpaceOnUse">
<stop offset="0.01" stop-color="#00A7E3"/>
<stop offset="0.34" stop-color="#009EDC"/>
<stop offset="0.87" stop-color="#0085C9"/>
<stop offset="1" stop-color="#007EC4"/>
</linearGradient>
</defs>
</svg>
