<svg width="26" height="26" viewBox="0 0 26 26" fill="none" xmlns="http://www.w3.org/2000/svg">
<path fill-rule="evenodd" clip-rule="evenodd" d="M12.9895 2.16675C7.00949 2.16675 2.16699 7.02008 2.16699 13.0001C2.16699 18.9801 7.00949 23.8334 12.9895 23.8334C18.9803 23.8334 23.8337 18.9801 23.8337 13.0001C23.8337 7.02008 18.9803 2.16675 12.9895 2.16675ZM14.0837 14.0834V7.58342H11.917V14.0834H14.0837ZM14.0837 18.4167V16.2501H11.917V18.4167H14.0837ZM4.33366 13.0001C4.33366 17.7884 8.21199 21.6668 13.0003 21.6668C17.7887 21.6668 21.667 17.7884 21.667 13.0001C21.667 8.21175 17.7887 4.33342 13.0003 4.33342C8.21199 4.33342 4.33366 8.21175 4.33366 13.0001Z" fill="url(#paint0_linear_0_1212)"/>
<defs>
<linearGradient id="paint0_linear_0_1212" x1="2.92533" y1="2.16675" x2="17.8753" y2="23.8334" gradientUnits="userSpaceOnUse">
<stop offset="0.0019141" stop-color="#10DF10"/>
<stop offset="1" stop-color="#008100"/>
</linearGradient>
</defs>
</svg>
