<svg width="60" height="60" viewBox="0 0 60 60" fill="none" xmlns="http://www.w3.org/2000/svg">
<rect width="60" height="60" fill="white"/>
<path d="M44.2503 14.1667H15.7503C15.3304 14.1667 14.9277 14.3336 14.6307 14.6305C14.3338 14.9274 14.167 15.3302 14.167 15.7501V44.2501C14.167 44.67 14.3338 45.0727 14.6307 45.3697C14.9277 45.6666 15.3304 45.8334 15.7503 45.8334H25.2503C25.6703 45.8334 26.073 45.6666 26.3699 45.3697C26.6668 45.0727 26.8337 44.67 26.8337 44.2501V26.8334H44.2503C44.6702 26.8334 45.073 26.6666 45.3699 26.3697C45.6668 26.0727 45.8337 25.67 45.8337 25.2501V15.7501C45.8337 15.3302 45.6668 14.9274 45.3699 14.6305C45.073 14.3336 44.6702 14.1667 44.2503 14.1667ZM42.667 23.6667H39.5003V22.0834C39.5003 21.6635 39.3335 21.2608 39.0366 20.9638C38.7396 20.6669 38.3369 20.5001 37.917 20.5001C37.4971 20.5001 37.0943 20.6669 36.7974 20.9638C36.5005 21.2608 36.3337 21.6635 36.3337 22.0834V23.6667H33.167V22.0834C33.167 21.6635 33.0002 21.2608 32.7032 20.9638C32.4063 20.6669 32.0036 20.5001 31.5837 20.5001C31.1637 20.5001 30.761 20.6669 30.4641 20.9638C30.1671 21.2608 30.0003 21.6635 30.0003 22.0834V23.6667H26.8337V22.0834C26.8337 21.6635 26.6668 21.2608 26.3699 20.9638C26.073 20.6669 25.6703 20.5001 25.2503 20.5001C24.8304 20.5001 24.4277 20.6669 24.1307 20.9638C23.8338 21.2608 23.667 21.6635 23.667 22.0834V23.6667H22.0837C21.6637 23.6667 21.261 23.8336 20.9641 24.1305C20.6671 24.4274 20.5003 24.8302 20.5003 25.2501C20.5003 25.67 20.6671 26.0727 20.9641 26.3697C21.261 26.6666 21.6637 26.8334 22.0837 26.8334H23.667V30.0001H22.0837C21.6637 30.0001 21.261 30.1669 20.9641 30.4638C20.6671 30.7608 20.5003 31.1635 20.5003 31.5834C20.5003 32.0033 20.6671 32.4061 20.9641 32.703C21.261 32.9999 21.6637 33.1667 22.0837 33.1667H23.667V36.3334H22.0837C21.6637 36.3334 21.261 36.5002 20.9641 36.7972C20.6671 37.0941 20.5003 37.4968 20.5003 37.9167C20.5003 38.3367 20.6671 38.7394 20.9641 39.0363C21.261 39.3333 21.6637 39.5001 22.0837 39.5001H23.667V42.6667H17.3337V17.3334H42.667V23.6667Z" fill="url(#paint0_linear_0_2207)"/>
<defs>
<linearGradient id="paint0_linear_0_2207" x1="15.2753" y1="14.1667" x2="37.1253" y2="45.8334" gradientUnits="userSpaceOnUse">
<stop offset="0.0019141" stop-color="#10DF10"/>
<stop offset="1" stop-color="#008100"/>
</linearGradient>
</defs>
</svg>
