<svg width="66" height="74" viewBox="0 0 66 74" fill="none" xmlns="http://www.w3.org/2000/svg">
<path d="M37 74C30.782 74 24.6642 72.4329 19.2119 69.4435C13.7596 66.4542 9.14861 62.1389 5.80492 56.8964C2.46122 51.6539 0.492675 45.6533 0.0811292 39.4489C-0.330416 33.2445 0.828316 27.0364 3.45028 21.3982C6.07224 15.76 10.0729 10.8735 15.0826 7.19018C20.0923 3.50684 25.9494 1.14545 32.113 0.324161C38.2766 -0.497125 44.5477 0.24818 50.3471 2.49122C56.1465 4.73427 61.287 8.4027 65.2938 13.1576L57.648 19.6006C54.7239 16.1306 50.9725 13.4535 46.7403 11.8166C42.5081 10.1797 37.9316 9.63576 33.4336 10.2351C28.9356 10.8345 24.6612 12.5577 21.0053 15.2457C17.3494 17.9337 14.4299 21.4997 12.5165 25.6143C10.603 29.7289 9.75742 34.2593 10.0578 38.7871C10.3581 43.3149 11.7947 47.694 14.2348 51.5198C16.6749 55.3456 20.0399 58.4947 24.0188 60.6763C27.9977 62.8578 32.4623 64.0015 37 64.0015V74Z" fill="url(#paint0_linear_0_4912)"/>
<defs>
<linearGradient id="paint0_linear_0_4912" x1="2.59" y1="-4.1042e-07" x2="53.65" y2="74" gradientUnits="userSpaceOnUse">
<stop offset="0.0019141" stop-color="#10DF10"/>
<stop offset="1" stop-color="#008100"/>
</linearGradient>
</defs>
</svg>
