<svg width="60" height="60" viewBox="0 0 60 60" fill="none" xmlns="http://www.w3.org/2000/svg">
<rect width="60" height="60" fill="white"/>
<path d="M38.0786 46.407C36.7301 46.4074 35.4048 46.0556 34.2341 45.3862L34.069 45.2932C26.4574 40.9391 20.0895 34.7061 15.5735 27.1894L14.7126 25.7546C13.8308 24.2877 13.4655 22.5679 13.6747 20.8692C13.8839 19.1706 14.6557 17.5908 15.867 16.3817L17.5822 14.6665C19.0236 13.2251 21.3678 13.2251 22.8079 14.6665L26.5869 18.4455C27.1557 19.0169 27.5227 19.7581 27.6324 20.5568C27.7421 21.3556 27.5885 22.1683 27.1949 22.8719L25.7745 25.3943C25.7447 25.4473 25.733 25.5087 25.7413 25.5691C25.7495 25.6294 25.7773 25.6853 25.8204 25.7284L34.2341 34.1421C34.2778 34.185 34.3343 34.2125 34.395 34.2206C34.4558 34.2286 34.5175 34.2167 34.5709 34.1867L37.0893 32.7676L37.0906 32.7663C37.7944 32.3731 38.607 32.2198 39.4056 32.3295C40.2042 32.4392 40.9453 32.8059 41.517 33.3743L45.2973 37.1559C46.7387 38.5973 46.7387 40.9415 45.2973 42.3816L43.5061 44.1715C42.7927 44.8825 41.9462 45.4459 41.0149 45.8295C40.0836 46.2131 39.0858 46.4093 38.0786 46.407ZM20.1951 16.2061C19.9199 16.2061 19.6447 16.311 19.4351 16.5206L17.7198 18.2346C16.9226 19.0304 16.4146 20.0701 16.2769 21.1882C16.1391 22.3062 16.3796 23.4381 16.9598 24.4037L17.8207 25.8385C22.1044 32.969 28.1448 38.8822 35.3649 43.0132L35.53 43.1062C37.5296 44.2501 40.0455 43.9265 41.652 42.3174L43.4432 40.5275C43.543 40.4277 43.6222 40.3092 43.6763 40.1788C43.7303 40.0484 43.7581 39.9086 43.7581 39.7675C43.7581 39.6263 43.7303 39.4865 43.6763 39.3561C43.6222 39.2257 43.543 39.1072 43.4432 39.0075L39.6629 35.2258C39.4965 35.0604 39.2807 34.9538 39.0483 34.9221C38.8158 34.8904 38.5794 34.9354 38.3748 35.0502L35.8563 36.4693C35.3041 36.7785 34.6662 36.8993 34.0391 36.8135C33.4121 36.7276 32.8301 36.4398 32.3813 35.9937L23.9675 27.5799C23.5209 27.1316 23.2328 26.5498 23.1469 25.9229C23.0611 25.2959 23.1822 24.6581 23.4919 24.1062L24.9123 21.5851C25.0264 21.3805 25.0709 21.1443 25.039 20.9122C25.0071 20.68 24.9005 20.4646 24.7354 20.2983L20.9551 16.5206C20.8553 16.4207 20.7368 16.3415 20.6064 16.2876C20.476 16.2336 20.3362 16.2059 20.1951 16.2061Z" fill="url(#paint0_linear_0_2203)"/>
<defs>
<linearGradient id="paint0_linear_0_2203" x1="23.2929" y1="13.2351" x2="37.8223" y2="46.7645" gradientUnits="userSpaceOnUse">
<stop stop-color="#11DF11"/>
<stop offset="1" stop-color="#008000"/>
</linearGradient>
</defs>
</svg>
