<svg width="40" height="40" viewBox="0 0 40 40" fill="none" xmlns="http://www.w3.org/2000/svg">
<path d="M28.5048 37.2706C27.0852 37.2711 25.6902 36.9007 24.4579 36.1962L24.2841 36.0982C16.2719 31.515 9.56879 24.9539 4.81511 17.0417L3.9089 15.5313C2.98075 13.9872 2.59615 12.1769 2.81638 10.3888C3.0366 8.60077 3.84899 6.93786 5.12407 5.66513L6.92959 3.85961C8.44684 2.34237 10.9144 2.34237 12.4303 3.85961L16.4082 7.83754C17.0069 8.43904 17.3932 9.21924 17.5087 10.06C17.6242 10.9007 17.4625 11.7562 17.0482 12.4969L15.553 15.152C15.5216 15.2079 15.5093 15.2725 15.518 15.336C15.5268 15.3995 15.556 15.4584 15.6013 15.5037L24.4579 24.3603C24.5039 24.4054 24.5634 24.4344 24.6273 24.4428C24.6912 24.4513 24.7562 24.4388 24.8124 24.4072L27.4634 22.9134L27.4648 22.912C28.2055 22.4982 29.0609 22.3368 29.9015 22.4522C30.7422 22.5677 31.5224 22.9538 32.1241 23.552L36.1034 27.5327C37.6206 29.05 37.6206 31.5175 36.1034 33.0334L34.2179 34.9175C33.467 35.666 32.5759 36.259 31.5956 36.6628C30.6153 37.0666 29.565 37.2731 28.5048 37.2706ZM9.67994 5.4803C9.39028 5.4803 9.10063 5.59064 8.87994 5.81133L7.07442 7.61547C6.23521 8.45318 5.70051 9.54766 5.55553 10.7245C5.41054 11.9014 5.66362 13.0929 6.27442 14.1093L7.18063 15.6196C11.6898 23.1255 18.0481 29.3498 25.6482 33.6982L25.822 33.7962C27.9268 35.0003 30.5751 34.6596 32.2661 32.9658L34.1517 31.0817C34.2568 30.9766 34.3401 30.8519 34.397 30.7147C34.4539 30.5774 34.4832 30.4303 34.4832 30.2817C34.4832 30.1331 34.4539 29.986 34.397 29.8487C34.3401 29.7114 34.2568 29.5867 34.1517 29.4817L30.1724 25.501C29.9972 25.3269 29.7701 25.2147 29.5254 25.1813C29.2807 25.148 29.0318 25.1953 28.8165 25.3162L26.1655 26.81C25.5842 27.1354 24.9127 27.2626 24.2526 27.1722C23.5926 27.0819 22.98 26.7789 22.5075 26.3093L13.651 17.4527C13.1808 16.9808 12.8775 16.3684 12.7871 15.7084C12.6968 15.0485 12.8243 14.3771 13.1503 13.7962L14.6455 11.1424C14.7656 10.927 14.8124 10.6783 14.7788 10.434C14.7452 10.1897 14.633 9.96288 14.4592 9.78789L10.4799 5.81133C10.375 5.7062 10.2502 5.62284 10.113 5.56603C9.97567 5.50922 9.82851 5.48009 9.67994 5.4803Z" fill="url(#paint0_linear_0_440)"/>
<defs>
<linearGradient id="paint0_linear_0_440" x1="3" y1="3.00024" x2="37" y2="37.0002" gradientUnits="userSpaceOnUse">
<stop stop-color="#11DF11"/>
<stop offset="1" stop-color="#008000"/>
</linearGradient>
</defs>
</svg>
