<svg width="18" height="18" viewBox="0 0 18 18" fill="none" xmlns="http://www.w3.org/2000/svg">
<circle cx="9" cy="9" r="8.5" stroke="#DBDBDB"/>
<path d="M8.156 11.172C8.156 10.556 8.24933 10.066 8.436 9.702C8.632 9.338 8.93533 9.03467 9.346 8.792C9.53267 8.68 9.73333 8.56333 9.948 8.442C10.172 8.32067 10.3867 8.18067 10.592 8.022C10.7973 7.854 10.9653 7.65333 11.096 7.42C11.2267 7.18667 11.292 6.89733 11.292 6.552C11.292 6.15067 11.1987 5.81467 11.012 5.544C10.8347 5.27333 10.5967 5.07267 10.298 4.942C10.0087 4.802 9.70533 4.732 9.388 4.732C8.89333 4.732 8.44533 4.872 8.044 5.152C7.64267 5.42267 7.33933 5.75867 7.134 6.16L6.476 5.74C6.73733 5.16133 7.13867 4.718 7.68 4.41C8.22133 4.09267 8.79533 3.934 9.402 3.934C9.85933 3.934 10.298 4.032 10.718 4.228C11.138 4.424 11.4787 4.718 11.74 5.11C12.0013 5.502 12.132 6.00133 12.132 6.608C12.132 7.10267 12.0387 7.504 11.852 7.812C11.6747 8.11067 11.4413 8.358 11.152 8.554C10.8627 8.74067 10.5593 8.92267 10.242 9.1C10.018 9.22133 9.808 9.35667 9.612 9.506C9.42533 9.65533 9.27133 9.86067 9.15 10.122C9.02867 10.374 8.968 10.724 8.968 11.172H8.156ZM8.17 14V12.502H8.996V14H8.17Z" fill="#DBDBDB"/>
</svg>
