<svg width="32" height="32" viewBox="0 0 32 32" fill="none" xmlns="http://www.w3.org/2000/svg">
<path d="M27.3137 4.68625C24.2917 1.66425 20.2738 0 16 0C11.7262 0 7.70825 1.66425 4.68625 4.68625C1.66431 7.70825 0 11.7262 0 16C0 20.2738 1.66431 24.2917 4.68625 27.3137C7.70825 30.3357 11.7262 32 16 32C20.2738 32 24.2917 30.3357 27.3137 27.3137C30.3357 24.2917 32 20.2738 32 16C32 11.7262 30.3357 7.70825 27.3137 4.68625ZM16 30.125C8.21144 30.125 1.875 23.7886 1.875 16C1.875 8.21144 8.21144 1.875 16 1.875C23.7886 1.875 30.125 8.21144 30.125 16C30.125 23.7886 23.7886 30.125 16 30.125Z" fill="url(#paint0_linear_0_4781)"/>
<path d="M18.4281 8H13.4072C12.8895 8 12.4697 8.41975 12.4697 8.9375V16.0333H11.3989C10.8812 16.0333 10.4614 16.4531 10.4614 16.9708C10.4614 17.4886 10.8812 17.9083 11.3989 17.9083H12.4697V20.05H11.3989C10.8812 20.05 10.4614 20.4698 10.4614 20.9875C10.4614 21.5053 10.8812 21.925 11.3989 21.925H12.4697V24C12.4697 24.5177 12.8895 24.9375 13.4072 24.9375C13.925 24.9375 14.3447 24.5177 14.3447 24V21.925H18.4281C18.9459 21.925 19.3656 21.5053 19.3656 20.9875C19.3656 20.4698 18.9459 20.05 18.4281 20.05H14.3447V17.9083H18.4281C21.1599 17.9083 23.3823 15.6859 23.3823 12.9541C23.3822 10.1549 21.102 8 18.4281 8ZM18.4281 16.0333H14.3447V9.875H18.4281C20.1157 9.875 21.5073 11.2362 21.5073 12.9542C21.5072 14.6521 20.126 16.0333 18.4281 16.0333Z" fill="url(#paint1_linear_0_4781)"/>
<defs>
<linearGradient id="paint0_linear_0_4781" x1="1.12" y1="-1.77479e-07" x2="23.2" y2="32" gradientUnits="userSpaceOnUse">
<stop offset="0.0019141" stop-color="#10DF10"/>
<stop offset="1" stop-color="#008100"/>
</linearGradient>
<linearGradient id="paint1_linear_0_4781" x1="10.9137" y1="8" x2="23.3517" y2="21.7513" gradientUnits="userSpaceOnUse">
<stop offset="0.0019141" stop-color="#10DF10"/>
<stop offset="1" stop-color="#008100"/>
</linearGradient>
</defs>
</svg>
