<svg width="32" height="32" viewBox="0 0 32 32" fill="none" xmlns="http://www.w3.org/2000/svg">
<path d="M28.425 3H3.7C1.69375 3 0.0625 4.6 0.0625 6.5625V26.3125C0.0625 28.3125 1.73125 30 3.7 30H28.425C30.3625 30 31.9375 28.3438 31.9375 26.3125V6.5625C31.9375 4.5625 30.3937 3 28.425 3ZM30 26.3125C30 26.9688 28.9812 28 28.425 28H3.7C3.10625 28 2 26.9312 2 26.3125V6.5625C2 5.975 3.075 5 3.7 5H28.425C29.0187 5 30 5.9375 30 6.5625V26.3125Z" fill="url(#paint0_linear_0_4790)"/>
<path d="M22.2297 17.4553L20.1421 17.4235L18.8911 12.6245C18.8012 12.2752 18.5001 12.0251 18.1405 12.0013C17.7847 11.9814 17.4563 12.1918 17.3234 12.5292L15.1302 18.1658L13.891 15.1967C13.7659 14.895 13.4766 14.6965 13.1521 14.6846C12.8276 14.6767 12.5305 14.8593 12.3897 15.157L11.3538 17.36L9.75872 17.4116C9.32868 17.4235 8.98857 17.7927 9.00029 18.2293C9.01202 18.666 9.3756 19.0113 9.80563 18.9994L11.8502 18.9359H11.8581C12.163 18.924 12.4328 18.7414 12.5657 18.4675L13.0895 17.3521L14.3953 20.476C14.5282 20.7936 14.8253 21 15.1537 21H15.1654C15.4977 20.996 15.7948 20.7817 15.9238 20.4562L17.9528 15.2404L18.7738 18.3802C18.8637 18.7295 19.1765 18.9875 19.5322 19.0034L22.2063 19.047H22.218C22.6441 19.047 22.9921 18.7017 22.9999 18.2651C23.0077 17.8245 22.6637 17.4632 22.2297 17.4553Z" fill="url(#paint1_linear_0_4790)"/>
<defs>
<linearGradient id="paint0_linear_0_4790" x1="1.17813" y1="3" x2="18.5408" y2="32.7067" gradientUnits="userSpaceOnUse">
<stop offset="0.0019141" stop-color="#10DF10"/>
<stop offset="1" stop-color="#008100"/>
</linearGradient>
<linearGradient id="paint1_linear_0_4790" x1="9.49" y1="12" x2="14.414" y2="23.1008" gradientUnits="userSpaceOnUse">
<stop offset="0.0019141" stop-color="#10DF10"/>
<stop offset="1" stop-color="#008100"/>
</linearGradient>
</defs>
</svg>
