<svg width="32" height="32" viewBox="0 0 32 32" fill="none" xmlns="http://www.w3.org/2000/svg">
<g clip-path="url(#clip0_0_4786)">
<path fill-rule="evenodd" clip-rule="evenodd" d="M0 -0.000488281H32.0006V32.0002H0V-0.000488281Z" fill="white"/>
<path d="M15.0627 0L14.5979 0.0399292L3.37899 1.00912L0 12.3306L16.9462 32L32 19.6606L15.0627 0ZM14.2932 1.82092L29.4776 19.447L17.1652 29.5384L1.98717 11.9223L4.75669 2.64396L14.2932 1.82092ZM7.75926 4.04278C7.18815 4.04449 6.64434 4.24498 6.21507 4.58857L6.21047 4.59309L6.20359 4.59754C5.18607 5.43736 5.05574 6.94498 5.90907 7.93468C5.90942 7.93468 5.90976 7.93471 5.91048 7.93639C6.76687 8.93502 8.31576 9.0571 9.33426 8.2274L9.33567 8.22569L9.33799 8.22343C10.3548 7.3859 10.4904 5.87877 9.62991 4.88383C9.16539 4.34366 8.48058 4.03482 7.75922 4.04326L7.75926 4.04278ZM7.76386 5.78754H7.77077H7.77769C7.95462 5.7853 8.13816 5.86515 8.25909 6.00609L8.26049 6.0078L8.2619 6.00952C8.48876 6.27162 8.45263 6.66278 8.18252 6.88748C7.8979 7.11736 7.51578 7.08612 7.28365 6.81502L7.28133 6.8133L7.27993 6.81104C7.04909 6.5444 7.07747 6.17231 7.35794 5.93678C7.48425 5.83803 7.62317 5.78823 7.76382 5.78823L7.76386 5.78754ZM24.2056 17.7922C24.004 17.794 23.8093 17.8625 23.6525 17.9857C23.6525 17.9857 22.0386 19.2215 20.3426 20.5135C18.6467 21.8054 16.7809 23.2131 16.5654 23.3623C15.591 24.0367 16.6282 25.4617 17.6025 24.7873C18.0533 24.4753 19.7471 23.1834 21.4451 21.8898C23.1431 20.5963 24.7575 19.3607 24.7575 19.3607C25.4436 18.8514 25.0678 17.7832 24.2056 17.7921V17.7922Z" fill="url(#paint0_linear_0_4786)"/>
</g>
<defs>
<linearGradient id="paint0_linear_0_4786" x1="1.12" y1="-1.77479e-07" x2="23.2" y2="32" gradientUnits="userSpaceOnUse">
<stop offset="0.0019141" stop-color="#10DF10"/>
<stop offset="1" stop-color="#008100"/>
</linearGradient>
<clipPath id="clip0_0_4786">
<rect width="32" height="32" fill="white"/>
</clipPath>
</defs>
</svg>
