<?xml version="1.0" encoding="utf-8"?><svg viewBox="0 0 330 330" xmlns="http://www.w3.org/2000/svg" xmlns:xlink="http://www.w3.org/1999/xlink"><style>:root>svg{display:none}:root>svg:target{display:block}</style><svg viewBox="0 0 80 81" id="advantage1" xmlns="http://www.w3.org/2000/svg"><path fill-rule="evenodd" clip-rule="evenodd" d="M7.073 6.57l-3.595 3.604a1.566 1.566 0 01-2.218 0 1.575 1.575 0 010-2.223l6.272-6.288a1.565 1.565 0 012.218 0l6.272 6.288c.612.613.612 1.61 0 2.223a1.566 1.566 0 01-2.218 0L10.209 6.57v63.796h63.638l-3.595-3.604a1.575 1.575 0 010-2.223 1.566 1.566 0 012.218 0l6.272 6.287a1.575 1.575 0 010 2.223l-6.272 6.288a1.566 1.566 0 01-2.218 0 1.575 1.575 0 010-2.223l3.595-3.604H10.21v4.715a1.57 1.57 0 01-1.568 1.572 1.57 1.57 0 01-1.568-1.572V73.51H2.369A1.57 1.57 0 01.8 71.938a1.57 1.57 0 011.568-1.572h4.704V6.57zm58.045 11.894a3.14 3.14 0 00-3.136-3.144H18.02a3.14 3.14 0 00-3.136 3.144v44.072a3.14 3.14 0 003.136 3.144h43.963a3.14 3.14 0 003.136-3.144V18.464z"/></svg><svg viewBox="0 0 78 80" id="advantage2" xmlns="http://www.w3.org/2000/svg"><path fill-rule="evenodd" clip-rule="evenodd" d="M21.613 17l4.29 48.691c.129 1.468 1.462 2.564 2.965 2.438l26.727-2.246-23.938 13.57c-1.305.74-2.99.304-3.746-.97L.369 32.139c-.758-1.275-.31-2.92.994-3.66L21.613 17z"/><g clip-path="url(#bclip0_0_654)"><path d="M69.441 15.79L55.415 4.25a1.254 1.254 0 00-.92-.28l-28.56 2.4c-1.503.126-2.624 1.428-2.495 2.896l4.702 53.387c.13 1.468 1.463 2.564 2.966 2.438l40.007-3.362c1.504-.126 2.625-1.428 2.496-2.896l-3.719-42.218a1.191 1.191 0 00-.45-.825zM53.43 38.444c-.18.249-.338.46-.497.658-1.283 1.623-3.12 2.677-4.887 2.826-1.14.096-2.186-.174-3.034-.78l-.31-.221c-.94.93-1.677 2.014-2.201 3.23-.13.299-.375.536-.683.661a1.3 1.3 0 01-.962.006 1.229 1.229 0 01-.684-1.606 12.537 12.537 0 012.47-3.757c-2.175-1.629-2.327-5.08-.368-7.906.146-.21.315-.433.484-.669 4.445-5.981 12.377-7.609 12.712-7.674a1.255 1.255 0 011.328.576c.089.148.145.312.166.482.041.329.91 8.193-3.534 14.174z"/><path d="M62.615 34.5c0 7.456-6.199 13.5-13.846 13.5s-13.846-6.044-13.846-13.5S41.123 21 48.77 21c7.647 0 13.846 6.044 13.846 13.5z"/></g><defs><clipPath id="bclip0_0_654"><path transform="matrix(.99649 -.08373 .08775 .99614 20.492 4.361)" d="M0 0h52.088v63.861H0z"/></clipPath></defs></svg><svg viewBox="0 0 80 81" id="advantage3" xmlns="http://www.w3.org/2000/svg"><path d="M53.726 55.402c-1.569 3.406-7.163 5.925-13.825 5.925-6.627 0-12.198-2.494-13.8-5.873C13.687 59.195 5 67.797 5 77.81l.001.19h69.998l.001-.19c0-10.06-8.767-18.694-21.274-22.408zM21.551 33.413c.638 12.242 8.568 21.919 18.257 21.919 9.689 0 17.619-9.677 18.256-21.92H21.551zM35.32 4c-.523 0-.996.31-1.204.788l-.293.673 1.198 6.784a1.032 1.032 0 01-2.033.358l-.927-5.249c-6.74 3.05-11.453 9.96-11.489 18.003h-1.126a2.438 2.438 0 00-2.44 2.435 2.438 2.438 0 002.44 2.436H60.17c1.347 0 2.44-1.09 2.44-2.436a2.438 2.438 0 00-2.44-2.435h-1.127c-.036-8.129-4.85-15.098-11.703-18.098l-.944 5.344a1.032 1.032 0 01-2.033-.357l1.199-6.786a.64.64 0 01.014-.066l-.264-.606A1.314 1.314 0 0044.107 4h-8.786z"/></svg><svg viewBox="0 0 80 81" id="advantage4" xmlns="http://www.w3.org/2000/svg"><path d="M33.032 65.145L22.854 78.709a.73.73 0 01-.742.273.728.728 0 01-.553-.566l-2.703-12.94-13.14.957a.751.751 0 01-.69-.381.735.735 0 01.059-.792l8.53-11.372 3.619 2.097c.14.08.255.197.335.337l2.274 3.947a8.24 8.24 0 003.003 3.013 8.196 8.196 0 004.1 1.106h4.543c.16.004.317.04.463.104.374.193.735.411 1.08.653zm41.886.115l-8.546-11.39-3.646 2.117a.908.908 0 00-.332.333l-2.273 3.954a8.24 8.24 0 01-3.004 3.012 8.197 8.197 0 01-4.1 1.107h-4.543a.909.909 0 00-.455.122l-1.057.613 10.19 13.582a.74.74 0 00.742.274.729.729 0 00.555-.565l2.698-12.943 13.175.957a.727.727 0 00.736-.795.733.733 0 00-.143-.376l.003-.002zM60.685 33.483a20.86 20.86 0 01-3.49 11.553 20.727 20.727 0 01-9.294 7.66 20.627 20.627 0 01-11.964 1.183 20.68 20.68 0 01-10.603-5.691 20.824 20.824 0 01-5.667-10.648 20.878 20.878 0 011.178-12.016 20.777 20.777 0 017.627-9.333 20.646 20.646 0 0111.505-3.504 20.684 20.684 0 0114.637 6.097 20.862 20.862 0 016.07 14.699zm-6.538-4.447a3.647 3.647 0 00-1.105-1.66 3.624 3.624 0 00-1.811-.826l-5.481-.844-2.491-4.98a3.655 3.655 0 00-1.344-1.472 3.634 3.634 0 00-5.171 1.473l-2.49 4.979-5.481.844a3.64 3.64 0 00-1.81.829 3.662 3.662 0 00-1.182 3.656c.16.66.5 1.262.98 1.739l3.94 3.916-.898 5.492a3.658 3.658 0 001.458 3.556 3.664 3.664 0 003.815.293l4.926-2.557 4.922 2.554a3.666 3.666 0 003.822-.289 3.657 3.657 0 001.455-3.557l-.899-5.492 3.944-3.917a3.651 3.651 0 00.901-3.737zm-6.825 13.623l-1.141-6.99 5.014-4.978a.733.733 0 00-.403-1.245l-6.972-1.07-3.166-6.331a.732.732 0 00-.652-.404.726.726 0 00-.651.404l-3.167 6.329-6.974 1.07a.728.728 0 00-.583.499.734.734 0 00.18.747l5.015 4.98-1.141 6.99a.735.735 0 00.292.71.733.733 0 00.764.059l6.265-3.251 6.265 3.249a.722.722 0 00.888-.179.739.739 0 00.167-.589zm23.304-6.522l-2.271 3.954a3.862 3.862 0 00-.51 1.922v4.562a5.343 5.343 0 01-.71 2.653 5.314 5.314 0 01-1.934 1.944l-3.937 2.28a3.832 3.832 0 00-1.4 1.409l-2.273 3.95a5.312 5.312 0 01-1.936 1.942 5.282 5.282 0 01-2.642.713h-4.542a3.82 3.82 0 00-1.914.512l-3.938 2.282a5.285 5.285 0 01-5.286 0l-3.937-2.28a3.812 3.812 0 00-1.914-.513h-4.543a5.282 5.282 0 01-2.642-.714 5.31 5.31 0 01-1.936-1.94l-2.265-3.956a3.848 3.848 0 00-1.402-1.408l-3.937-2.28a5.315 5.315 0 01-1.933-1.944 5.344 5.344 0 01-.71-2.653V42.01a3.86 3.86 0 00-.51-1.922l-2.271-3.955a5.341 5.341 0 010-5.309l2.271-3.954c.335-.584.51-1.247.51-1.921v-4.562a5.341 5.341 0 01.71-2.653 5.312 5.312 0 011.934-1.944l3.937-2.281a3.832 3.832 0 001.4-1.402l2.272-3.95a5.311 5.311 0 011.936-1.94 5.282 5.282 0 012.642-.714h4.542c.672 0 1.332-.176 1.914-.513l3.937-2.281a5.285 5.285 0 015.286 0l3.938 2.28a3.817 3.817 0 001.914.513h4.543a5.282 5.282 0 012.642.713 5.31 5.31 0 011.935 1.942l2.272 3.95c.336.585.82 1.07 1.401 1.408l3.937 2.28a5.312 5.312 0 011.933 1.945 5.34 5.34 0 01.71 2.653v4.562c0 .674.176 1.337.511 1.921l2.27 3.954a5.341 5.341 0 01-.004 5.307zm-7.025-2.654a23.8 23.8 0 00-3.98-13.181 23.647 23.647 0 00-10.603-8.739 23.533 23.533 0 00-13.65-1.35 23.595 23.595 0 00-12.096 6.493 23.756 23.756 0 00-6.466 12.148 23.82 23.82 0 001.345 13.708 23.704 23.704 0 008.7 10.647 23.553 23.553 0 0013.126 3.999 23.597 23.597 0 0016.698-6.956 23.8 23.8 0 006.927-16.77z"/></svg><svg viewBox="0 0 80 81" id="advantage5" xmlns="http://www.w3.org/2000/svg"><path d="M68.016 49.34a8.61 8.61 0 01-1.397 4.71 8.332 8.332 0 01-3.72 3.12 8.123 8.123 0 01-4.791.483 8.238 8.238 0 01-4.245-2.32 8.535 8.535 0 01-2.27-4.338 8.65 8.65 0 01.472-4.897 8.438 8.438 0 013.054-3.804 8.164 8.164 0 014.606-1.428 8.21 8.21 0 015.86 2.485 8.58 8.58 0 012.431 5.99zM54.57 60.448v8.867c0 .223.057.441.165.634.108.193.263.354.45.467a1.23 1.23 0 001.24.017l2.393-1.354a1.843 1.843 0 011.816 0l2.392 1.354a1.23 1.23 0 001.24-.017 1.26 1.26 0 00.45-.467 1.3 1.3 0 00.165-.634v-8.866a11.675 11.675 0 01-5.155 1.201c-1.785 0-3.548-.41-5.156-1.202zM75.1 11.277v49.004c0 .338-.132.663-.366.903-.234.24-.552.374-.884.374h-5.225v-3.96a12.345 12.345 0 003.138-8.255c.004-2-.468-3.972-1.377-5.744a12.221 12.221 0 00-3.838-4.425 11.88 11.88 0 00-5.415-2.082 11.796 11.796 0 00-5.74.74 12.04 12.04 0 00-4.739 3.39 12.405 12.405 0 00-2.644 5.26 12.57 12.57 0 00.062 5.914 12.39 12.39 0 002.753 5.201v3.961H6.25c-.332 0-.65-.134-.884-.374A1.292 1.292 0 015 60.281V11.278c0-.34.132-.664.366-.904.235-.24.552-.374.884-.374h67.6c.332 0 .65.135.884.374.234.24.366.565.366.904zm-48.362 9.035a1.95 1.95 0 00.548 1.356 1.852 1.852 0 001.327.56h22.874c.498 0 .975-.202 1.326-.561.352-.36.55-.847.55-1.355a1.94 1.94 0 00-.55-1.356 1.854 1.854 0 00-1.326-.561H28.612a1.838 1.838 0 00-1.326.56 1.95 1.95 0 00-.548 1.356zm16.987 26.117a1.95 1.95 0 00-.548-1.356 1.87 1.87 0 00-.61-.415 1.836 1.836 0 00-.717-.145H13.837c-.497 0-.974.202-1.325.561-.352.36-.55.847-.55 1.355 0 .509.198.996.55 1.356.351.36.828.561 1.325.561H41.85a1.838 1.838 0 001.327-.56 1.95 1.95 0 00.548-1.356zm2.563-8.701a1.95 1.95 0 00-.549-1.356 1.838 1.838 0 00-1.327-.56H13.838c-.497 0-.974.201-1.325.56a1.94 1.94 0 00-.55 1.356c0 .508.198.996.55 1.355.351.36.828.561 1.325.561h30.576c.246 0 .49-.049.717-.145a1.87 1.87 0 00.61-.415 1.95 1.95 0 00.548-1.356zm21.85-8.715a1.944 1.944 0 00-.551-1.353 1.86 1.86 0 00-1.325-.563H13.838c-.497 0-.974.202-1.325.561-.352.36-.55.847-.55 1.355 0 .509.198.996.55 1.356.351.36.828.561 1.325.561h52.426a1.838 1.838 0 001.326-.56 1.95 1.95 0 00.548-1.356z"/></svg><svg viewBox="0 0 80 81" id="advantage6" xmlns="http://www.w3.org/2000/svg"><path d="M62 3H17C8.75 3 2 9.75 2 18v45c0 8.25 6.75 15 15 15h44.999c8.251 0 15-6.75 15-15V18C77 9.75 70.251 3 62 3zM37.264 17.066v-4.687L50.5 20.018l-13.237 7.639v-4.448A17.467 17.467 0 0025.2 30.517l-5.028-3.514c3.983-5.692 10.26-9.282 17.09-9.937zM16.062 42.74h-4.687l7.64-13.236 7.638 13.236h-4.447a17.47 17.47 0 007.307 12.064L26 59.832c-5.692-3.985-9.28-10.261-9.936-17.092zm25.68 21.193v4.688l-13.234-7.64 13.233-7.639v4.45a17.513 17.513 0 0012.063-7.302l5.024 3.516c-3.988 5.687-10.257 9.272-17.087 9.927zm18.244-12.432l-7.64-13.237H56.8a17.515 17.515 0 00-7.314-12.07l3.52-5.021a23.6 23.6 0 019.931 17.09h4.688l-7.64 13.238z"/></svg><svg viewBox="0 0 80 81" id="advantage7" xmlns="http://www.w3.org/2000/svg"><path fill-rule="evenodd" clip-rule="evenodd" d="M16.082 58.182h-2.839c-4.014 0-7.272-3.296-7.272-7.363V26.273c0-1.953.766-3.826 2.13-5.206a7.227 7.227 0 015.142-2.157h33.94c1.93 0 3.78.775 5.144 2.157a7.41 7.41 0 012.129 5.206v2.455h2.909a12.05 12.05 0 018.36 3.385l5.89 5.68a7.34 7.34 0 012.235 5.284v10.741c0 2.41-1.93 4.364-4.31 4.364h-5.802c-.999 2.86-3.692 4.91-6.858 4.91-3.164 0-5.857-2.05-6.858-4.91H29.799c-1 2.86-3.692 4.91-6.859 4.91-3.163 0-5.857-2.05-6.858-4.91zm6.858-4.909c1.339 0 2.425 1.1 2.425 2.455s-1.086 2.454-2.425 2.454c-1.335 0-2.424-1.1-2.424-2.454 0-1.355 1.089-2.455 2.424-2.455zm33.94 0c1.338 0 2.424 1.1 2.424 2.455s-1.086 2.454-2.424 2.454c-1.336 0-2.425-1.1-2.425-2.454 0-1.355 1.089-2.455 2.425-2.455zM42.334 38.546H18.092c-1.336 0-2.424 1.1-2.424 2.455s1.088 2.454 2.424 2.454h24.242c1.338 0 2.425-1.1 2.425-2.454 0-1.355-1.087-2.455-2.425-2.455zm0-7.364H22.94c-1.335 0-2.424 1.1-2.424 2.455s1.089 2.455 2.424 2.455h19.394c1.338 0 2.425-1.1 2.425-2.455s-1.087-2.455-2.425-2.455z"/></svg><svg viewBox="0 0 114 81" id="advantage8" xmlns="http://www.w3.org/2000/svg"><path d="M69.003 53.54c-1.424 3.083-6.5 5.364-12.546 5.364-6.015 0-11.071-2.258-12.525-5.317-11.267 3.387-19.15 11.175-19.15 20.241V74H88.31v-.172c0-9.108-7.955-16.926-19.307-20.288zm-29.2-19.91c.578 11.085 7.775 19.846 16.569 19.846 8.793 0 15.99-8.761 16.568-19.846H39.803zM52.3 7c-.475 0-.905.28-1.094.714l-.266.609 1.088 6.143a.937.937 0 01-1.845.324l-.842-4.753c-6.117 2.762-10.394 9.017-10.427 16.3h-1.022a2.21 2.21 0 00-2.214 2.205 2.21 2.21 0 002.214 2.205h36.96a2.21 2.21 0 002.214-2.205 2.21 2.21 0 00-2.215-2.205H73.83c-.033-7.36-4.4-13.67-10.621-16.386l-.857 4.838a.937.937 0 01-1.845-.323l1.088-6.145a.893.893 0 01.012-.06l-.239-.547A1.192 1.192 0 0060.274 7h-7.975zM24.378 54.081c6.46 0 11.698-7.5 11.698-16.75s-5.238-16.75-11.698-16.75-11.697 7.5-11.697 16.75 5.237 16.75 11.697 16.75z"/><path d="M33.323 53.437c-.976 2.416-4.457 4.204-8.603 4.204-4.124 0-7.591-1.77-8.588-4.168C8.406 56.128 3 62.233 3 69.338v.135h19.934c.828-3.862 4.273-10.625 12.887-15.035a24.317 24.317 0 00-2.498-1.001z"/><path d="M38.612 55.987a1.356 1.356 0 01-.45.334c-8.237 3.795-11.513 9.812-12.427 13.152h20.827l.001-.135c0-5.377-3.096-10.181-7.95-13.35zm50.203-1.906c6.46 0 11.698-7.5 11.698-16.75s-5.238-16.75-11.698-16.75-11.697 7.5-11.697 16.75 5.237 16.75 11.697 16.75z"/><path d="M97.76 53.437c-.976 2.416-4.458 4.204-8.603 4.204-4.124 0-7.591-1.77-8.588-4.168-.928.32-1.823.688-2.679 1.102 8.42 4.412 11.804 11.076 12.623 14.898h20.486l.001-.135c0-7.138-5.456-13.266-13.24-15.901z"/><path d="M87.712 69.473c-.915-3.34-4.19-9.357-12.427-13.152a1.366 1.366 0 01-.214-.123c-4.672 3.17-7.634 7.88-7.634 13.14v.135h20.275z"/></svg><svg viewBox="0 0 25 20" id="basket" xmlns="http://www.w3.org/2000/svg"><path d="M24.946 4.874l-2.908 9.238c-.217.657-.788 1.096-1.467 1.096H9.348c-.652 0-1.277-.411-1.495-1.014L3.56 2.599H1.087A1.095 1.095 0 010 1.503C0 .9.49.406 1.087.406h3.234c.462 0 .87.302 1.032.74l4.43 11.87h10.326l2.31-7.402h-12.8a1.095 1.095 0 01-1.086-1.096c0-.603.489-1.096 1.087-1.096h14.293c.353 0 .68.191.87.466.217.274.271.657.163.986zM9.89 16.661c-.462 0-.924.192-1.25.52a1.816 1.816 0 00-.516 1.261c0 .466.19.932.516 1.261.326.33.788.521 1.25.521.462 0 .924-.192 1.25-.52.326-.33.517-.796.517-1.262 0-.466-.19-.931-.517-1.26a1.784 1.784 0 00-1.25-.521zm9.756 0c-.462 0-.924.192-1.25.52a1.816 1.816 0 00-.517 1.261c0 .466.19.932.517 1.261.326.33.788.521 1.25.521.462 0 .924-.192 1.25-.52a1.82 1.82 0 00.516-1.262c0-.466-.19-.931-.516-1.26a1.784 1.784 0 00-1.25-.521z"/></svg><svg viewBox="0 0 40 40" id="clipboard_file" xmlns="http://www.w3.org/2000/svg"><path d="M2.043 40h27.58a2.046 2.046 0 002.044-2.043v-8.79a.834.834 0 00-1.667 0v8.79c0 .206-.17.376-.377.376H2.043a.378.378 0 01-.376-.376V3.71c0-.207.17-.377.376-.377h3.11A2.495 2.495 0 007.5 5h16.667a2.495 2.495 0 002.346-1.667h3.11c.207 0 .377.17.377.377v6.398a.834.834 0 001.667 0V3.71a2.046 2.046 0 00-2.044-2.043h-3.11A2.495 2.495 0 0024.167 0H7.5a2.495 2.495 0 00-2.347 1.667h-3.11A2.046 2.046 0 000 3.71v34.248C0 39.083.917 40 2.043 40zM7.5 1.667h16.667c.46 0 .833.375.833.833a.835.835 0 01-.833.833H7.5a.835.835 0 01-.833-.833c0-.458.373-.833.833-.833z"/><path d="M25 12.5a.834.834 0 00-.833-.834H7.5a.834.834 0 000 1.667h16.667c.46 0 .833-.373.833-.833zm-4.523 8.333a.834.834 0 00-.833-.833H7.5a.834.834 0 000 1.667h12.144a.833.833 0 00.833-.834zM7.5 28.334A.834.834 0 007.5 30h8.334a.834.834 0 000-1.666H7.5zm15 .833c.074 0 .149-.01.222-.03l3.863-1.065a.826.826 0 00.369-.215l12.223-12.225a2.818 2.818 0 000-3.977c-1.062-1.061-2.915-1.061-3.977 0L22.977 23.88a.84.84 0 00-.213.369l-1.065 3.861a.832.832 0 00.213.81c.157.16.37.247.588.247zm1.81-4.264l12.07-12.067a1.172 1.172 0 011.62 0 1.147 1.147 0 010 1.62L25.93 26.523l-2.235.617.615-2.236z"/><defs><linearGradient id="jpaint0_linear_0_4939" x1="1.108" y1="0" x2="30.354" y2="33.554" gradientUnits="userSpaceOnUse"><stop offset=".002" stop-color="#10DF10"/><stop offset="1" stop-color="#008100"/></linearGradient><linearGradient id="jpaint1_linear_0_4939" x1="7.309" y1="11.666" x2="7.462" y2="14.117" gradientUnits="userSpaceOnUse"><stop offset=".002" stop-color="#10DF10"/><stop offset="1" stop-color="#008100"/></linearGradient><linearGradient id="jpaint2_linear_0_4939" x1="7.15" y1="20" x2="7.354" y2="22.443" gradientUnits="userSpaceOnUse"><stop offset=".002" stop-color="#10DF10"/><stop offset="1" stop-color="#008100"/></linearGradient><linearGradient id="jpaint3_linear_0_4939" x1="7.017" y1="28.334" x2="7.296" y2="30.762" gradientUnits="userSpaceOnUse"><stop offset=".002" stop-color="#10DF10"/><stop offset="1" stop-color="#008100"/></linearGradient><linearGradient id="jpaint4_linear_0_4939" x1="22.31" y1="10.859" x2="34.937" y2="29.181" gradientUnits="userSpaceOnUse"><stop offset=".002" stop-color="#10DF10"/><stop offset="1" stop-color="#008100"/></linearGradient></defs></svg><svg viewBox="0 0 14 14" id="close" xmlns="http://www.w3.org/2000/svg"><path d="M14 1.41L12.59 0 7 5.59 1.41 0 0 1.41 5.59 7 0 12.59 1.41 14 7 8.41 12.59 14 14 12.59 8.41 7 14 1.41z"/></svg><svg viewBox="0 0 24 24" id="comparison" xmlns="http://www.w3.org/2000/svg"><path d="M11 2H9v20h2V2zM6 12H4v10h2V12zm10-4h-2v14h2V8zm5-4.333h-2V22h2V3.667z"/></svg><svg viewBox="0 0 24 24" id="delete" xmlns="http://www.w3.org/2000/svg"><path d="M16.382 22.345H7.618a2.475 2.475 0 01-2.47-2.236L3.727 5.875a.826.826 0 01.823-.91h14.897a.827.827 0 01.823.91l-1.419 14.233a2.475 2.475 0 01-2.47 2.237zM5.465 6.62l1.33 13.323a.826.826 0 00.823.746h8.764a.826.826 0 00.823-.746l1.33-13.323H5.464z"/><path d="M21.517 6.62H2.483a.828.828 0 110-1.654h19.034a.828.828 0 110 1.655zM12 19.036a.827.827 0 01-.828-.828V9.104a.828.828 0 011.656 0v9.103a.828.828 0 01-.828.828zm-2.897 0a.828.828 0 01-.824-.754l-.827-9.103a.828.828 0 111.648-.15l.828 9.104a.828.828 0 01-.825.902zm5.795 0a.826.826 0 01-.826-.902L14.9 9.03a.832.832 0 01.9-.75.828.828 0 01.748.899l-.827 9.103a.828.828 0 01-.823.754z"/><path d="M15.724 6.62H8.276a.828.828 0 01-.828-.827v-3.31a.828.828 0 01.828-.828h7.448a.828.828 0 01.828.828v3.31a.828.828 0 01-.828.828zm-6.62-1.655h5.793V3.31H9.102v1.655z"/></svg><svg viewBox="0 0 330 330" id="dropdown-arrow" xmlns="http://www.w3.org/2000/svg"><path d="M325.607 79.393c-5.857-5.857-15.355-5.858-21.213.001l-139.39 139.393L25.607 79.393c-5.857-5.857-15.355-5.858-21.213.001-5.858 5.858-5.858 15.355 0 21.213l150.004 150a14.999 14.999 0 0021.212-.001l149.996-150c5.859-5.857 5.859-15.355.001-21.213z"/></svg><svg viewBox="0 0 24 24" id="eye" xmlns="http://www.w3.org/2000/svg"><path d="M12.001 19.031c-1.434 0-2.915-.356-4.406-1.054-1.167-.549-2.344-1.308-3.497-2.26C2.153 14.11.953 12.516.901 12.45a.745.745 0 010-.9c.052-.066 1.252-1.66 3.197-3.267 1.153-.952 2.33-1.711 3.497-2.26C9.085 5.325 10.567 4.97 12 4.97c1.434 0 2.916.356 4.406 1.054 1.168.549 2.344 1.308 3.497 2.26 1.946 1.608 3.15 3.201 3.197 3.267a.746.746 0 010 .9c-.051.066-1.251 1.66-3.197 3.267-1.153.952-2.33 1.711-3.497 2.26-1.49.698-2.972 1.054-4.406 1.054zM2.467 12c1.176 1.392 5.062 5.531 9.534 5.531 4.481 0 8.358-4.139 9.534-5.531-1.176-1.392-5.062-5.531-9.534-5.531-4.481 0-8.358 4.139-9.534 5.531z"/><path d="M12 15.375A3.379 3.379 0 018.625 12 3.379 3.379 0 0112 8.625 3.379 3.379 0 0115.375 12 3.379 3.379 0 0112 15.375zm0-5.25a1.875 1.875 0 100 3.75 1.875 1.875 0 000-3.75z"/></svg><svg viewBox="0 0 24 24" id="heart" xmlns="http://www.w3.org/2000/svg"><path d="M21.223 3.857a5.94 5.94 0 00-4.305-1.843c-1.628 0-3.157.656-4.31 1.848l-.601.622-.611-.632C10.244 2.66 8.71 2 7.082 2a5.948 5.948 0 00-4.3 1.842A6.345 6.345 0 001 8.3c0 1.683.639 3.26 1.791 4.45l8.759 9.058a.623.623 0 00.443.193.618.618 0 00.443-.188l8.778-9.043A6.37 6.37 0 0023 8.313a6.341 6.341 0 00-1.777-4.456zm-.895 7.991l-8.335 8.585-8.316-8.6A5.052 5.052 0 012.26 8.3c0-1.336.5-2.59 1.413-3.53a4.716 4.716 0 016.833.004l1.054 1.09a.613.613 0 00.891 0l1.045-1.08a4.73 4.73 0 013.418-1.466c1.288 0 2.5.52 3.415 1.46a5.047 5.047 0 011.413 3.536 5.027 5.027 0 01-1.413 3.535z"/></svg><svg viewBox="0 0 24 24" id="interface" xmlns="http://www.w3.org/2000/svg"><path fill-rule="evenodd" clip-rule="evenodd" d="M4.5 2.435v19.13h16V2.435h-16zM4 1c-.552 0-1 .428-1 .957v20.087c0 .528.448.956 1 .956h17c.552 0 1-.428 1-.956V1.957C22 1.428 21.552 1 21 1H4z"/><path fill-rule="evenodd" clip-rule="evenodd" d="M18 7.457H7V6.022h11v1.435zm0 3.826H7V9.848h11v1.435zm0 3.826H7v-1.435h11v1.435z"/></svg><svg viewBox="0 0 9 17" id="next-page" xmlns="http://www.w3.org/2000/svg"><path fill-rule="evenodd" clip-rule="evenodd" d="M6.126 8.412L.375 2.022 1.862.684l6.955 7.728-6.955 7.728-1.487-1.338 5.75-6.39z"/></svg><svg viewBox="0 0 20 20" id="person" xmlns="http://www.w3.org/2000/svg"><path fill-rule="evenodd" clip-rule="evenodd" d="M10 12c3.785 0 6.958 2.214 7.784 6H2.216c.826-3.786 3.999-6 7.784-6zM6 6c0-2.206 1.794-4 4-4s4 1.794 4 4-1.794 4-4 4-4-1.794-4-4zm7.758 4.673A5.983 5.983 0 0016 6a6 6 0 10-9.758 4.673C2.583 12.048 0 15.445 0 20h20c0-4.555-2.583-7.952-6.242-9.327z"/></svg><svg viewBox="0 0 18 18" id="plus" xmlns="http://www.w3.org/2000/svg"><path d="M14.25 8.25h-4.5v-4.5a.75.75 0 00-1.5 0v4.5h-4.5a.75.75 0 000 1.5h4.5v4.5a.75.75 0 101.5 0v-4.5h4.5a.75.75 0 100-1.5z"/><defs><linearGradient id="tpaint0_linear_0_6384" x1="3.42" y1="3" x2="11.7" y2="15" gradientUnits="userSpaceOnUse"><stop offset=".002" stop-color="#10DF10"/><stop offset="1" stop-color="#008100"/></linearGradient></defs></svg><svg viewBox="0 0 9 17" id="prev-page" xmlns="http://www.w3.org/2000/svg"><path fill-rule="evenodd" clip-rule="evenodd" d="M2.992 8.412l5.751-6.39L7.257.684.302 8.412l6.955 7.728 1.486-1.338-5.75-6.39z"/></svg><svg viewBox="0 0 24 24" id="review" xmlns="http://www.w3.org/2000/svg"><path fill-rule="evenodd" clip-rule="evenodd" d="M2.5 2.53v15.785h6.117c.67 0 1.312.274 1.782.761l2.101 2.177 2.101-2.177a2.476 2.476 0 011.782-.761H21.5V2.53h-19zM22 1c.552 0 1 .457 1 1.02v16.805a1.01 1.01 0 01-1 1.02h-5.617a.99.99 0 00-.713.304l-2.457 2.546a.986.986 0 01-1.426 0L9.33 20.15a.99.99 0 00-.713-.304H2c-.552 0-1-.457-1-1.02V2.02C1 1.457 1.448 1 2 1h20z"/><path fill-rule="evenodd" clip-rule="evenodd" d="M12 6.085l-.8 1.618a2.325 2.325 0 01-1.674 1.276l-1.664.29 1.218 1.353c.467.519.694 1.227.62 1.937l-.2 1.905 1.423-.787a2.215 2.215 0 012.157 0l1.422.787-.198-1.906a2.512 2.512 0 01.619-1.935l1.217-1.354-1.663-.29a2.325 2.325 0 01-1.673-1.275L12 6.085zm.82-1.503a.905.905 0 00-1.64 0L9.966 7.03a.93.93 0 01-.67.51l-2.522.44c-.731.127-1.03 1.062-.52 1.628l1.816 2.018c.186.208.277.491.247.775l-.294 2.815c-.08.775.695 1.33 1.352.967l2.193-1.214c.27-.15.593-.15.863 0l2.192 1.214c.656.363 1.432-.192 1.352-.967l-.293-2.815a1 1 0 01.247-.774l1.816-2.019c.51-.566.21-1.5-.521-1.628l-2.522-.44a.93.93 0 01-.669-.51L12.82 4.583z"/></svg><svg viewBox="0 0 22 20" id="search" xmlns="http://www.w3.org/2000/svg"><path fill-rule="evenodd" clip-rule="evenodd" d="M8.877 15.668c-4.369 0-7.91-3.507-7.91-7.832C.967 3.51 4.508.003 8.877.003s7.91 3.507 7.91 7.833a7.74 7.74 0 01-1.266 4.252c.078.053.152.114.222.183l5.155 5.155a1.508 1.508 0 11-2.133 2.132l-5.155-5.155a1.522 1.522 0 01-.154-.18 7.928 7.928 0 01-4.579 1.445zm0-1.65c3.45 0 6.245-2.768 6.245-6.182 0-3.415-2.796-6.184-6.245-6.184-3.449 0-6.245 2.769-6.245 6.184s2.796 6.183 6.245 6.183z"/></svg><svg viewBox="0 0 8 12" id="see-all" xmlns="http://www.w3.org/2000/svg"><path d="M7.174 6.594l-5.16 5.16a.84.84 0 11-1.188-1.189L5.392 6 .826 1.435A.84.84 0 012.015.246l5.16 5.16a.837.837 0 010 1.188z"/></svg><svg viewBox="0 0 17 16" id="star" xmlns="http://www.w3.org/2000/svg"><path d="M8.5 0l1.908 5.873h6.176l-4.996 3.63 1.908 5.874-4.996-3.63-4.996 3.63 1.908-5.874-4.996-3.63h6.176L8.5 0z"/></svg><svg viewBox="0 0 18 18" id="write" xmlns="http://www.w3.org/2000/svg"><path d="M14.254 1.5c-.578 0-1.155.219-1.591.655L11.8 3H3.583A2.095 2.095 0 001.5 5.083v9.334c0 1.141.942 2.083 2.083 2.083h9.335A2.095 2.095 0 0015 14.417V6.201l.845-.863a2.263 2.263 0 000-3.183 2.246 2.246 0 00-1.592-.655zm.002 1.485c.19 0 .38.076.532.227a.736.736 0 010 1.064l-.006.006L8.687 10.5H7.502V9.315l6.218-6.096.005-.005a.75.75 0 01.531-.227v-.002zM3.583 4.5h6.687L6.223 8.467a.75.75 0 00-.221.531v2.253a.75.75 0 00.747.748h2.254c.2 0 .39-.08.53-.222l3.968-4.047v6.687a.565.565 0 01-.583.583H3.582A.565.565 0 013 14.417V5.083c0-.336.247-.583.583-.583z"/></svg></svg>