<svg width="32" height="32" viewBox="0 0 32 32" fill="none" xmlns="http://www.w3.org/2000/svg">
<circle cx="16" cy="16" r="14" fill="white" stroke="url(#paint0_linear_0_5702)" stroke-width="2"/>
<path d="M11.6588 20C10.9922 20 10.4235 19.8956 9.95294 19.6867C9.4902 19.4704 9.11373 19.1758 8.82353 18.8028C8.54118 18.4298 8.33333 18.0084 8.2 17.5385C8.06667 17.0611 8 16.565 8 16.0503V12H9.62353V16.0503C9.62353 16.4904 9.68627 16.9082 9.81176 17.3035C9.93726 17.6988 10.149 18.0196 10.4471 18.2657C10.7451 18.5119 11.1451 18.635 11.6471 18.635C12.1647 18.635 12.5725 18.5119 12.8706 18.2657C13.1686 18.0121 13.3804 17.6876 13.5059 17.2923C13.6314 16.897 13.6941 16.483 13.6941 16.0503V12H15.3059V16.0503C15.3059 16.5949 15.2353 17.1058 15.0941 17.5832C14.9608 18.0606 14.7451 18.4821 14.4471 18.8476C14.1569 19.2056 13.7804 19.489 13.3176 19.6979C12.8549 19.8993 12.302 20 11.6588 20Z" fill="url(#paint1_linear_0_5702)"/>
<path d="M17.8 12L20.0588 18.1091L22.2941 12H24L20.8353 19.9441H19.2706L16.0941 12H17.8Z" fill="url(#paint2_linear_0_5702)"/>
<defs>
<linearGradient id="paint0_linear_0_5702" x1="2.05" y1="1" x2="22.75" y2="31" gradientUnits="userSpaceOnUse">
<stop offset="0.0019141" stop-color="#10DF10"/>
<stop offset="1" stop-color="#008100"/>
</linearGradient>
<linearGradient id="paint1_linear_0_5702" x1="8.56" y1="12" x2="12.2007" y2="22.5528" gradientUnits="userSpaceOnUse">
<stop offset="0.0019141" stop-color="#10DF10"/>
<stop offset="1" stop-color="#008100"/>
</linearGradient>
<linearGradient id="paint2_linear_0_5702" x1="8.56" y1="12" x2="12.2007" y2="22.5528" gradientUnits="userSpaceOnUse">
<stop offset="0.0019141" stop-color="#10DF10"/>
<stop offset="1" stop-color="#008100"/>
</linearGradient>
</defs>
</svg>
