<svg width="24" height="24" viewBox="0 0 24 24" fill="none" xmlns="http://www.w3.org/2000/svg">
<path d="M19.539 11.9985C19.4745 11.9985 19.4115 11.9985 19.35 12C19.449 11.5065 19.5 11.0025 19.5 10.5C19.5 6.3645 16.1355 3 12 3C7.8675 3 4.5 6.3315 4.4955 10.4235L4.5075 10.575C1.938 10.9425 0 13.167 0 15.75C0 18.369 1.887 20.622 4.5 21H8.25C8.44891 21 8.63968 20.921 8.78033 20.7803C8.92098 20.6397 9 20.4489 9 20.25C9 20.0511 8.92098 19.8603 8.78033 19.7197C8.63968 19.579 8.44891 19.5 8.25 19.5L4.6095 19.5075C2.8665 19.251 1.5 17.5995 1.5 15.75C1.5 13.908 2.883 12.3225 4.719 12.06L5.364 11.967C5.54265 11.9414 5.70607 11.8522 5.82427 11.7158C5.94247 11.5794 6.00752 11.405 6.0075 11.2245L5.9955 10.4265C6 7.158 8.6925 4.5 12 4.5C15.309 4.5 18 7.191 18 10.5C18 10.9065 17.9595 11.316 17.877 11.7135L17.679 12.6675C17.6295 12.906 17.7 13.152 17.865 13.3305C18.03 13.5075 18.267 13.599 18.513 13.5615C18.5295 13.56 18.999 13.4985 19.539 13.4985C21.1725 13.4985 22.5 14.844 22.5 16.5C22.5 18.1545 21.1545 19.5 19.5 19.5H14.25C12.15 19.5 12.0075 18.2415 12 18V13.023L13.7745 14.796C13.916 14.9326 14.1054 15.0082 14.3021 15.0065C14.4987 15.0048 14.6868 14.9259 14.8259 14.7869C14.9649 14.6478 15.0438 14.4597 15.0455 14.2631C15.0472 14.0664 14.9716 13.877 14.835 13.7355L11.817 10.719C11.7468 10.6491 11.6635 10.5938 11.5719 10.5562C11.4802 10.5186 11.382 10.4995 11.283 10.5C11.271 10.5 11.262 10.494 11.25 10.494C11.1479 10.4942 11.047 10.5155 10.9536 10.5565C10.8601 10.5975 10.7762 10.6575 10.707 10.7325L7.686 13.7505C7.54938 13.892 7.47379 14.0814 7.47549 14.2781C7.4772 14.4747 7.55608 14.6628 7.69514 14.8019C7.83419 14.9409 8.0223 15.0198 8.21895 15.0215C8.4156 15.0232 8.60505 14.9476 8.7465 14.811L10.5 13.059V18C10.5 19.0365 11.283 21 14.25 21H19.5C21.981 21 24 18.981 24 16.5C24 14.019 21.999 11.9985 19.539 11.9985Z" fill="#929292"/>
</svg>
