<svg width="46" height="18" viewBox="0 0 46 18" fill="none" xmlns="http://www.w3.org/2000/svg">
<g clip-path="url(#clip0_0_541)">
<path d="M20.0239 15.7612H16.3714L18.6541 2.24829H22.307L20.0239 15.7612ZM13.2987 2.24829L9.81658 11.5426L9.40454 9.54115L9.40491 9.54188L8.17591 3.46497C8.17591 3.46497 8.0273 2.24829 6.4433 2.24829H0.686689L0.619141 2.4771C0.619141 2.4771 2.37952 2.82988 4.43974 4.02163L7.61301 15.7616H11.4186L17.2296 2.24829H13.2987ZM42.0273 15.7612H45.3811L42.457 2.24793H39.5209C38.1651 2.24793 37.8348 3.25496 37.8348 3.25496L32.3874 15.7612H36.1949L36.9563 13.754H41.5995L42.0273 15.7612ZM38.0082 10.9812L39.9273 5.92436L41.007 10.9812H38.0082ZM32.673 5.49784L33.1943 2.59602C33.1943 2.59602 31.5859 2.00684 29.9092 2.00684C28.0966 2.00684 23.7923 2.76988 23.7923 6.48029C23.7923 9.9713 28.8442 10.0147 28.8442 11.8484C28.8442 13.6821 24.3128 13.3535 22.8174 12.1972L22.2743 15.2313C22.2743 15.2313 23.9053 15.9943 26.397 15.9943C28.8896 15.9943 32.6498 14.7513 32.6498 11.368C32.6498 7.85457 27.5525 7.52745 27.5525 5.99991C27.5529 4.47201 31.11 4.66828 32.673 5.49784Z" fill="#2566AF"/>
<path d="M9.40493 9.54163L8.17592 3.46473C8.17592 3.46473 8.02732 2.24805 6.44331 2.24805H0.686689L0.619141 2.47685C0.619141 2.47685 3.386 3.02917 6.03989 5.09854C8.57746 7.07646 9.40493 9.54163 9.40493 9.54163Z" fill="#E6A540"/>
</g>
<defs>
<clipPath id="clip0_0_541">
<rect width="46" height="18" fill="white"/>
</clipPath>
</defs>
</svg>
