<svg width="32" height="32" viewBox="0 0 32 32" fill="none" xmlns="http://www.w3.org/2000/svg">
<path d="M20.4162 31.6616C19.459 31.6152 18.5136 31.4304 17.6093 31.1131C16.9452 30.8762 16.2542 30.7226 15.5522 30.6559C14.8813 30.6909 14.2161 30.7982 13.5682 30.9759C12.2151 31.3051 10.6699 31.6799 9.22534 31.0308C7.78077 30.3816 7.0402 28.9828 6.4002 27.7485C6.115 27.1398 5.75571 26.5686 5.33049 26.0479C4.82774 25.5642 4.26552 25.1464 3.65734 24.8045C2.48706 24.0822 1.17049 23.2594 0.631059 21.8422C0.0916307 20.4251 0.493916 18.9256 0.914488 17.6182C1.1429 16.9468 1.28724 16.2497 1.3442 15.5428C1.319 14.8709 1.21153 14.2046 1.0242 13.5588C0.695059 12.2056 0.320202 10.6696 0.969345 9.21593C1.71564 7.93487 2.872 6.94278 4.25163 6.39993C4.86084 6.11187 5.43204 5.7495 5.9522 5.32107C6.43299 4.81919 6.85057 4.26037 7.19563 3.65707C7.91792 2.44107 8.74077 1.1245 10.1671 0.585074C11.5933 0.0456455 13.0745 0.493645 14.3911 0.914217C15.055 1.15205 15.7461 1.30563 16.4482 1.37136C17.12 1.3381 17.7857 1.22766 18.4322 1.04222C19.7853 0.722217 21.3305 0.34736 22.7751 0.996503C24.0549 1.73426 25.0498 2.88051 25.6002 4.25136C25.8854 4.86009 26.2447 5.43127 26.6699 5.95193C27.184 6.4382 27.7586 6.85612 28.3796 7.19536C29.5499 7.91765 30.8665 8.7405 31.4059 10.1576C31.9453 11.5748 31.4973 13.0742 31.1042 14.3908C30.8673 15.0549 30.7137 15.7459 30.6471 16.4479C30.6723 17.1199 30.7797 17.7862 30.9671 18.4319C31.2962 19.7851 31.6711 21.3211 31.0219 22.7748C30.3728 24.2194 28.9739 24.9599 27.7396 25.6091C27.1293 25.8966 26.5554 26.2557 26.0299 26.6788C25.5499 27.1959 25.1354 27.7701 24.7956 28.3885C24.0733 29.5588 23.2505 30.8754 21.8333 31.4148C21.3803 31.5839 20.8998 31.6676 20.4162 31.6616ZM15.4699 28.3428H15.6162C16.5202 28.409 17.4116 28.5934 18.2676 28.8914C19.133 29.2788 20.0924 29.4059 21.0288 29.2571C21.7236 29.0011 22.2722 28.1051 22.8573 27.1634C23.303 26.3756 23.8468 25.6475 24.4756 24.9965C25.1465 24.4294 25.887 23.9501 26.6791 23.5702C27.5952 23.2282 28.3859 22.6161 28.9465 21.8148C29.175 20.8636 29.1081 19.8652 28.7545 18.9531C28.5067 18.1181 28.3684 17.2545 28.3431 16.3839C28.4092 15.4799 28.5937 14.5885 28.8916 13.7325C29.279 12.8672 29.4061 11.9077 29.2573 10.9714C28.9922 10.2765 28.1053 9.72793 27.1636 9.14279C26.3758 8.69712 25.6477 8.15336 24.9968 7.5245C24.4361 6.85257 23.963 6.11217 23.5888 5.32107C23.2438 4.40659 22.6323 3.61671 21.8333 3.05365C20.8827 2.82564 19.8855 2.88936 18.9716 3.2365C18.1337 3.49951 17.2623 3.64114 16.3842 3.65707C15.473 3.58196 14.5756 3.38833 13.7145 3.08107C12.8526 2.70394 11.8994 2.58638 10.9716 2.74279C10.2768 3.00793 9.7282 3.89479 9.14306 4.8365C8.6961 5.61788 8.15238 6.33976 7.52477 6.98507C6.85386 7.55217 6.11342 8.03146 5.32134 8.41136C4.40686 8.75635 3.61698 9.36788 3.05392 10.1668C2.82591 11.1174 2.88963 12.1146 3.23677 13.0285C3.49473 13.8677 3.63624 14.7383 3.65734 15.6159C3.58223 16.5271 3.3886 17.4246 3.08134 18.2856C2.70421 19.1476 2.58665 20.1008 2.74306 21.0285C3.0082 21.7234 3.89506 22.2719 4.83677 22.8571C5.62456 23.3027 6.35265 23.8465 7.00363 24.4754C7.56431 25.1473 8.03743 25.8877 8.41163 26.6788C8.75662 27.5933 9.36815 28.3832 10.1671 28.9462C11.1187 29.1702 12.1156 29.1033 13.0288 28.7542C13.8235 28.5216 14.6429 28.3835 15.4699 28.3428Z" fill="url(#paint0_linear_0_5694)"/>
<path d="M14.2614 20.3613C14.1142 20.363 13.9682 20.3357 13.8317 20.2808C13.6952 20.2258 13.5709 20.1444 13.4659 20.0413L10.1745 16.8138C10.0677 16.7094 9.98242 16.5849 9.92367 16.4475C9.86491 16.3101 9.8338 16.1625 9.8321 16.0131C9.83041 15.8636 9.85816 15.7153 9.91377 15.5766C9.96938 15.438 10.0518 15.3116 10.1562 15.2047C10.2607 15.0978 10.3852 15.0126 10.5226 14.9539C10.66 14.8951 10.8076 14.864 10.957 14.8623C11.1064 14.8606 11.2547 14.8884 11.3934 14.944C11.5321 14.9996 11.6585 15.082 11.7654 15.1864L14.2705 17.6367L20.2408 11.9498C20.3476 11.8377 20.4761 11.7484 20.6185 11.6875C20.7609 11.6265 20.9141 11.5951 21.069 11.5952C21.2239 11.5953 21.3771 11.6269 21.5194 11.688C21.6617 11.7491 21.7901 11.8385 21.8968 11.9508C22.0035 12.0631 22.0862 12.1959 22.14 12.3411C22.1938 12.4863 22.2175 12.641 22.2097 12.7956C22.2019 12.9503 22.1628 13.1018 22.0946 13.2409C22.0265 13.38 21.9308 13.5037 21.8134 13.6047L15.0477 20.0047C14.9465 20.113 14.825 20.2003 14.6901 20.2615C14.5552 20.3226 14.4095 20.3566 14.2614 20.3613Z" fill="url(#paint1_linear_0_5694)"/>
<defs>
<linearGradient id="paint0_linear_0_5694" x1="1.46602" y1="0.337158" x2="23.0902" y2="31.6354" gradientUnits="userSpaceOnUse">
<stop offset="0.0019141" stop-color="#10DF10"/>
<stop offset="1" stop-color="#008100"/>
</linearGradient>
<linearGradient id="paint1_linear_0_5694" x1="10.2653" y1="11.5952" x2="15.3693" y2="22.041" gradientUnits="userSpaceOnUse">
<stop offset="0.0019141" stop-color="#10DF10"/>
<stop offset="1" stop-color="#008100"/>
</linearGradient>
</defs>
</svg>
